<mxfile host="app.diagrams.net" modified="2020-09-02T01:10:50.447Z" agent="5.0 (X11)" etag="_b3adOGwxJ3c6BhPPbr7" version="13.6.6" type="github" pages="17">
  <diagram id="rMpPFo-NsCuVZG48vWvC" name="Transformation">
    <mxGraphModel dx="810" dy="449" grid="1" gridSize="10" guides="1" tooltips="1" connect="1" arrows="1" fold="1" page="1" pageScale="1" pageWidth="980" pageHeight="690" math="1" shadow="0">
      <root>
        <mxCell id="5pAeC5k6nRE1vEOoV7lP-0" />
        <mxCell id="5pAeC5k6nRE1vEOoV7lP-1" parent="5pAeC5k6nRE1vEOoV7lP-0" />
        <mxCell id="CpsBF_Wn-gydVHmDiDTO-0" value="&lt;h1&gt;Transformation&lt;/h1&gt;" style="text;align=center;verticalAlign=middle;resizable=0;points=[];autosize=1;labelBorderColor=none;labelBackgroundColor=none;html=1;" parent="5pAeC5k6nRE1vEOoV7lP-1" vertex="1">
          <mxGeometry x="40" y="30" width="190" height="50" as="geometry" />
        </mxCell>
        <mxCell id="eNJxXmmU7Q-vlIFRZY43-1" style="edgeStyle=orthogonalEdgeStyle;rounded=0;orthogonalLoop=1;jettySize=auto;html=1;curved=1;" parent="5pAeC5k6nRE1vEOoV7lP-1" source="eNJxXmmU7Q-vlIFRZY43-0" edge="1">
          <mxGeometry relative="1" as="geometry">
            <mxPoint x="80" y="240" as="targetPoint" />
          </mxGeometry>
        </mxCell>
        <mxCell id="QZ8ByNgkRu5A0PQ3RnU7-1" value="$$\small B$$" style="edgeLabel;html=1;align=left;verticalAlign=middle;resizable=0;points=[];labelBackgroundColor=none;" parent="eNJxXmmU7Q-vlIFRZY43-1" vertex="1" connectable="0">
          <mxGeometry x="-0.2361" relative="1" as="geometry">
            <mxPoint y="4.72" as="offset" />
          </mxGeometry>
        </mxCell>
        <mxCell id="eNJxXmmU7Q-vlIFRZY43-2" style="edgeStyle=orthogonalEdgeStyle;curved=1;rounded=0;orthogonalLoop=1;jettySize=auto;html=1;entryX=0.5;entryY=0;entryDx=0;entryDy=0;" parent="5pAeC5k6nRE1vEOoV7lP-1" target="eNJxXmmU7Q-vlIFRZY43-0" edge="1">
          <mxGeometry relative="1" as="geometry">
            <mxPoint x="79.94117647058829" y="120" as="targetPoint" />
            <mxPoint x="80" y="120" as="sourcePoint" />
          </mxGeometry>
        </mxCell>
        <mxCell id="QZ8ByNgkRu5A0PQ3RnU7-0" value="$$\small A$$" style="edgeLabel;html=1;align=left;verticalAlign=middle;resizable=0;points=[];labelBackgroundColor=none;" parent="eNJxXmmU7Q-vlIFRZY43-2" vertex="1" connectable="0">
          <mxGeometry x="-0.3194" y="-1" relative="1" as="geometry">
            <mxPoint x="1" y="6.39" as="offset" />
          </mxGeometry>
        </mxCell>
        <mxCell id="eNJxXmmU7Q-vlIFRZY43-0" value="$$f$$" style="rounded=1;whiteSpace=wrap;html=1;labelBackgroundColor=none;fillColor=#f5f5f5;strokeColor=#666666;fontColor=#333333;" parent="5pAeC5k6nRE1vEOoV7lP-1" vertex="1">
          <mxGeometry x="40" y="160" width="80" height="40" as="geometry" />
        </mxCell>
        <mxCell id="r6ir4L_q3adP99XyWO5J-2" value="A transformation \(f\)&lt;br&gt;maps any input of type \(A\)&lt;br&gt;to the output of type \(B\)." style="text;html=1;align=left;verticalAlign=middle;resizable=0;points=[];autosize=1;" parent="5pAeC5k6nRE1vEOoV7lP-1" vertex="1">
          <mxGeometry x="160" y="160" width="160" height="50" as="geometry" />
        </mxCell>
      </root>
    </mxGraphModel>
  </diagram>
  <diagram id="IQm5bzxW-f6IXJnA8p48" name="Composition">
    <mxGraphModel dx="810" dy="449" grid="1" gridSize="10" guides="1" tooltips="1" connect="1" arrows="1" fold="1" page="1" pageScale="1" pageWidth="980" pageHeight="690" math="1" shadow="0">
      <root>
        <mxCell id="hToUl_4AGVo9qI8tKe5j-0" />
        <mxCell id="hToUl_4AGVo9qI8tKe5j-1" parent="hToUl_4AGVo9qI8tKe5j-0" />
        <mxCell id="lha85jjQRxcNk8GH5Iyx-0" style="edgeStyle=orthogonalEdgeStyle;rounded=0;orthogonalLoop=1;jettySize=auto;html=1;curved=1;" parent="hToUl_4AGVo9qI8tKe5j-1" source="lha85jjQRxcNk8GH5Iyx-4" edge="1">
          <mxGeometry relative="1" as="geometry">
            <mxPoint x="80" y="240" as="targetPoint" />
          </mxGeometry>
        </mxCell>
        <mxCell id="lha85jjQRxcNk8GH5Iyx-1" value="$$\small B$$" style="edgeLabel;html=1;align=left;verticalAlign=middle;resizable=0;points=[];labelBackgroundColor=none;" parent="lha85jjQRxcNk8GH5Iyx-0" vertex="1" connectable="0">
          <mxGeometry x="-0.2361" relative="1" as="geometry">
            <mxPoint y="4.72" as="offset" />
          </mxGeometry>
        </mxCell>
        <mxCell id="lha85jjQRxcNk8GH5Iyx-2" style="edgeStyle=orthogonalEdgeStyle;curved=1;rounded=0;orthogonalLoop=1;jettySize=auto;html=1;entryX=0.5;entryY=0;entryDx=0;entryDy=0;" parent="hToUl_4AGVo9qI8tKe5j-1" target="lha85jjQRxcNk8GH5Iyx-4" edge="1">
          <mxGeometry relative="1" as="geometry">
            <mxPoint x="79.94117647058829" y="120" as="targetPoint" />
            <mxPoint x="80" y="120" as="sourcePoint" />
          </mxGeometry>
        </mxCell>
        <mxCell id="lha85jjQRxcNk8GH5Iyx-3" value="$$\small A$$" style="edgeLabel;html=1;align=left;verticalAlign=middle;resizable=0;points=[];labelBackgroundColor=none;" parent="lha85jjQRxcNk8GH5Iyx-2" vertex="1" connectable="0">
          <mxGeometry x="-0.3194" y="-1" relative="1" as="geometry">
            <mxPoint x="1" y="6.39" as="offset" />
          </mxGeometry>
        </mxCell>
        <mxCell id="lha85jjQRxcNk8GH5Iyx-4" value="$$f$$" style="rounded=1;whiteSpace=wrap;html=1;labelBackgroundColor=none;fillColor=#f5f5f5;strokeColor=#666666;fontColor=#333333;" parent="hToUl_4AGVo9qI8tKe5j-1" vertex="1">
          <mxGeometry x="40" y="160" width="80" height="40" as="geometry" />
        </mxCell>
        <mxCell id="lha85jjQRxcNk8GH5Iyx-5" value="&lt;h1&gt;Composition&lt;/h1&gt;" style="text;html=1;align=center;verticalAlign=middle;resizable=0;points=[];autosize=1;" parent="hToUl_4AGVo9qI8tKe5j-1" vertex="1">
          <mxGeometry x="40" y="30" width="160" height="50" as="geometry" />
        </mxCell>
        <mxCell id="9r2lQcu-vZFz3Aymzmk3-0" style="edgeStyle=orthogonalEdgeStyle;rounded=0;orthogonalLoop=1;jettySize=auto;html=1;curved=1;" parent="hToUl_4AGVo9qI8tKe5j-1" source="9r2lQcu-vZFz3Aymzmk3-4" edge="1">
          <mxGeometry relative="1" as="geometry">
            <mxPoint x="80" y="380" as="targetPoint" />
          </mxGeometry>
        </mxCell>
        <mxCell id="9r2lQcu-vZFz3Aymzmk3-1" value="$$\small C$$" style="edgeLabel;html=1;align=left;verticalAlign=middle;resizable=0;points=[];labelBackgroundColor=none;" parent="9r2lQcu-vZFz3Aymzmk3-0" vertex="1" connectable="0">
          <mxGeometry x="-0.2361" relative="1" as="geometry">
            <mxPoint y="4.72" as="offset" />
          </mxGeometry>
        </mxCell>
        <mxCell id="9r2lQcu-vZFz3Aymzmk3-2" style="edgeStyle=orthogonalEdgeStyle;curved=1;rounded=0;orthogonalLoop=1;jettySize=auto;html=1;entryX=0.5;entryY=0;entryDx=0;entryDy=0;" parent="hToUl_4AGVo9qI8tKe5j-1" target="9r2lQcu-vZFz3Aymzmk3-4" edge="1">
          <mxGeometry relative="1" as="geometry">
            <mxPoint x="79.94117647058829" y="260" as="targetPoint" />
            <mxPoint x="80" y="260" as="sourcePoint" />
          </mxGeometry>
        </mxCell>
        <mxCell id="9r2lQcu-vZFz3Aymzmk3-3" value="$$\small B$$" style="edgeLabel;html=1;align=left;verticalAlign=middle;resizable=0;points=[];labelBackgroundColor=none;" parent="9r2lQcu-vZFz3Aymzmk3-2" vertex="1" connectable="0">
          <mxGeometry x="-0.3194" y="-1" relative="1" as="geometry">
            <mxPoint x="1" y="6.39" as="offset" />
          </mxGeometry>
        </mxCell>
        <mxCell id="9r2lQcu-vZFz3Aymzmk3-4" value="$$g$$" style="rounded=1;whiteSpace=wrap;html=1;labelBackgroundColor=none;fillColor=#f5f5f5;strokeColor=#666666;fontColor=#333333;" parent="hToUl_4AGVo9qI8tKe5j-1" vertex="1">
          <mxGeometry x="40" y="300" width="80" height="40" as="geometry" />
        </mxCell>
        <mxCell id="BdBK_XEFIv1bLZK8_JG3-0" value="" style="html=1;shadow=0;dashed=0;align=center;verticalAlign=middle;shape=mxgraph.arrows2.arrow;dy=0.6;dx=40;notch=0;labelBackgroundColor=none;strokeColor=none;fillColor=#E6E6E6;" parent="hToUl_4AGVo9qI8tKe5j-1" vertex="1">
          <mxGeometry x="170" y="200" width="100" height="100" as="geometry" />
        </mxCell>
        <mxCell id="BdBK_XEFIv1bLZK8_JG3-1" style="edgeStyle=orthogonalEdgeStyle;rounded=0;orthogonalLoop=1;jettySize=auto;html=1;curved=1;entryX=0.5;entryY=0;entryDx=0;entryDy=0;" parent="hToUl_4AGVo9qI8tKe5j-1" source="BdBK_XEFIv1bLZK8_JG3-5" target="BdBK_XEFIv1bLZK8_JG3-10" edge="1">
          <mxGeometry relative="1" as="geometry">
            <mxPoint x="360" y="240" as="targetPoint" />
          </mxGeometry>
        </mxCell>
        <mxCell id="BdBK_XEFIv1bLZK8_JG3-2" value="$$\small B$$" style="edgeLabel;html=1;align=left;verticalAlign=middle;resizable=0;points=[];labelBackgroundColor=none;" parent="BdBK_XEFIv1bLZK8_JG3-1" vertex="1" connectable="0">
          <mxGeometry x="-0.2361" relative="1" as="geometry">
            <mxPoint y="4.83" as="offset" />
          </mxGeometry>
        </mxCell>
        <mxCell id="BdBK_XEFIv1bLZK8_JG3-3" style="edgeStyle=orthogonalEdgeStyle;curved=1;rounded=0;orthogonalLoop=1;jettySize=auto;html=1;entryX=0.5;entryY=0;entryDx=0;entryDy=0;" parent="hToUl_4AGVo9qI8tKe5j-1" target="BdBK_XEFIv1bLZK8_JG3-5" edge="1">
          <mxGeometry relative="1" as="geometry">
            <mxPoint x="359.9411764705883" y="150" as="targetPoint" />
            <mxPoint x="360" y="150" as="sourcePoint" />
          </mxGeometry>
        </mxCell>
        <mxCell id="BdBK_XEFIv1bLZK8_JG3-4" value="$$\small A$$" style="edgeLabel;html=1;align=left;verticalAlign=middle;resizable=0;points=[];labelBackgroundColor=none;" parent="BdBK_XEFIv1bLZK8_JG3-3" vertex="1" connectable="0">
          <mxGeometry x="-0.3194" y="-1" relative="1" as="geometry">
            <mxPoint x="1" y="6.39" as="offset" />
          </mxGeometry>
        </mxCell>
        <mxCell id="BdBK_XEFIv1bLZK8_JG3-5" value="$$f$$" style="rounded=1;whiteSpace=wrap;html=1;labelBackgroundColor=none;fillColor=#f5f5f5;strokeColor=#666666;fontColor=#333333;" parent="hToUl_4AGVo9qI8tKe5j-1" vertex="1">
          <mxGeometry x="320" y="190" width="80" height="40" as="geometry" />
        </mxCell>
        <mxCell id="BdBK_XEFIv1bLZK8_JG3-6" style="edgeStyle=orthogonalEdgeStyle;rounded=0;orthogonalLoop=1;jettySize=auto;html=1;curved=1;" parent="hToUl_4AGVo9qI8tKe5j-1" source="BdBK_XEFIv1bLZK8_JG3-10" edge="1">
          <mxGeometry relative="1" as="geometry">
            <mxPoint x="360" y="350" as="targetPoint" />
          </mxGeometry>
        </mxCell>
        <mxCell id="BdBK_XEFIv1bLZK8_JG3-7" value="$$\small C$$" style="edgeLabel;html=1;align=left;verticalAlign=middle;resizable=0;points=[];labelBackgroundColor=none;" parent="BdBK_XEFIv1bLZK8_JG3-6" vertex="1" connectable="0">
          <mxGeometry x="-0.2361" relative="1" as="geometry">
            <mxPoint y="4.72" as="offset" />
          </mxGeometry>
        </mxCell>
        <mxCell id="BdBK_XEFIv1bLZK8_JG3-10" value="$$g$$" style="rounded=1;whiteSpace=wrap;html=1;labelBackgroundColor=none;fillColor=#f5f5f5;strokeColor=#666666;fontColor=#333333;" parent="hToUl_4AGVo9qI8tKe5j-1" vertex="1">
          <mxGeometry x="320" y="270" width="80" height="40" as="geometry" />
        </mxCell>
        <mxCell id="BdBK_XEFIv1bLZK8_JG3-11" value="Transformations with compatible input and output&lt;br&gt;can be composed." style="text;html=1;align=left;verticalAlign=middle;resizable=0;points=[];autosize=1;" parent="hToUl_4AGVo9qI8tKe5j-1" vertex="1">
          <mxGeometry x="40" y="440" width="280" height="30" as="geometry" />
        </mxCell>
        <mxCell id="LcheQD8LoowO_4yFmIOc-0" value="$$\small\mathrm{chain\_of}(f,g)$$" style="text;html=1;align=center;verticalAlign=middle;resizable=0;points=[];autosize=1;" parent="hToUl_4AGVo9qI8tKe5j-1" vertex="1">
          <mxGeometry x="260" y="380" width="200" height="20" as="geometry" />
        </mxCell>
      </root>
    </mxGraphModel>
  </diagram>
  <diagram id="6im7H3sgqydBGszaOU0c" name="Composition is a Transformation">
    <mxGraphModel dx="810" dy="449" grid="1" gridSize="10" guides="1" tooltips="1" connect="1" arrows="1" fold="1" page="1" pageScale="1" pageWidth="980" pageHeight="690" math="1" shadow="0">
      <root>
        <mxCell id="I1oFhejsTnF1mioXvpzJ-0" />
        <mxCell id="I1oFhejsTnF1mioXvpzJ-1" parent="I1oFhejsTnF1mioXvpzJ-0" />
        <mxCell id="fG6x2VFAGXsMPblLhwjk-0" value="&lt;h1&gt;Composition is a Transformation&lt;/h1&gt;" style="text;html=1;align=center;verticalAlign=middle;resizable=0;points=[];autosize=1;" parent="I1oFhejsTnF1mioXvpzJ-1" vertex="1">
          <mxGeometry x="40" y="30" width="390" height="50" as="geometry" />
        </mxCell>
        <mxCell id="bqvcpEkQG3Hk7iht0vjQ-0" style="edgeStyle=orthogonalEdgeStyle;rounded=0;orthogonalLoop=1;jettySize=auto;html=1;curved=1;entryX=0.5;entryY=0;entryDx=0;entryDy=0;" parent="I1oFhejsTnF1mioXvpzJ-1" source="bqvcpEkQG3Hk7iht0vjQ-4" target="bqvcpEkQG3Hk7iht0vjQ-7" edge="1">
          <mxGeometry relative="1" as="geometry">
            <mxPoint x="100" y="230" as="targetPoint" />
          </mxGeometry>
        </mxCell>
        <mxCell id="bqvcpEkQG3Hk7iht0vjQ-1" value="$$\small B$$" style="edgeLabel;html=1;align=left;verticalAlign=middle;resizable=0;points=[];labelBackgroundColor=none;" parent="bqvcpEkQG3Hk7iht0vjQ-0" vertex="1" connectable="0">
          <mxGeometry x="-0.2361" relative="1" as="geometry">
            <mxPoint y="4.83" as="offset" />
          </mxGeometry>
        </mxCell>
        <mxCell id="bqvcpEkQG3Hk7iht0vjQ-2" style="edgeStyle=orthogonalEdgeStyle;curved=1;rounded=0;orthogonalLoop=1;jettySize=auto;html=1;entryX=0.5;entryY=0;entryDx=0;entryDy=0;" parent="I1oFhejsTnF1mioXvpzJ-1" target="bqvcpEkQG3Hk7iht0vjQ-4" edge="1">
          <mxGeometry relative="1" as="geometry">
            <mxPoint x="99.94117647058829" y="140" as="targetPoint" />
            <mxPoint x="100" y="120" as="sourcePoint" />
          </mxGeometry>
        </mxCell>
        <mxCell id="bqvcpEkQG3Hk7iht0vjQ-3" value="$$\small A$$" style="edgeLabel;html=1;align=left;verticalAlign=middle;resizable=0;points=[];labelBackgroundColor=none;" parent="bqvcpEkQG3Hk7iht0vjQ-2" vertex="1" connectable="0">
          <mxGeometry x="-0.3194" y="-1" relative="1" as="geometry">
            <mxPoint x="1" y="-0.6900000000000013" as="offset" />
          </mxGeometry>
        </mxCell>
        <mxCell id="bqvcpEkQG3Hk7iht0vjQ-4" value="$$f$$" style="rounded=1;whiteSpace=wrap;html=1;labelBackgroundColor=none;fillColor=#f5f5f5;strokeColor=#666666;fontColor=#333333;" parent="I1oFhejsTnF1mioXvpzJ-1" vertex="1">
          <mxGeometry x="60" y="180" width="80" height="40" as="geometry" />
        </mxCell>
        <mxCell id="bqvcpEkQG3Hk7iht0vjQ-5" style="edgeStyle=orthogonalEdgeStyle;rounded=0;orthogonalLoop=1;jettySize=auto;html=1;curved=1;" parent="I1oFhejsTnF1mioXvpzJ-1" source="bqvcpEkQG3Hk7iht0vjQ-7" edge="1">
          <mxGeometry relative="1" as="geometry">
            <mxPoint x="100" y="360" as="targetPoint" />
          </mxGeometry>
        </mxCell>
        <mxCell id="bqvcpEkQG3Hk7iht0vjQ-6" value="$$\small C$$" style="edgeLabel;html=1;align=left;verticalAlign=middle;resizable=0;points=[];labelBackgroundColor=none;" parent="bqvcpEkQG3Hk7iht0vjQ-5" vertex="1" connectable="0">
          <mxGeometry x="-0.2361" relative="1" as="geometry">
            <mxPoint y="17.24" as="offset" />
          </mxGeometry>
        </mxCell>
        <mxCell id="bqvcpEkQG3Hk7iht0vjQ-7" value="$$g$$" style="rounded=1;whiteSpace=wrap;html=1;labelBackgroundColor=none;fillColor=#f5f5f5;strokeColor=#666666;fontColor=#333333;" parent="I1oFhejsTnF1mioXvpzJ-1" vertex="1">
          <mxGeometry x="60" y="260" width="80" height="40" as="geometry" />
        </mxCell>
        <mxCell id="wvqBqdVTuqOVXgy7JEdf-0" value="" style="rounded=0;whiteSpace=wrap;html=1;labelBackgroundColor=none;align=left;opacity=75;fillColor=#f5f5f5;strokeColor=#666666;fontColor=#333333;" parent="I1oFhejsTnF1mioXvpzJ-1" vertex="1">
          <mxGeometry x="40" y="160" width="120" height="160" as="geometry" />
        </mxCell>
        <mxCell id="vTP5Z9yQHhVWCt_xZJvv-0" value="Crucially, composition of transformations&lt;br&gt;is again a transformation." style="text;html=1;align=left;verticalAlign=middle;resizable=0;points=[];autosize=1;" parent="I1oFhejsTnF1mioXvpzJ-1" vertex="1">
          <mxGeometry x="200" y="290" width="230" height="30" as="geometry" />
        </mxCell>
      </root>
    </mxGraphModel>
  </diagram>
  <diagram id="Y3XqSTPFipeToVVKnB1i" name="Composition Combinator">
    <mxGraphModel dx="810" dy="449" grid="1" gridSize="10" guides="1" tooltips="1" connect="1" arrows="1" fold="1" page="1" pageScale="1" pageWidth="980" pageHeight="690" math="1" shadow="0">
      <root>
        <mxCell id="M_8RHyu54dN3lPYPs2E4-0" />
        <mxCell id="M_8RHyu54dN3lPYPs2E4-1" parent="M_8RHyu54dN3lPYPs2E4-0" />
        <mxCell id="M_8RHyu54dN3lPYPs2E4-2" value="&lt;h1&gt;Composition Combinator&lt;/h1&gt;" style="text;html=1;align=center;verticalAlign=middle;resizable=0;points=[];autosize=1;" parent="M_8RHyu54dN3lPYPs2E4-1" vertex="1">
          <mxGeometry x="40" y="30" width="300" height="50" as="geometry" />
        </mxCell>
        <mxCell id="Bbb8M1PtfMiMKxMvmMNS-1" style="edgeStyle=orthogonalEdgeStyle;curved=1;rounded=0;orthogonalLoop=1;jettySize=auto;html=1;entryX=0.5;entryY=0;entryDx=0;entryDy=0;" parent="M_8RHyu54dN3lPYPs2E4-1" source="2YUPQa2wwL4DMRPB4F9F-0" target="Bbb8M1PtfMiMKxMvmMNS-0" edge="1">
          <mxGeometry relative="1" as="geometry" />
        </mxCell>
        <mxCell id="Bbb8M1PtfMiMKxMvmMNS-3" style="edgeStyle=orthogonalEdgeStyle;curved=1;rounded=0;orthogonalLoop=1;jettySize=auto;html=1;entryX=0.5;entryY=0;entryDx=0;entryDy=0;" parent="M_8RHyu54dN3lPYPs2E4-1" target="2YUPQa2wwL4DMRPB4F9F-0" edge="1">
          <mxGeometry relative="1" as="geometry">
            <mxPoint x="100" y="120" as="targetPoint" />
            <mxPoint x="100" y="120" as="sourcePoint" />
          </mxGeometry>
        </mxCell>
        <mxCell id="2YUPQa2wwL4DMRPB4F9F-0" value="&lt;div align=&quot;center&quot;&gt;&lt;i&gt;Add transformation&lt;/i&gt;&lt;/div&gt;" style="rounded=1;whiteSpace=wrap;html=1;labelBackgroundColor=none;opacity=75;align=center;dashed=1;" parent="M_8RHyu54dN3lPYPs2E4-1" vertex="1">
          <mxGeometry x="40" y="160" width="120" height="60" as="geometry" />
        </mxCell>
        <mxCell id="Bbb8M1PtfMiMKxMvmMNS-2" style="edgeStyle=orthogonalEdgeStyle;curved=1;rounded=0;orthogonalLoop=1;jettySize=auto;html=1;" parent="M_8RHyu54dN3lPYPs2E4-1" source="Bbb8M1PtfMiMKxMvmMNS-0" edge="1">
          <mxGeometry relative="1" as="geometry">
            <mxPoint x="100" y="360" as="targetPoint" />
          </mxGeometry>
        </mxCell>
        <mxCell id="Bbb8M1PtfMiMKxMvmMNS-0" value="&lt;div align=&quot;center&quot;&gt;&lt;i&gt;Add transformation&lt;/i&gt;&lt;/div&gt;" style="rounded=1;whiteSpace=wrap;html=1;labelBackgroundColor=none;opacity=75;align=center;dashed=1;" parent="M_8RHyu54dN3lPYPs2E4-1" vertex="1">
          <mxGeometry x="40" y="260" width="120" height="60" as="geometry" />
        </mxCell>
        <mxCell id="F42J71oXj0NtTf7idKZS-0" value="Composition \(\mathrm{chain\_of}(\unicode{x2B1A},\unicode{x2B1A})\)&lt;br&gt;is a transformation combinator&lt;br&gt;with two arguments." style="text;html=1;align=left;verticalAlign=middle;resizable=0;points=[];autosize=1;" parent="M_8RHyu54dN3lPYPs2E4-1" vertex="1">
          <mxGeometry x="120" y="390" width="390" height="50" as="geometry" />
        </mxCell>
      </root>
    </mxGraphModel>
  </diagram>
  <diagram id="gO2esBTSg_cSxMR45eDp" name="Example: Composition">
    <mxGraphModel dx="810" dy="449" grid="1" gridSize="10" guides="1" tooltips="1" connect="1" arrows="1" fold="1" page="1" pageScale="1" pageWidth="980" pageHeight="690" math="1" shadow="0">
      <root>
        <mxCell id="oswlE0zQUEBbs-2NFTVK-0" />
        <mxCell id="oswlE0zQUEBbs-2NFTVK-1" parent="oswlE0zQUEBbs-2NFTVK-0" />
        <mxCell id="oswlE0zQUEBbs-2NFTVK-2" value="&lt;h1&gt;Example: Composition&lt;/h1&gt;" style="text;html=1;align=center;verticalAlign=middle;resizable=0;points=[];autosize=1;" parent="oswlE0zQUEBbs-2NFTVK-1" vertex="1">
          <mxGeometry x="40" y="30" width="280" height="50" as="geometry" />
        </mxCell>
        <mxCell id="ksD8PQGJ9nsp-RkTucrg-0" style="edgeStyle=orthogonalEdgeStyle;rounded=0;orthogonalLoop=1;jettySize=auto;html=1;curved=1;" parent="oswlE0zQUEBbs-2NFTVK-1" source="ksD8PQGJ9nsp-RkTucrg-4" edge="1">
          <mxGeometry relative="1" as="geometry">
            <mxPoint x="280" y="240" as="targetPoint" />
          </mxGeometry>
        </mxCell>
        <mxCell id="ksD8PQGJ9nsp-RkTucrg-1" value="$$\scriptsize\mathsf{Dept}$$" style="edgeLabel;html=1;align=left;verticalAlign=middle;resizable=0;points=[];labelBackgroundColor=none;" parent="ksD8PQGJ9nsp-RkTucrg-0" vertex="1" connectable="0">
          <mxGeometry x="-0.2361" relative="1" as="geometry">
            <mxPoint y="4.72" as="offset" />
          </mxGeometry>
        </mxCell>
        <mxCell id="ksD8PQGJ9nsp-RkTucrg-2" style="edgeStyle=orthogonalEdgeStyle;curved=1;rounded=0;orthogonalLoop=1;jettySize=auto;html=1;entryX=0.5;entryY=0;entryDx=0;entryDy=0;" parent="oswlE0zQUEBbs-2NFTVK-1" target="ksD8PQGJ9nsp-RkTucrg-4" edge="1">
          <mxGeometry relative="1" as="geometry">
            <mxPoint x="279.9411764705883" y="120" as="targetPoint" />
            <mxPoint x="280" y="120" as="sourcePoint" />
          </mxGeometry>
        </mxCell>
        <mxCell id="ksD8PQGJ9nsp-RkTucrg-3" value="$$\scriptsize\mathsf{Emp}$$" style="edgeLabel;html=1;align=left;verticalAlign=middle;resizable=0;points=[];labelBackgroundColor=none;" parent="ksD8PQGJ9nsp-RkTucrg-2" vertex="1" connectable="0">
          <mxGeometry x="-0.3194" y="-1" relative="1" as="geometry">
            <mxPoint x="1" y="6.39" as="offset" />
          </mxGeometry>
        </mxCell>
        <mxCell id="ksD8PQGJ9nsp-RkTucrg-4" value="$$\small\mathsf{department}$$" style="rounded=1;whiteSpace=wrap;html=1;labelBackgroundColor=none;fillColor=#f5f5f5;strokeColor=#666666;fontColor=#333333;" parent="oswlE0zQUEBbs-2NFTVK-1" vertex="1">
          <mxGeometry x="240" y="160" width="80" height="40" as="geometry" />
        </mxCell>
        <mxCell id="ksD8PQGJ9nsp-RkTucrg-5" style="edgeStyle=orthogonalEdgeStyle;rounded=0;orthogonalLoop=1;jettySize=auto;html=1;curved=1;" parent="oswlE0zQUEBbs-2NFTVK-1" source="ksD8PQGJ9nsp-RkTucrg-9" edge="1">
          <mxGeometry relative="1" as="geometry">
            <mxPoint x="280" y="380" as="targetPoint" />
          </mxGeometry>
        </mxCell>
        <mxCell id="ksD8PQGJ9nsp-RkTucrg-6" value="$$\scriptsize\mathrm{String}$$" style="edgeLabel;html=1;align=left;verticalAlign=middle;resizable=0;points=[];labelBackgroundColor=none;" parent="ksD8PQGJ9nsp-RkTucrg-5" vertex="1" connectable="0">
          <mxGeometry x="-0.2361" relative="1" as="geometry">
            <mxPoint y="4.72" as="offset" />
          </mxGeometry>
        </mxCell>
        <mxCell id="ksD8PQGJ9nsp-RkTucrg-7" style="edgeStyle=orthogonalEdgeStyle;curved=1;rounded=0;orthogonalLoop=1;jettySize=auto;html=1;entryX=0.5;entryY=0;entryDx=0;entryDy=0;" parent="oswlE0zQUEBbs-2NFTVK-1" target="ksD8PQGJ9nsp-RkTucrg-9" edge="1">
          <mxGeometry relative="1" as="geometry">
            <mxPoint x="279.9411764705883" y="260" as="targetPoint" />
            <mxPoint x="280" y="260" as="sourcePoint" />
          </mxGeometry>
        </mxCell>
        <mxCell id="ksD8PQGJ9nsp-RkTucrg-8" value="$$\scriptsize\mathsf{Dept}$$" style="edgeLabel;html=1;align=left;verticalAlign=middle;resizable=0;points=[];labelBackgroundColor=none;" parent="ksD8PQGJ9nsp-RkTucrg-7" vertex="1" connectable="0">
          <mxGeometry x="-0.3194" y="-1" relative="1" as="geometry">
            <mxPoint x="1" y="6.39" as="offset" />
          </mxGeometry>
        </mxCell>
        <mxCell id="ksD8PQGJ9nsp-RkTucrg-9" value="$$\small\mathsf{name}$$" style="rounded=1;whiteSpace=wrap;html=1;labelBackgroundColor=none;fillColor=#f5f5f5;strokeColor=#666666;fontColor=#333333;" parent="oswlE0zQUEBbs-2NFTVK-1" vertex="1">
          <mxGeometry x="240" y="300" width="80" height="40" as="geometry" />
        </mxCell>
        <mxCell id="ksD8PQGJ9nsp-RkTucrg-10" value="" style="html=1;shadow=0;dashed=0;align=center;verticalAlign=middle;shape=mxgraph.arrows2.arrow;dy=0.6;dx=40;notch=0;labelBackgroundColor=none;strokeColor=none;fillColor=#E6E6E6;" parent="oswlE0zQUEBbs-2NFTVK-1" vertex="1">
          <mxGeometry x="370" y="200" width="100" height="100" as="geometry" />
        </mxCell>
        <mxCell id="ksD8PQGJ9nsp-RkTucrg-19" value="$$\small\mathrm{chain\_of}(\mathsf{department},\mathsf{name})$$" style="text;html=1;align=center;verticalAlign=middle;resizable=0;points=[];autosize=1;" parent="oswlE0zQUEBbs-2NFTVK-1" vertex="1">
          <mxGeometry x="400" y="400" width="370" height="20" as="geometry" />
        </mxCell>
        <mxCell id="duQ3oAJpFDg2NpH1YDiN-0" style="edgeStyle=orthogonalEdgeStyle;rounded=0;orthogonalLoop=1;jettySize=auto;html=1;curved=1;entryX=0.5;entryY=0;entryDx=0;entryDy=0;" parent="oswlE0zQUEBbs-2NFTVK-1" source="duQ3oAJpFDg2NpH1YDiN-4" target="duQ3oAJpFDg2NpH1YDiN-9" edge="1">
          <mxGeometry relative="1" as="geometry">
            <mxPoint x="560" y="220" as="targetPoint" />
          </mxGeometry>
        </mxCell>
        <mxCell id="duQ3oAJpFDg2NpH1YDiN-1" value="$$\scriptsize\mathsf{Dept}$$" style="edgeLabel;html=1;align=left;verticalAlign=middle;resizable=0;points=[];labelBackgroundColor=none;" parent="duQ3oAJpFDg2NpH1YDiN-0" vertex="1" connectable="0">
          <mxGeometry x="-0.2361" relative="1" as="geometry">
            <mxPoint y="4.8" as="offset" />
          </mxGeometry>
        </mxCell>
        <mxCell id="duQ3oAJpFDg2NpH1YDiN-2" style="edgeStyle=orthogonalEdgeStyle;curved=1;rounded=0;orthogonalLoop=1;jettySize=auto;html=1;entryX=0.5;entryY=0;entryDx=0;entryDy=0;" parent="oswlE0zQUEBbs-2NFTVK-1" target="duQ3oAJpFDg2NpH1YDiN-4" edge="1">
          <mxGeometry relative="1" as="geometry">
            <mxPoint x="559.9411764705883" y="150" as="targetPoint" />
            <mxPoint x="560" y="150" as="sourcePoint" />
          </mxGeometry>
        </mxCell>
        <mxCell id="duQ3oAJpFDg2NpH1YDiN-3" value="$$\scriptsize\mathsf{Emp}$$" style="edgeLabel;html=1;align=left;verticalAlign=middle;resizable=0;points=[];labelBackgroundColor=none;" parent="duQ3oAJpFDg2NpH1YDiN-2" vertex="1" connectable="0">
          <mxGeometry x="-0.3194" y="-1" relative="1" as="geometry">
            <mxPoint x="1" y="6.39" as="offset" />
          </mxGeometry>
        </mxCell>
        <mxCell id="duQ3oAJpFDg2NpH1YDiN-4" value="$$\small\mathsf{department}$$" style="rounded=1;whiteSpace=wrap;html=1;labelBackgroundColor=none;fillColor=#f5f5f5;strokeColor=#666666;fontColor=#333333;" parent="oswlE0zQUEBbs-2NFTVK-1" vertex="1">
          <mxGeometry x="520" y="190" width="80" height="40" as="geometry" />
        </mxCell>
        <mxCell id="duQ3oAJpFDg2NpH1YDiN-5" style="edgeStyle=orthogonalEdgeStyle;rounded=0;orthogonalLoop=1;jettySize=auto;html=1;curved=1;" parent="oswlE0zQUEBbs-2NFTVK-1" source="duQ3oAJpFDg2NpH1YDiN-9" edge="1">
          <mxGeometry relative="1" as="geometry">
            <mxPoint x="560" y="350" as="targetPoint" />
          </mxGeometry>
        </mxCell>
        <mxCell id="duQ3oAJpFDg2NpH1YDiN-6" value="$$\scriptsize\mathrm{String}$$" style="edgeLabel;html=1;align=left;verticalAlign=middle;resizable=0;points=[];labelBackgroundColor=none;" parent="duQ3oAJpFDg2NpH1YDiN-5" vertex="1" connectable="0">
          <mxGeometry x="-0.2361" relative="1" as="geometry">
            <mxPoint y="4.72" as="offset" />
          </mxGeometry>
        </mxCell>
        <mxCell id="duQ3oAJpFDg2NpH1YDiN-9" value="$$\small\mathsf{name}$$" style="rounded=1;whiteSpace=wrap;html=1;labelBackgroundColor=none;fillColor=#f5f5f5;strokeColor=#666666;fontColor=#333333;" parent="oswlE0zQUEBbs-2NFTVK-1" vertex="1">
          <mxGeometry x="520" y="270" width="80" height="40" as="geometry" />
        </mxCell>
        <mxCell id="kjqKIxy3XWTNWCiKbFqS-0" value="&lt;font style=&quot;font-size: 11px&quot;&gt;Maps employee records&lt;br style=&quot;font-size: 11px;&quot;&gt;to the name of their department&lt;/font&gt;" style="text;html=1;align=left;verticalAlign=middle;resizable=0;points=[];autosize=1;fontStyle=2;fontSize=11;" parent="oswlE0zQUEBbs-2NFTVK-1" vertex="1">
          <mxGeometry x="660" y="235" width="170" height="30" as="geometry" />
        </mxCell>
        <mxCell id="kjqKIxy3XWTNWCiKbFqS-1" value="" style="shape=curlyBracket;whiteSpace=wrap;html=1;rounded=1;labelBackgroundColor=none;opacity=75;align=left;flipV=0;flipH=1;" parent="oswlE0zQUEBbs-2NFTVK-1" vertex="1">
          <mxGeometry x="640" y="180" width="20" height="140" as="geometry" />
        </mxCell>
        <mxCell id="kjqKIxy3XWTNWCiKbFqS-5" style="edgeStyle=orthogonalEdgeStyle;curved=1;rounded=0;orthogonalLoop=1;jettySize=auto;html=1;dashed=1;dashPattern=1 1;endArrow=classicThin;endFill=1;exitX=0.5;exitY=0;exitDx=0;exitDy=0;" parent="oswlE0zQUEBbs-2NFTVK-1" source="kjqKIxy3XWTNWCiKbFqS-4" edge="1">
          <mxGeometry relative="1" as="geometry">
            <mxPoint x="230" y="320" as="targetPoint" />
            <Array as="points">
              <mxPoint x="145" y="320" />
            </Array>
          </mxGeometry>
        </mxCell>
        <mxCell id="kjqKIxy3XWTNWCiKbFqS-4" value="&lt;div style=&quot;font-size: 11px&quot; align=&quot;center&quot;&gt;&lt;font style=&quot;font-size: 11px&quot;&gt;&lt;i style=&quot;font-size: 11px;&quot;&gt;Maps a department record to its name&lt;/i&gt;&lt;/font&gt;&lt;/div&gt;" style="ellipse;whiteSpace=wrap;html=1;labelBackgroundColor=none;opacity=75;align=center;dashed=1;dashPattern=1 1;fontSize=11;" parent="oswlE0zQUEBbs-2NFTVK-1" vertex="1">
          <mxGeometry x="90" y="400" width="110" height="50" as="geometry" />
        </mxCell>
        <mxCell id="kjqKIxy3XWTNWCiKbFqS-7" style="edgeStyle=orthogonalEdgeStyle;curved=1;rounded=0;orthogonalLoop=1;jettySize=auto;html=1;exitX=0.5;exitY=0;exitDx=0;exitDy=0;dashed=1;dashPattern=1 1;endArrow=classicThin;endFill=1;" parent="oswlE0zQUEBbs-2NFTVK-1" source="kjqKIxy3XWTNWCiKbFqS-6" edge="1">
          <mxGeometry relative="1" as="geometry">
            <mxPoint x="230" y="180" as="targetPoint" />
            <Array as="points">
              <mxPoint x="110" y="180" />
            </Array>
          </mxGeometry>
        </mxCell>
        <mxCell id="kjqKIxy3XWTNWCiKbFqS-6" value="&lt;font style=&quot;font-size: 11px&quot;&gt;&lt;i style=&quot;font-size: 11px;&quot;&gt;Maps an employee to the associated department&lt;/i&gt;&lt;/font&gt;" style="ellipse;whiteSpace=wrap;html=1;labelBackgroundColor=none;opacity=75;align=center;dashed=1;dashPattern=1 1;fontSize=11;" parent="oswlE0zQUEBbs-2NFTVK-1" vertex="1">
          <mxGeometry x="40" y="200" width="140" height="50" as="geometry" />
        </mxCell>
      </root>
    </mxGraphModel>
  </diagram>
  <diagram id="sHpveuRQyIX-rcGMqTgi" name="Counter-example: Plural Component">
    <mxGraphModel dx="810" dy="449" grid="1" gridSize="10" guides="1" tooltips="1" connect="1" arrows="1" fold="1" page="1" pageScale="1" pageWidth="980" pageHeight="690" math="1" shadow="0">
      <root>
        <mxCell id="uP0uie0zy0ITp1Ep6BZQ-0" />
        <mxCell id="uP0uie0zy0ITp1Ep6BZQ-1" parent="uP0uie0zy0ITp1Ep6BZQ-0" />
        <mxCell id="89wvlmUCOzLbxtiD9rpx-0" value="&lt;h1&gt;Counter-example: Plural Component&lt;/h1&gt;" style="text;html=1;align=center;verticalAlign=middle;resizable=0;points=[];autosize=1;" parent="uP0uie0zy0ITp1Ep6BZQ-1" vertex="1">
          <mxGeometry x="40" y="30" width="430" height="50" as="geometry" />
        </mxCell>
        <mxCell id="tT9VgjkmEAQQTlk9uty4-0" style="edgeStyle=orthogonalEdgeStyle;rounded=0;orthogonalLoop=1;jettySize=auto;html=1;curved=1;" parent="uP0uie0zy0ITp1Ep6BZQ-1" source="tT9VgjkmEAQQTlk9uty4-4" edge="1">
          <mxGeometry relative="1" as="geometry">
            <mxPoint x="280" y="240" as="targetPoint" />
          </mxGeometry>
        </mxCell>
        <mxCell id="tT9VgjkmEAQQTlk9uty4-1" value="$$\scriptsize\mathrm{Block}_{0:N}\{\mathsf{Emp}\}$$" style="edgeLabel;html=1;align=left;verticalAlign=middle;resizable=0;points=[];labelBackgroundColor=none;" parent="tT9VgjkmEAQQTlk9uty4-0" vertex="1" connectable="0">
          <mxGeometry x="-0.2361" relative="1" as="geometry">
            <mxPoint y="4.72" as="offset" />
          </mxGeometry>
        </mxCell>
        <mxCell id="tT9VgjkmEAQQTlk9uty4-2" style="edgeStyle=orthogonalEdgeStyle;curved=1;rounded=0;orthogonalLoop=1;jettySize=auto;html=1;entryX=0.5;entryY=0;entryDx=0;entryDy=0;" parent="uP0uie0zy0ITp1Ep6BZQ-1" target="tT9VgjkmEAQQTlk9uty4-4" edge="1">
          <mxGeometry relative="1" as="geometry">
            <mxPoint x="279.9411764705883" y="120" as="targetPoint" />
            <mxPoint x="280" y="120" as="sourcePoint" />
          </mxGeometry>
        </mxCell>
        <mxCell id="tT9VgjkmEAQQTlk9uty4-3" value="$$\scriptsize\mathsf{Dept}$$" style="edgeLabel;html=1;align=left;verticalAlign=middle;resizable=0;points=[];labelBackgroundColor=none;" parent="tT9VgjkmEAQQTlk9uty4-2" vertex="1" connectable="0">
          <mxGeometry x="-0.3194" y="-1" relative="1" as="geometry">
            <mxPoint x="1" y="6.39" as="offset" />
          </mxGeometry>
        </mxCell>
        <mxCell id="tT9VgjkmEAQQTlk9uty4-4" value="$$\small\mathsf{employee}$$" style="rounded=1;whiteSpace=wrap;html=1;labelBackgroundColor=none;fillColor=#f5f5f5;strokeColor=#666666;fontColor=#333333;" parent="uP0uie0zy0ITp1Ep6BZQ-1" vertex="1">
          <mxGeometry x="240" y="160" width="80" height="40" as="geometry" />
        </mxCell>
        <mxCell id="tT9VgjkmEAQQTlk9uty4-5" style="edgeStyle=orthogonalEdgeStyle;rounded=0;orthogonalLoop=1;jettySize=auto;html=1;curved=1;" parent="uP0uie0zy0ITp1Ep6BZQ-1" source="tT9VgjkmEAQQTlk9uty4-9" edge="1">
          <mxGeometry relative="1" as="geometry">
            <mxPoint x="280" y="380" as="targetPoint" />
          </mxGeometry>
        </mxCell>
        <mxCell id="tT9VgjkmEAQQTlk9uty4-6" value="$$\scriptsize\mathrm{Int}$$" style="edgeLabel;html=1;align=left;verticalAlign=middle;resizable=0;points=[];labelBackgroundColor=none;" parent="tT9VgjkmEAQQTlk9uty4-5" vertex="1" connectable="0">
          <mxGeometry x="-0.2361" relative="1" as="geometry">
            <mxPoint y="4.72" as="offset" />
          </mxGeometry>
        </mxCell>
        <mxCell id="tT9VgjkmEAQQTlk9uty4-7" style="edgeStyle=orthogonalEdgeStyle;curved=1;rounded=0;orthogonalLoop=1;jettySize=auto;html=1;entryX=0.5;entryY=0;entryDx=0;entryDy=0;" parent="uP0uie0zy0ITp1Ep6BZQ-1" target="tT9VgjkmEAQQTlk9uty4-9" edge="1">
          <mxGeometry relative="1" as="geometry">
            <mxPoint x="279.9411764705883" y="260" as="targetPoint" />
            <mxPoint x="280" y="260" as="sourcePoint" />
          </mxGeometry>
        </mxCell>
        <mxCell id="tT9VgjkmEAQQTlk9uty4-8" value="$$\scriptsize\mathsf{Emp}$$" style="edgeLabel;html=1;align=left;verticalAlign=middle;resizable=0;points=[];labelBackgroundColor=none;" parent="tT9VgjkmEAQQTlk9uty4-7" vertex="1" connectable="0">
          <mxGeometry x="-0.3194" y="-1" relative="1" as="geometry">
            <mxPoint x="1" y="6.39" as="offset" />
          </mxGeometry>
        </mxCell>
        <mxCell id="tT9VgjkmEAQQTlk9uty4-9" value="$$\small\mathsf{salary}$$" style="rounded=1;whiteSpace=wrap;html=1;labelBackgroundColor=none;fillColor=#f5f5f5;strokeColor=#666666;fontColor=#333333;" parent="uP0uie0zy0ITp1Ep6BZQ-1" vertex="1">
          <mxGeometry x="240" y="300" width="80" height="40" as="geometry" />
        </mxCell>
        <mxCell id="tT9VgjkmEAQQTlk9uty4-10" value="" style="html=1;shadow=0;dashed=0;align=center;verticalAlign=middle;shape=mxgraph.arrows2.arrow;dy=0.6;dx=40;notch=0;labelBackgroundColor=none;strokeColor=none;fillColor=#E6E6E6;" parent="uP0uie0zy0ITp1Ep6BZQ-1" vertex="1">
          <mxGeometry x="450" y="200" width="100" height="100" as="geometry" />
        </mxCell>
        <mxCell id="tT9VgjkmEAQQTlk9uty4-22" style="edgeStyle=orthogonalEdgeStyle;curved=1;rounded=0;orthogonalLoop=1;jettySize=auto;html=1;dashed=1;dashPattern=1 1;endArrow=classicThin;endFill=1;exitX=0.5;exitY=0;exitDx=0;exitDy=0;" parent="uP0uie0zy0ITp1Ep6BZQ-1" source="tT9VgjkmEAQQTlk9uty4-23" edge="1">
          <mxGeometry relative="1" as="geometry">
            <mxPoint x="230" y="320" as="targetPoint" />
            <Array as="points">
              <mxPoint x="135" y="320" />
            </Array>
          </mxGeometry>
        </mxCell>
        <mxCell id="tT9VgjkmEAQQTlk9uty4-23" value="&lt;font style=&quot;font-size: 11px&quot;&gt;&lt;i style=&quot;font-size: 11px;&quot;&gt;Maps an employee to their salary&lt;/i&gt;&lt;/font&gt;" style="ellipse;whiteSpace=wrap;html=1;labelBackgroundColor=none;align=center;dashed=1;dashPattern=1 1;fontSize=11;" parent="uP0uie0zy0ITp1Ep6BZQ-1" vertex="1">
          <mxGeometry x="70" y="400" width="130" height="40" as="geometry" />
        </mxCell>
        <mxCell id="tT9VgjkmEAQQTlk9uty4-24" style="edgeStyle=orthogonalEdgeStyle;curved=1;rounded=0;orthogonalLoop=1;jettySize=auto;html=1;exitX=0.5;exitY=0;exitDx=0;exitDy=0;dashed=1;dashPattern=1 1;endArrow=classicThin;endFill=1;" parent="uP0uie0zy0ITp1Ep6BZQ-1" source="tT9VgjkmEAQQTlk9uty4-25" edge="1">
          <mxGeometry relative="1" as="geometry">
            <mxPoint x="230" y="180" as="targetPoint" />
            <Array as="points">
              <mxPoint x="110" y="180" />
            </Array>
          </mxGeometry>
        </mxCell>
        <mxCell id="tT9VgjkmEAQQTlk9uty4-25" value="&lt;font style=&quot;font-size: 11px&quot;&gt;&lt;i style=&quot;font-size: 11px;&quot;&gt;Maps a department to the collection of associated employees&lt;/i&gt;&lt;/font&gt;" style="ellipse;whiteSpace=wrap;html=1;labelBackgroundColor=none;align=center;dashed=1;dashPattern=1 1;fontSize=11;" parent="uP0uie0zy0ITp1Ep6BZQ-1" vertex="1">
          <mxGeometry x="40" y="200" width="140" height="80" as="geometry" />
        </mxCell>
        <mxCell id="3dj0PPH2Fb-rdeXUX02G-0" style="edgeStyle=orthogonalEdgeStyle;curved=1;rounded=0;orthogonalLoop=1;jettySize=auto;html=1;dashed=1;endArrow=classicThin;endFill=1;fontSize=120;fontColor=#E6E6E6;dashPattern=1 1;exitX=0.5;exitY=0;exitDx=0;exitDy=0;" parent="uP0uie0zy0ITp1Ep6BZQ-1" source="M0hX_4lETzorNMCtiNvA-1" edge="1">
          <mxGeometry relative="1" as="geometry">
            <mxPoint x="310" y="230" as="targetPoint" />
            <Array as="points">
              <mxPoint x="415" y="260" />
              <mxPoint x="310" y="260" />
            </Array>
          </mxGeometry>
        </mxCell>
        <mxCell id="M0hX_4lETzorNMCtiNvA-1" value="&lt;font style=&quot;font-size: 11px&quot;&gt;&lt;i style=&quot;font-size: 11px;&quot;&gt;Collection of employee records&lt;/i&gt;&lt;/font&gt;" style="ellipse;whiteSpace=wrap;html=1;labelBackgroundColor=none;align=center;dashed=1;dashPattern=1 1;fontSize=11;" parent="uP0uie0zy0ITp1Ep6BZQ-1" vertex="1">
          <mxGeometry x="360" y="400" width="110" height="50" as="geometry" />
        </mxCell>
        <mxCell id="9eNqRsNSz2aVAH1Bcj1Q-0" value="We cannot compose these transformations&lt;br&gt; because their input and output do not quite match." style="text;align=left;verticalAlign=middle;resizable=0;points=[];autosize=1;fontSize=12;html=1;" parent="uP0uie0zy0ITp1Ep6BZQ-1" vertex="1">
          <mxGeometry x="520" y="360" width="280" height="30" as="geometry" />
        </mxCell>
        <mxCell id="9eNqRsNSz2aVAH1Bcj1Q-1" value="?" style="text;html=1;align=center;verticalAlign=middle;resizable=0;points=[];autosize=1;fontSize=120;fontStyle=1;fontColor=#E6E6E6;" parent="uP0uie0zy0ITp1Ep6BZQ-1" vertex="1">
          <mxGeometry x="550" y="165" width="90" height="150" as="geometry" />
        </mxCell>
      </root>
    </mxGraphModel>
  </diagram>
  <diagram name="Counter-example: Optional Component" id="5XVZsGvTvC41AfZJ__Jv">
    <mxGraphModel dx="810" dy="449" grid="1" gridSize="10" guides="1" tooltips="1" connect="1" arrows="1" fold="1" page="1" pageScale="1" pageWidth="980" pageHeight="690" math="1" shadow="0">
      <root>
        <mxCell id="GyZmnRRTT0jB5SIz0MQ8-0" />
        <mxCell id="GyZmnRRTT0jB5SIz0MQ8-1" parent="GyZmnRRTT0jB5SIz0MQ8-0" />
        <mxCell id="GyZmnRRTT0jB5SIz0MQ8-2" value="&lt;h1&gt;Counter-example: Optional Component&lt;/h1&gt;" style="text;html=1;align=center;verticalAlign=middle;resizable=0;points=[];autosize=1;" parent="GyZmnRRTT0jB5SIz0MQ8-1" vertex="1">
          <mxGeometry x="40" y="30" width="460" height="50" as="geometry" />
        </mxCell>
        <mxCell id="GyZmnRRTT0jB5SIz0MQ8-3" style="edgeStyle=orthogonalEdgeStyle;rounded=0;orthogonalLoop=1;jettySize=auto;html=1;curved=1;" parent="GyZmnRRTT0jB5SIz0MQ8-1" source="GyZmnRRTT0jB5SIz0MQ8-7" edge="1">
          <mxGeometry relative="1" as="geometry">
            <mxPoint x="280" y="240" as="targetPoint" />
          </mxGeometry>
        </mxCell>
        <mxCell id="GyZmnRRTT0jB5SIz0MQ8-4" value="$$\scriptsize\mathrm{Block}_{0:1}\{\mathsf{Emp}\}$$" style="edgeLabel;html=1;align=left;verticalAlign=middle;resizable=0;points=[];labelBackgroundColor=none;" parent="GyZmnRRTT0jB5SIz0MQ8-3" vertex="1" connectable="0">
          <mxGeometry x="-0.2361" relative="1" as="geometry">
            <mxPoint y="4.72" as="offset" />
          </mxGeometry>
        </mxCell>
        <mxCell id="GyZmnRRTT0jB5SIz0MQ8-5" style="edgeStyle=orthogonalEdgeStyle;curved=1;rounded=0;orthogonalLoop=1;jettySize=auto;html=1;entryX=0.5;entryY=0;entryDx=0;entryDy=0;" parent="GyZmnRRTT0jB5SIz0MQ8-1" target="GyZmnRRTT0jB5SIz0MQ8-7" edge="1">
          <mxGeometry relative="1" as="geometry">
            <mxPoint x="279.9411764705883" y="120" as="targetPoint" />
            <mxPoint x="280" y="120" as="sourcePoint" />
          </mxGeometry>
        </mxCell>
        <mxCell id="GyZmnRRTT0jB5SIz0MQ8-6" value="$$\scriptsize\mathsf{Emp}$$" style="edgeLabel;html=1;align=left;verticalAlign=middle;resizable=0;points=[];labelBackgroundColor=none;" parent="GyZmnRRTT0jB5SIz0MQ8-5" vertex="1" connectable="0">
          <mxGeometry x="-0.3194" y="-1" relative="1" as="geometry">
            <mxPoint x="1" y="6.39" as="offset" />
          </mxGeometry>
        </mxCell>
        <mxCell id="GyZmnRRTT0jB5SIz0MQ8-7" value="$$\small\mathsf{manager}$$" style="rounded=1;whiteSpace=wrap;html=1;labelBackgroundColor=none;fillColor=#f5f5f5;strokeColor=#666666;fontColor=#333333;" parent="GyZmnRRTT0jB5SIz0MQ8-1" vertex="1">
          <mxGeometry x="240" y="160" width="80" height="40" as="geometry" />
        </mxCell>
        <mxCell id="GyZmnRRTT0jB5SIz0MQ8-8" style="edgeStyle=orthogonalEdgeStyle;rounded=0;orthogonalLoop=1;jettySize=auto;html=1;curved=1;" parent="GyZmnRRTT0jB5SIz0MQ8-1" source="GyZmnRRTT0jB5SIz0MQ8-12" edge="1">
          <mxGeometry relative="1" as="geometry">
            <mxPoint x="280" y="380" as="targetPoint" />
          </mxGeometry>
        </mxCell>
        <mxCell id="GyZmnRRTT0jB5SIz0MQ8-9" value="$$\scriptsize\mathrm{Int}$$" style="edgeLabel;html=1;align=left;verticalAlign=middle;resizable=0;points=[];labelBackgroundColor=none;" parent="GyZmnRRTT0jB5SIz0MQ8-8" vertex="1" connectable="0">
          <mxGeometry x="-0.2361" relative="1" as="geometry">
            <mxPoint y="4.72" as="offset" />
          </mxGeometry>
        </mxCell>
        <mxCell id="GyZmnRRTT0jB5SIz0MQ8-10" style="edgeStyle=orthogonalEdgeStyle;curved=1;rounded=0;orthogonalLoop=1;jettySize=auto;html=1;entryX=0.5;entryY=0;entryDx=0;entryDy=0;" parent="GyZmnRRTT0jB5SIz0MQ8-1" target="GyZmnRRTT0jB5SIz0MQ8-12" edge="1">
          <mxGeometry relative="1" as="geometry">
            <mxPoint x="279.9411764705883" y="260" as="targetPoint" />
            <mxPoint x="280" y="260" as="sourcePoint" />
          </mxGeometry>
        </mxCell>
        <mxCell id="GyZmnRRTT0jB5SIz0MQ8-11" value="$$\scriptsize\mathsf{Emp}$$" style="edgeLabel;html=1;align=left;verticalAlign=middle;resizable=0;points=[];labelBackgroundColor=none;" parent="GyZmnRRTT0jB5SIz0MQ8-10" vertex="1" connectable="0">
          <mxGeometry x="-0.3194" y="-1" relative="1" as="geometry">
            <mxPoint x="1" y="6.39" as="offset" />
          </mxGeometry>
        </mxCell>
        <mxCell id="GyZmnRRTT0jB5SIz0MQ8-12" value="$$\small\mathsf{salary}$$" style="rounded=1;whiteSpace=wrap;html=1;labelBackgroundColor=none;fillColor=#f5f5f5;strokeColor=#666666;fontColor=#333333;" parent="GyZmnRRTT0jB5SIz0MQ8-1" vertex="1">
          <mxGeometry x="240" y="300" width="80" height="40" as="geometry" />
        </mxCell>
        <mxCell id="GyZmnRRTT0jB5SIz0MQ8-13" value="" style="html=1;shadow=0;dashed=0;align=center;verticalAlign=middle;shape=mxgraph.arrows2.arrow;dy=0.6;dx=40;notch=0;labelBackgroundColor=none;strokeColor=none;fillColor=#E6E6E6;" parent="GyZmnRRTT0jB5SIz0MQ8-1" vertex="1">
          <mxGeometry x="450" y="200" width="100" height="100" as="geometry" />
        </mxCell>
        <mxCell id="GyZmnRRTT0jB5SIz0MQ8-16" style="edgeStyle=orthogonalEdgeStyle;curved=1;rounded=0;orthogonalLoop=1;jettySize=auto;html=1;exitX=0.5;exitY=0;exitDx=0;exitDy=0;dashed=1;dashPattern=1 1;endArrow=classicThin;endFill=1;" parent="GyZmnRRTT0jB5SIz0MQ8-1" source="GyZmnRRTT0jB5SIz0MQ8-17" edge="1">
          <mxGeometry relative="1" as="geometry">
            <mxPoint x="230" y="180" as="targetPoint" />
            <Array as="points">
              <mxPoint x="110" y="180" />
            </Array>
          </mxGeometry>
        </mxCell>
        <mxCell id="GyZmnRRTT0jB5SIz0MQ8-17" value="Maps an employee to their manager, if there is one" style="ellipse;whiteSpace=wrap;html=1;labelBackgroundColor=none;align=center;dashed=1;dashPattern=1 1;fontSize=11;fontStyle=2" parent="GyZmnRRTT0jB5SIz0MQ8-1" vertex="1">
          <mxGeometry x="40" y="220" width="140" height="60" as="geometry" />
        </mxCell>
        <mxCell id="GyZmnRRTT0jB5SIz0MQ8-18" style="edgeStyle=orthogonalEdgeStyle;curved=1;rounded=0;orthogonalLoop=1;jettySize=auto;html=1;dashed=1;endArrow=classicThin;endFill=1;fontSize=120;fontColor=#E6E6E6;dashPattern=1 1;exitX=0.5;exitY=0;exitDx=0;exitDy=0;" parent="GyZmnRRTT0jB5SIz0MQ8-1" source="GyZmnRRTT0jB5SIz0MQ8-19" edge="1">
          <mxGeometry relative="1" as="geometry">
            <mxPoint x="310" y="230" as="targetPoint" />
            <Array as="points">
              <mxPoint x="395" y="280" />
              <mxPoint x="310" y="280" />
            </Array>
          </mxGeometry>
        </mxCell>
        <mxCell id="GyZmnRRTT0jB5SIz0MQ8-19" value="&lt;font style=&quot;font-size: 11px&quot;&gt;&lt;i style=&quot;font-size: 11px;&quot;&gt;Collection of 0 or 1 employee records&lt;/i&gt;&lt;/font&gt;" style="ellipse;whiteSpace=wrap;html=1;labelBackgroundColor=none;align=center;dashed=1;dashPattern=1 1;fontSize=11;" parent="GyZmnRRTT0jB5SIz0MQ8-1" vertex="1">
          <mxGeometry x="340" y="400" width="110" height="50" as="geometry" />
        </mxCell>
        <mxCell id="GyZmnRRTT0jB5SIz0MQ8-21" value="?" style="text;html=1;align=center;verticalAlign=middle;resizable=0;points=[];autosize=1;fontSize=120;fontStyle=1;fontColor=#E6E6E6;" parent="GyZmnRRTT0jB5SIz0MQ8-1" vertex="1">
          <mxGeometry x="550" y="165" width="90" height="150" as="geometry" />
        </mxCell>
        <mxCell id="2XrNN-ixfZdT0uuukybn-0" value="Even so, the input and the output share a common component,&lt;br&gt;which suggests there should be a way to compose these transformations." style="text;html=1;align=left;verticalAlign=middle;resizable=0;points=[];autosize=1;fontSize=12;" parent="GyZmnRRTT0jB5SIz0MQ8-1" vertex="1">
          <mxGeometry x="520" y="360" width="400" height="30" as="geometry" />
        </mxCell>
      </root>
    </mxGraphModel>
  </diagram>
  <diagram name="Idea: Unbundle the Wire" id="8Y9aSxX2kfwAA1XgkNVI">
    <mxGraphModel dx="810" dy="449" grid="1" gridSize="10" guides="1" tooltips="1" connect="1" arrows="1" fold="1" page="1" pageScale="1" pageWidth="980" pageHeight="690" math="1" shadow="0">
      <root>
        <mxCell id="4uBGYQSD2Z2aE9t1TOH3-0" />
        <mxCell id="4uBGYQSD2Z2aE9t1TOH3-1" parent="4uBGYQSD2Z2aE9t1TOH3-0" />
        <mxCell id="4uBGYQSD2Z2aE9t1TOH3-2" value="&lt;h1&gt;Idea: Unbundle the Wire&lt;/h1&gt;" style="text;html=1;align=center;verticalAlign=middle;resizable=0;points=[];autosize=1;" parent="4uBGYQSD2Z2aE9t1TOH3-1" vertex="1">
          <mxGeometry x="40" y="30" width="290" height="50" as="geometry" />
        </mxCell>
        <mxCell id="4uBGYQSD2Z2aE9t1TOH3-3" style="edgeStyle=orthogonalEdgeStyle;rounded=0;orthogonalLoop=1;jettySize=auto;html=1;curved=1;" parent="4uBGYQSD2Z2aE9t1TOH3-1" source="4uBGYQSD2Z2aE9t1TOH3-7" edge="1">
          <mxGeometry relative="1" as="geometry">
            <mxPoint x="80" y="280" as="targetPoint" />
          </mxGeometry>
        </mxCell>
        <mxCell id="4uBGYQSD2Z2aE9t1TOH3-4" value="$$\scriptsize\mathrm{Block}_{0:N}\{\mathsf{Emp}\}$$" style="edgeLabel;html=1;align=left;verticalAlign=middle;resizable=0;points=[];labelBackgroundColor=none;" parent="4uBGYQSD2Z2aE9t1TOH3-3" vertex="1" connectable="0">
          <mxGeometry x="-0.2361" relative="1" as="geometry">
            <mxPoint y="4.72" as="offset" />
          </mxGeometry>
        </mxCell>
        <mxCell id="4uBGYQSD2Z2aE9t1TOH3-5" style="edgeStyle=orthogonalEdgeStyle;curved=1;rounded=0;orthogonalLoop=1;jettySize=auto;html=1;entryX=0.5;entryY=0;entryDx=0;entryDy=0;" parent="4uBGYQSD2Z2aE9t1TOH3-1" target="4uBGYQSD2Z2aE9t1TOH3-7" edge="1">
          <mxGeometry relative="1" as="geometry">
            <mxPoint x="79.94117647058829" y="160" as="targetPoint" />
            <mxPoint x="80" y="160" as="sourcePoint" />
          </mxGeometry>
        </mxCell>
        <mxCell id="4uBGYQSD2Z2aE9t1TOH3-6" value="$$\scriptsize\mathsf{Dept}$$" style="edgeLabel;html=1;align=left;verticalAlign=middle;resizable=0;points=[];labelBackgroundColor=none;" parent="4uBGYQSD2Z2aE9t1TOH3-5" vertex="1" connectable="0">
          <mxGeometry x="-0.3194" y="-1" relative="1" as="geometry">
            <mxPoint x="1" y="6.39" as="offset" />
          </mxGeometry>
        </mxCell>
        <mxCell id="4uBGYQSD2Z2aE9t1TOH3-7" value="$$\small\mathsf{employee}$$" style="rounded=1;whiteSpace=wrap;html=1;labelBackgroundColor=none;fillColor=#f5f5f5;strokeColor=#666666;fontColor=#333333;" parent="4uBGYQSD2Z2aE9t1TOH3-1" vertex="1">
          <mxGeometry x="40" y="200" width="80" height="40" as="geometry" />
        </mxCell>
        <mxCell id="4uBGYQSD2Z2aE9t1TOH3-8" style="edgeStyle=orthogonalEdgeStyle;rounded=0;orthogonalLoop=1;jettySize=auto;html=1;curved=1;" parent="4uBGYQSD2Z2aE9t1TOH3-1" source="4uBGYQSD2Z2aE9t1TOH3-12" edge="1">
          <mxGeometry relative="1" as="geometry">
            <mxPoint x="80" y="420" as="targetPoint" />
          </mxGeometry>
        </mxCell>
        <mxCell id="4uBGYQSD2Z2aE9t1TOH3-9" value="$$\scriptsize\mathrm{Int}$$" style="edgeLabel;html=1;align=left;verticalAlign=middle;resizable=0;points=[];labelBackgroundColor=none;" parent="4uBGYQSD2Z2aE9t1TOH3-8" vertex="1" connectable="0">
          <mxGeometry x="-0.2361" relative="1" as="geometry">
            <mxPoint y="4.72" as="offset" />
          </mxGeometry>
        </mxCell>
        <mxCell id="4uBGYQSD2Z2aE9t1TOH3-10" style="edgeStyle=orthogonalEdgeStyle;curved=1;rounded=0;orthogonalLoop=1;jettySize=auto;html=1;entryX=0.5;entryY=0;entryDx=0;entryDy=0;" parent="4uBGYQSD2Z2aE9t1TOH3-1" target="4uBGYQSD2Z2aE9t1TOH3-12" edge="1">
          <mxGeometry relative="1" as="geometry">
            <mxPoint x="79.94117647058829" y="300" as="targetPoint" />
            <mxPoint x="80" y="300" as="sourcePoint" />
          </mxGeometry>
        </mxCell>
        <mxCell id="4uBGYQSD2Z2aE9t1TOH3-11" value="$$\scriptsize\mathsf{Emp}$$" style="edgeLabel;html=1;align=left;verticalAlign=middle;resizable=0;points=[];labelBackgroundColor=none;" parent="4uBGYQSD2Z2aE9t1TOH3-10" vertex="1" connectable="0">
          <mxGeometry x="-0.3194" y="-1" relative="1" as="geometry">
            <mxPoint x="1" y="6.39" as="offset" />
          </mxGeometry>
        </mxCell>
        <mxCell id="4uBGYQSD2Z2aE9t1TOH3-12" value="$$\small\mathsf{salary}$$" style="rounded=1;whiteSpace=wrap;html=1;labelBackgroundColor=none;fillColor=#f5f5f5;strokeColor=#666666;fontColor=#333333;" parent="4uBGYQSD2Z2aE9t1TOH3-1" vertex="1">
          <mxGeometry x="40" y="340" width="80" height="40" as="geometry" />
        </mxCell>
        <mxCell id="4uBGYQSD2Z2aE9t1TOH3-13" value="" style="html=1;shadow=0;dashed=0;align=center;verticalAlign=middle;shape=mxgraph.arrows2.arrow;dy=0.6;dx=40;notch=0;labelBackgroundColor=none;strokeColor=none;fillColor=#E6E6E6;" parent="4uBGYQSD2Z2aE9t1TOH3-1" vertex="1">
          <mxGeometry x="170" y="170" width="100" height="100" as="geometry" />
        </mxCell>
        <mxCell id="4uBGYQSD2Z2aE9t1TOH3-22" value="Unbundle the composite wire." style="text;html=1;align=center;verticalAlign=middle;resizable=0;points=[];autosize=1;fontSize=12;fontColor=#000000;" parent="4uBGYQSD2Z2aE9t1TOH3-1" vertex="1">
          <mxGeometry x="135" y="120" width="170" height="20" as="geometry" />
        </mxCell>
        <mxCell id="4uBGYQSD2Z2aE9t1TOH3-23" style="edgeStyle=orthogonalEdgeStyle;rounded=0;orthogonalLoop=1;jettySize=auto;html=1;curved=1;" parent="4uBGYQSD2Z2aE9t1TOH3-1" source="4uBGYQSD2Z2aE9t1TOH3-27" edge="1">
          <mxGeometry relative="1" as="geometry">
            <mxPoint x="360" y="360" as="targetPoint" />
          </mxGeometry>
        </mxCell>
        <mxCell id="4uBGYQSD2Z2aE9t1TOH3-24" value="$$\scriptsize\mathrm{Block}_{0:N}\{\mathsf{Emp}\}$$" style="edgeLabel;html=1;align=left;verticalAlign=middle;resizable=0;points=[];labelBackgroundColor=none;" parent="4uBGYQSD2Z2aE9t1TOH3-23" vertex="1" connectable="0">
          <mxGeometry x="-0.2361" relative="1" as="geometry">
            <mxPoint y="-25.71" as="offset" />
          </mxGeometry>
        </mxCell>
        <mxCell id="GISw89fsJAH99-qAJy9_-0" value="$$\scriptsize\mathrm{Block}_{0:N}$$" style="edgeLabel;html=1;align=left;verticalAlign=middle;resizable=0;points=[];fontSize=12;fontColor=#000000;labelBackgroundColor=none;" parent="4uBGYQSD2Z2aE9t1TOH3-23" vertex="1" connectable="0">
          <mxGeometry x="0.6417" relative="1" as="geometry">
            <mxPoint as="offset" />
          </mxGeometry>
        </mxCell>
        <mxCell id="4uBGYQSD2Z2aE9t1TOH3-25" style="edgeStyle=orthogonalEdgeStyle;curved=1;rounded=0;orthogonalLoop=1;jettySize=auto;html=1;entryX=0.5;entryY=0;entryDx=0;entryDy=0;" parent="4uBGYQSD2Z2aE9t1TOH3-1" target="4uBGYQSD2Z2aE9t1TOH3-27" edge="1">
          <mxGeometry relative="1" as="geometry">
            <mxPoint x="359.9411764705883" y="160" as="targetPoint" />
            <mxPoint x="360" y="160" as="sourcePoint" />
          </mxGeometry>
        </mxCell>
        <mxCell id="4uBGYQSD2Z2aE9t1TOH3-26" value="$$\scriptsize\mathsf{Dept}$$" style="edgeLabel;html=1;align=left;verticalAlign=middle;resizable=0;points=[];labelBackgroundColor=none;" parent="4uBGYQSD2Z2aE9t1TOH3-25" vertex="1" connectable="0">
          <mxGeometry x="-0.3194" y="-1" relative="1" as="geometry">
            <mxPoint x="1" y="6.39" as="offset" />
          </mxGeometry>
        </mxCell>
        <mxCell id="4uBGYQSD2Z2aE9t1TOH3-28" style="edgeStyle=orthogonalEdgeStyle;curved=1;rounded=0;orthogonalLoop=1;jettySize=auto;html=1;endArrow=classic;endFill=1;strokeColor=#000000;fontSize=12;fontColor=#000000;" parent="4uBGYQSD2Z2aE9t1TOH3-1" edge="1">
          <mxGeometry relative="1" as="geometry">
            <mxPoint x="440" y="360" as="targetPoint" />
            <mxPoint x="360" y="280" as="sourcePoint" />
            <Array as="points">
              <mxPoint x="360" y="300" />
              <mxPoint x="440" y="300" />
            </Array>
          </mxGeometry>
        </mxCell>
        <mxCell id="GISw89fsJAH99-qAJy9_-1" value="$$\scriptsize\mathsf{Emp}$$" style="edgeLabel;html=1;align=left;verticalAlign=middle;resizable=0;points=[];fontSize=12;fontColor=#000000;labelBackgroundColor=none;" parent="4uBGYQSD2Z2aE9t1TOH3-28" vertex="1" connectable="0">
          <mxGeometry x="0.7313" relative="1" as="geometry">
            <mxPoint as="offset" />
          </mxGeometry>
        </mxCell>
        <mxCell id="4uBGYQSD2Z2aE9t1TOH3-27" value="$$\small\mathsf{employee}$$" style="rounded=1;whiteSpace=wrap;html=1;labelBackgroundColor=none;fillColor=#f5f5f5;strokeColor=#666666;fontColor=#333333;" parent="4uBGYQSD2Z2aE9t1TOH3-1" vertex="1">
          <mxGeometry x="320" y="200" width="80" height="40" as="geometry" />
        </mxCell>
        <mxCell id="RkDF5MfoZQ1lvstxujbb-1" style="edgeStyle=orthogonalEdgeStyle;curved=1;rounded=0;orthogonalLoop=1;jettySize=auto;html=1;endArrow=classicThin;endFill=1;strokeColor=#000000;fontSize=12;fontColor=#000000;dashed=1;dashPattern=1 1;exitX=0.5;exitY=0;exitDx=0;exitDy=0;" parent="4uBGYQSD2Z2aE9t1TOH3-1" source="GISw89fsJAH99-qAJy9_-2" edge="1">
          <mxGeometry relative="1" as="geometry">
            <mxPoint x="350" y="320" as="targetPoint" />
            <Array as="points">
              <mxPoint x="260" y="320" />
            </Array>
          </mxGeometry>
        </mxCell>
        <mxCell id="GISw89fsJAH99-qAJy9_-2" value="&lt;div&gt;&quot;Functor wire&quot;&lt;/div&gt;&lt;div&gt;Signals the number of output elements&lt;br&gt;&lt;/div&gt;" style="ellipse;whiteSpace=wrap;html=1;labelBackgroundColor=none;align=center;dashed=1;dashPattern=1 1;fontSize=11;fontStyle=2" parent="4uBGYQSD2Z2aE9t1TOH3-1" vertex="1">
          <mxGeometry x="200" y="400" width="120" height="60" as="geometry" />
        </mxCell>
        <mxCell id="RkDF5MfoZQ1lvstxujbb-2" style="edgeStyle=orthogonalEdgeStyle;curved=1;rounded=0;orthogonalLoop=1;jettySize=auto;html=1;exitX=0.5;exitY=0;exitDx=0;exitDy=0;dashed=1;dashPattern=1 1;endArrow=classicThin;endFill=1;strokeColor=#000000;fontSize=12;fontColor=#000000;" parent="4uBGYQSD2Z2aE9t1TOH3-1" source="RkDF5MfoZQ1lvstxujbb-0" edge="1">
          <mxGeometry relative="1" as="geometry">
            <mxPoint x="450" y="320" as="targetPoint" />
            <Array as="points">
              <mxPoint x="505" y="320" />
            </Array>
          </mxGeometry>
        </mxCell>
        <mxCell id="RkDF5MfoZQ1lvstxujbb-0" value="&lt;div&gt;&quot;Object wire&quot;&lt;/div&gt;&lt;div&gt;Transmits the output elements&lt;br&gt;&lt;/div&gt;" style="ellipse;whiteSpace=wrap;html=1;labelBackgroundColor=none;align=center;dashed=1;dashPattern=1 1;fontSize=11;fontStyle=2" parent="4uBGYQSD2Z2aE9t1TOH3-1" vertex="1">
          <mxGeometry x="450" y="400" width="110" height="50" as="geometry" />
        </mxCell>
        <mxCell id="RkDF5MfoZQ1lvstxujbb-3" value="" style="html=1;shadow=0;dashed=0;align=center;verticalAlign=middle;shape=mxgraph.arrows2.arrow;dy=0.6;dx=40;notch=0;labelBackgroundColor=none;strokeColor=none;fillColor=#E6E6E6;" parent="4uBGYQSD2Z2aE9t1TOH3-1" vertex="1">
          <mxGeometry x="530" y="170" width="100" height="100" as="geometry" />
        </mxCell>
        <mxCell id="RkDF5MfoZQ1lvstxujbb-4" value="Compose using the object wire." style="text;html=1;align=center;verticalAlign=middle;resizable=0;points=[];autosize=1;fontSize=12;fontColor=#000000;" parent="4uBGYQSD2Z2aE9t1TOH3-1" vertex="1">
          <mxGeometry x="490" y="120" width="180" height="20" as="geometry" />
        </mxCell>
        <mxCell id="RkDF5MfoZQ1lvstxujbb-5" style="edgeStyle=orthogonalEdgeStyle;rounded=0;orthogonalLoop=1;jettySize=auto;html=1;curved=1;" parent="4uBGYQSD2Z2aE9t1TOH3-1" source="RkDF5MfoZQ1lvstxujbb-12" edge="1">
          <mxGeometry relative="1" as="geometry">
            <mxPoint x="720" y="440" as="targetPoint" />
          </mxGeometry>
        </mxCell>
        <mxCell id="RkDF5MfoZQ1lvstxujbb-6" value="$$\scriptsize\mathrm{Block}_{0:N}\{\mathsf{Emp}\}$$" style="edgeLabel;html=1;align=left;verticalAlign=middle;resizable=0;points=[];labelBackgroundColor=none;" parent="RkDF5MfoZQ1lvstxujbb-5" vertex="1" connectable="0">
          <mxGeometry x="-0.2361" relative="1" as="geometry">
            <mxPoint y="-56.19" as="offset" />
          </mxGeometry>
        </mxCell>
        <mxCell id="RkDF5MfoZQ1lvstxujbb-7" value="$$\scriptsize\mathrm{Block}_{0:N}$$" style="edgeLabel;html=1;align=left;verticalAlign=middle;resizable=0;points=[];fontSize=12;fontColor=#000000;labelBackgroundColor=none;" parent="RkDF5MfoZQ1lvstxujbb-5" vertex="1" connectable="0">
          <mxGeometry x="0.6417" relative="1" as="geometry">
            <mxPoint y="15.86" as="offset" />
          </mxGeometry>
        </mxCell>
        <mxCell id="RkDF5MfoZQ1lvstxujbb-8" style="edgeStyle=orthogonalEdgeStyle;curved=1;rounded=0;orthogonalLoop=1;jettySize=auto;html=1;entryX=0.5;entryY=0;entryDx=0;entryDy=0;" parent="4uBGYQSD2Z2aE9t1TOH3-1" target="RkDF5MfoZQ1lvstxujbb-12" edge="1">
          <mxGeometry relative="1" as="geometry">
            <mxPoint x="719.9411764705883" y="160" as="targetPoint" />
            <mxPoint x="720" y="160" as="sourcePoint" />
          </mxGeometry>
        </mxCell>
        <mxCell id="RkDF5MfoZQ1lvstxujbb-9" value="$$\scriptsize\mathsf{Dept}$$" style="edgeLabel;html=1;align=left;verticalAlign=middle;resizable=0;points=[];labelBackgroundColor=none;" parent="RkDF5MfoZQ1lvstxujbb-8" vertex="1" connectable="0">
          <mxGeometry x="-0.3194" y="-1" relative="1" as="geometry">
            <mxPoint x="1" y="6.39" as="offset" />
          </mxGeometry>
        </mxCell>
        <mxCell id="RkDF5MfoZQ1lvstxujbb-10" style="edgeStyle=orthogonalEdgeStyle;curved=1;rounded=0;orthogonalLoop=1;jettySize=auto;html=1;endArrow=classic;endFill=1;strokeColor=#000000;fontSize=12;fontColor=#000000;entryX=0.5;entryY=0;entryDx=0;entryDy=0;" parent="4uBGYQSD2Z2aE9t1TOH3-1" target="RkDF5MfoZQ1lvstxujbb-17" edge="1">
          <mxGeometry relative="1" as="geometry">
            <mxPoint x="800" y="360" as="targetPoint" />
            <mxPoint x="720" y="280" as="sourcePoint" />
            <Array as="points">
              <mxPoint x="720" y="300" />
              <mxPoint x="800" y="300" />
            </Array>
          </mxGeometry>
        </mxCell>
        <mxCell id="RkDF5MfoZQ1lvstxujbb-11" value="$$\scriptsize\mathsf{Emp}$$" style="edgeLabel;html=1;align=left;verticalAlign=middle;resizable=0;points=[];fontSize=12;fontColor=#000000;labelBackgroundColor=none;" parent="RkDF5MfoZQ1lvstxujbb-10" vertex="1" connectable="0">
          <mxGeometry x="0.7313" relative="1" as="geometry">
            <mxPoint as="offset" />
          </mxGeometry>
        </mxCell>
        <mxCell id="RkDF5MfoZQ1lvstxujbb-12" value="$$\small\mathsf{employee}$$" style="rounded=1;whiteSpace=wrap;html=1;labelBackgroundColor=none;fillColor=#f5f5f5;strokeColor=#666666;fontColor=#333333;" parent="4uBGYQSD2Z2aE9t1TOH3-1" vertex="1">
          <mxGeometry x="680" y="200" width="80" height="40" as="geometry" />
        </mxCell>
        <mxCell id="RkDF5MfoZQ1lvstxujbb-13" style="edgeStyle=orthogonalEdgeStyle;rounded=0;orthogonalLoop=1;jettySize=auto;html=1;curved=1;" parent="4uBGYQSD2Z2aE9t1TOH3-1" source="RkDF5MfoZQ1lvstxujbb-17" edge="1">
          <mxGeometry relative="1" as="geometry">
            <mxPoint x="800" y="440" as="targetPoint" />
          </mxGeometry>
        </mxCell>
        <mxCell id="RkDF5MfoZQ1lvstxujbb-14" value="$$\scriptsize\mathrm{Int}$$" style="edgeLabel;html=1;align=left;verticalAlign=middle;resizable=0;points=[];labelBackgroundColor=none;" parent="RkDF5MfoZQ1lvstxujbb-13" vertex="1" connectable="0">
          <mxGeometry x="-0.2361" relative="1" as="geometry">
            <mxPoint y="4.72" as="offset" />
          </mxGeometry>
        </mxCell>
        <mxCell id="RkDF5MfoZQ1lvstxujbb-17" value="$$\small\mathsf{salary}$$" style="rounded=1;whiteSpace=wrap;html=1;labelBackgroundColor=none;fillColor=#f5f5f5;strokeColor=#666666;fontColor=#333333;" parent="4uBGYQSD2Z2aE9t1TOH3-1" vertex="1">
          <mxGeometry x="760" y="360" width="80" height="40" as="geometry" />
        </mxCell>
        <mxCell id="KN2SThZFnofbkkuZCjtL-0" value="Attaching a transformation to the object wire&lt;br&gt;indicates that the transformation is applied&lt;br&gt;to all element of the collection." style="text;html=1;align=left;verticalAlign=middle;resizable=0;points=[];autosize=1;fontSize=12;fontColor=#000000;" parent="4uBGYQSD2Z2aE9t1TOH3-1" vertex="1">
          <mxGeometry x="590" y="510" width="250" height="50" as="geometry" />
        </mxCell>
      </root>
    </mxGraphModel>
  </diagram>
  <diagram name="Block Type" id="INV7ZVBq1eeW5j6LsesT">
    <mxGraphModel dx="810" dy="449" grid="1" gridSize="10" guides="1" tooltips="1" connect="1" arrows="1" fold="1" page="1" pageScale="1" pageWidth="980" pageHeight="690" math="1" shadow="0">
      <root>
        <mxCell id="mCfhNEuOxvisFOh8S7eB-0" />
        <mxCell id="mCfhNEuOxvisFOh8S7eB-1" parent="mCfhNEuOxvisFOh8S7eB-0" />
        <mxCell id="mCfhNEuOxvisFOh8S7eB-2" value="&lt;h1&gt;Block Type&lt;/h1&gt;" style="text;html=1;align=center;verticalAlign=middle;resizable=0;points=[];autosize=1;" parent="mCfhNEuOxvisFOh8S7eB-1" vertex="1">
          <mxGeometry x="40" y="30" width="140" height="50" as="geometry" />
        </mxCell>
        <mxCell id="mCfhNEuOxvisFOh8S7eB-41" value="A block is a collection&lt;br&gt;of homogeneous elements." style="text;html=1;align=left;verticalAlign=middle;resizable=0;points=[];autosize=1;fontSize=12;fontColor=#000000;" parent="mCfhNEuOxvisFOh8S7eB-1" vertex="1">
          <mxGeometry x="40" y="120" width="160" height="30" as="geometry" />
        </mxCell>
        <mxCell id="mCfhNEuOxvisFOh8S7eB-43" style="edgeStyle=orthogonalEdgeStyle;curved=1;rounded=0;orthogonalLoop=1;jettySize=auto;html=1;endArrow=classic;endFill=1;strokeColor=#000000;fontSize=12;fontColor=#000000;" parent="mCfhNEuOxvisFOh8S7eB-1" edge="1">
          <mxGeometry relative="1" as="geometry">
            <mxPoint x="80" y="360" as="targetPoint" />
            <mxPoint x="80" y="200" as="sourcePoint" />
          </mxGeometry>
        </mxCell>
        <mxCell id="mCfhNEuOxvisFOh8S7eB-44" value="$$\scriptsize\mathrm{Block}_c\{A\}$$" style="edgeLabel;html=1;align=left;verticalAlign=middle;resizable=0;points=[];fontSize=12;fontColor=#000000;labelBackgroundColor=none;" parent="mCfhNEuOxvisFOh8S7eB-43" vertex="1" connectable="0">
          <mxGeometry x="0.1063" y="2" relative="1" as="geometry">
            <mxPoint y="-8.33" as="offset" />
          </mxGeometry>
        </mxCell>
        <mxCell id="KaLCdUW8nZaZC06m0KB7-0" style="edgeStyle=orthogonalEdgeStyle;curved=1;rounded=0;orthogonalLoop=1;jettySize=auto;html=1;exitX=0.5;exitY=0;exitDx=0;exitDy=0;endArrow=classicThin;endFill=1;strokeColor=#000000;fontSize=12;fontColor=#000000;dashed=1;dashPattern=1 1;" parent="mCfhNEuOxvisFOh8S7eB-1" source="7Y1CwE5xi_gkfeKbpRcT-0" edge="1">
          <mxGeometry relative="1" as="geometry">
            <mxPoint x="110" y="290" as="targetPoint" />
          </mxGeometry>
        </mxCell>
        <mxCell id="7Y1CwE5xi_gkfeKbpRcT-0" value="Cardinality of the block" style="ellipse;whiteSpace=wrap;html=1;labelBackgroundColor=none;align=center;dashed=1;dashPattern=1 1;fontSize=11;fontStyle=2" parent="mCfhNEuOxvisFOh8S7eB-1" vertex="1">
          <mxGeometry x="100" y="400" width="120" height="50" as="geometry" />
        </mxCell>
        <mxCell id="KaLCdUW8nZaZC06m0KB7-1" style="edgeStyle=orthogonalEdgeStyle;curved=1;rounded=0;orthogonalLoop=1;jettySize=auto;html=1;exitX=0;exitY=0.5;exitDx=0;exitDy=0;dashed=1;dashPattern=1 1;endArrow=classicThin;endFill=1;strokeColor=#000000;fontSize=12;fontColor=#000000;" parent="mCfhNEuOxvisFOh8S7eB-1" source="7Y1CwE5xi_gkfeKbpRcT-1" edge="1">
          <mxGeometry relative="1" as="geometry">
            <mxPoint x="120" y="270" as="targetPoint" />
          </mxGeometry>
        </mxCell>
        <mxCell id="7Y1CwE5xi_gkfeKbpRcT-1" value="Type of elements" style="ellipse;whiteSpace=wrap;html=1;labelBackgroundColor=none;align=center;dashed=1;dashPattern=1 1;fontSize=11;fontStyle=2" parent="mCfhNEuOxvisFOh8S7eB-1" vertex="1">
          <mxGeometry x="160" y="200" width="110" height="40" as="geometry" />
        </mxCell>
        <mxCell id="GD9LZaGgp6Itl2vWbgJQ-0" value="Cardinality is a constraint&lt;br&gt;on the number of elements in a block." style="text;html=1;align=left;verticalAlign=middle;resizable=0;points=[];autosize=1;fontSize=12;fontColor=#000000;" parent="mCfhNEuOxvisFOh8S7eB-1" vertex="1">
          <mxGeometry x="450" y="120" width="220" height="30" as="geometry" />
        </mxCell>
        <mxCell id="EJZFGnLVfEOFlE0DPLEv-0" value="$$0:N$$" style="text;html=1;align=center;verticalAlign=middle;resizable=0;points=[];autosize=1;fontSize=12;fontColor=#000000;" parent="mCfhNEuOxvisFOh8S7eB-1" vertex="1">
          <mxGeometry x="510" y="240" width="60" height="20" as="geometry" />
        </mxCell>
        <mxCell id="IZWJN_fYdIcA7_Js_xpi-0" style="edgeStyle=none;rounded=0;orthogonalLoop=1;jettySize=auto;html=1;endArrow=classicThin;endFill=1;strokeColor=#000000;fontSize=12;fontColor=#000000;exitX=0.478;exitY=-0.033;exitDx=0;exitDy=0;exitPerimeter=0;entryX=0.694;entryY=1.033;entryDx=0;entryDy=0;entryPerimeter=0;" parent="mCfhNEuOxvisFOh8S7eB-1" source="EJZFGnLVfEOFlE0DPLEv-1" target="EJZFGnLVfEOFlE0DPLEv-0" edge="1">
          <mxGeometry relative="1" as="geometry" />
        </mxCell>
        <mxCell id="EJZFGnLVfEOFlE0DPLEv-1" value="$$1:N$$" style="text;html=1;align=center;verticalAlign=middle;resizable=0;points=[];autosize=1;fontSize=12;fontColor=#000000;" parent="mCfhNEuOxvisFOh8S7eB-1" vertex="1">
          <mxGeometry x="590" y="320" width="60" height="20" as="geometry" />
        </mxCell>
        <mxCell id="JAZzWXLakq028e-S1HwD-0" style="rounded=0;orthogonalLoop=1;jettySize=auto;html=1;endArrow=classicThin;endFill=1;strokeColor=#000000;fontSize=12;fontColor=#000000;exitX=0.495;exitY=-0.033;exitDx=0;exitDy=0;exitPerimeter=0;entryX=0.356;entryY=1.1;entryDx=0;entryDy=0;entryPerimeter=0;" parent="mCfhNEuOxvisFOh8S7eB-1" source="8yDXMvJC0ONDMdX252Yq-0" target="EJZFGnLVfEOFlE0DPLEv-0" edge="1">
          <mxGeometry relative="1" as="geometry">
            <mxPoint x="530" y="262" as="targetPoint" />
          </mxGeometry>
        </mxCell>
        <mxCell id="8yDXMvJC0ONDMdX252Yq-0" value="$$0:1$$" style="text;html=1;align=center;verticalAlign=middle;resizable=0;points=[];autosize=1;fontSize=12;fontColor=#000000;" parent="mCfhNEuOxvisFOh8S7eB-1" vertex="1">
          <mxGeometry x="430" y="320" width="60" height="20" as="geometry" />
        </mxCell>
        <mxCell id="IZWJN_fYdIcA7_Js_xpi-1" style="edgeStyle=none;rounded=0;orthogonalLoop=1;jettySize=auto;html=1;entryX=0.5;entryY=1.067;entryDx=0;entryDy=0;entryPerimeter=0;endArrow=classicThin;endFill=1;strokeColor=#000000;fontSize=12;fontColor=#000000;" parent="mCfhNEuOxvisFOh8S7eB-1" source="8yDXMvJC0ONDMdX252Yq-1" target="8yDXMvJC0ONDMdX252Yq-0" edge="1">
          <mxGeometry relative="1" as="geometry" />
        </mxCell>
        <mxCell id="IZWJN_fYdIcA7_Js_xpi-2" style="edgeStyle=none;rounded=0;orthogonalLoop=1;jettySize=auto;html=1;entryX=0.511;entryY=1.017;entryDx=0;entryDy=0;entryPerimeter=0;endArrow=classicThin;endFill=1;strokeColor=#000000;fontSize=12;fontColor=#000000;" parent="mCfhNEuOxvisFOh8S7eB-1" source="8yDXMvJC0ONDMdX252Yq-1" target="EJZFGnLVfEOFlE0DPLEv-1" edge="1">
          <mxGeometry relative="1" as="geometry" />
        </mxCell>
        <mxCell id="8yDXMvJC0ONDMdX252Yq-1" value="$$1:1$$" style="text;html=1;align=center;verticalAlign=middle;resizable=0;points=[];autosize=1;fontSize=12;fontColor=#000000;" parent="mCfhNEuOxvisFOh8S7eB-1" vertex="1">
          <mxGeometry x="510" y="400" width="60" height="20" as="geometry" />
        </mxCell>
        <mxCell id="8yDXMvJC0ONDMdX252Yq-2" value="Exactly 1" style="ellipse;whiteSpace=wrap;html=1;labelBackgroundColor=none;align=center;dashed=1;dashPattern=1 1;fontSize=11;fontStyle=2" parent="mCfhNEuOxvisFOh8S7eB-1" vertex="1">
          <mxGeometry x="500" y="430" width="80" height="20" as="geometry" />
        </mxCell>
        <mxCell id="IZWJN_fYdIcA7_Js_xpi-3" value="At least 1" style="ellipse;whiteSpace=wrap;html=1;labelBackgroundColor=none;align=center;dashed=1;dashPattern=1 1;fontSize=11;fontStyle=2" parent="mCfhNEuOxvisFOh8S7eB-1" vertex="1">
          <mxGeometry x="650" y="320" width="80" height="20" as="geometry" />
        </mxCell>
        <mxCell id="IZWJN_fYdIcA7_Js_xpi-4" value="At most 1" style="ellipse;whiteSpace=wrap;html=1;labelBackgroundColor=none;align=center;dashed=1;dashPattern=1 1;fontSize=11;fontStyle=2" parent="mCfhNEuOxvisFOh8S7eB-1" vertex="1">
          <mxGeometry x="350" y="320" width="80" height="20" as="geometry" />
        </mxCell>
        <mxCell id="IZWJN_fYdIcA7_Js_xpi-5" value="No constraints" style="ellipse;whiteSpace=wrap;html=1;labelBackgroundColor=none;align=center;dashed=1;dashPattern=1 1;fontSize=11;fontStyle=2" parent="mCfhNEuOxvisFOh8S7eB-1" vertex="1">
          <mxGeometry x="500" y="200" width="80" height="30" as="geometry" />
        </mxCell>
      </root>
    </mxGraphModel>
  </diagram>
  <diagram name="Unbundling" id="O8tePftPh2vCeNMFMBiB">
    <mxGraphModel dx="810" dy="449" grid="1" gridSize="10" guides="1" tooltips="1" connect="1" arrows="1" fold="1" page="1" pageScale="1" pageWidth="980" pageHeight="690" math="1" shadow="0">
      <root>
        <mxCell id="gKwWvOV5pszrIqJ9GEYA-0" />
        <mxCell id="gKwWvOV5pszrIqJ9GEYA-1" parent="gKwWvOV5pszrIqJ9GEYA-0" />
        <mxCell id="gKwWvOV5pszrIqJ9GEYA-2" value="&lt;h1&gt;Unbundling&lt;/h1&gt;" style="text;html=1;align=center;verticalAlign=middle;resizable=0;points=[];autosize=1;" parent="gKwWvOV5pszrIqJ9GEYA-1" vertex="1">
          <mxGeometry x="40" y="30" width="150" height="50" as="geometry" />
        </mxCell>
        <mxCell id="gKwWvOV5pszrIqJ9GEYA-4" style="edgeStyle=orthogonalEdgeStyle;curved=1;rounded=0;orthogonalLoop=1;jettySize=auto;html=1;endArrow=classic;endFill=1;strokeColor=#000000;fontSize=12;fontColor=#000000;" parent="gKwWvOV5pszrIqJ9GEYA-1" edge="1">
          <mxGeometry relative="1" as="geometry">
            <mxPoint x="80" y="360" as="targetPoint" />
            <mxPoint x="80" y="120" as="sourcePoint" />
          </mxGeometry>
        </mxCell>
        <mxCell id="gKwWvOV5pszrIqJ9GEYA-5" value="$$\scriptsize\mathrm{Block}_c\{A\}$$" style="edgeLabel;html=1;align=left;verticalAlign=middle;resizable=0;points=[];fontSize=12;fontColor=#000000;labelBackgroundColor=none;" parent="gKwWvOV5pszrIqJ9GEYA-4" vertex="1" connectable="0">
          <mxGeometry x="0.1063" y="2" relative="1" as="geometry">
            <mxPoint y="-12.57" as="offset" />
          </mxGeometry>
        </mxCell>
        <mxCell id="lnt-dPrsyDnPjFPIAh2K-1" value="" style="shape=doubleArrow;whiteSpace=wrap;html=1;strokeColor=none;fillColor=#E6E6E6;arrowWidth=0.43200000000000044;arrowSize=0.30399999999999977;" parent="gKwWvOV5pszrIqJ9GEYA-1" vertex="1">
          <mxGeometry x="170" y="190" width="100" height="100" as="geometry" />
        </mxCell>
        <mxCell id="lnt-dPrsyDnPjFPIAh2K-2" style="edgeStyle=orthogonalEdgeStyle;curved=1;rounded=0;orthogonalLoop=1;jettySize=auto;html=1;endArrow=classic;endFill=1;strokeColor=#000000;fontSize=12;fontColor=#000000;" parent="gKwWvOV5pszrIqJ9GEYA-1" edge="1">
          <mxGeometry relative="1" as="geometry">
            <mxPoint x="320" y="360" as="targetPoint" />
            <mxPoint x="320" y="120" as="sourcePoint" />
          </mxGeometry>
        </mxCell>
        <mxCell id="lnt-dPrsyDnPjFPIAh2K-3" value="$$\scriptsize\mathrm{Block}_c\{A\}$$" style="edgeLabel;html=1;align=left;verticalAlign=middle;resizable=0;points=[];fontSize=12;fontColor=#000000;labelBackgroundColor=none;" parent="lnt-dPrsyDnPjFPIAh2K-2" vertex="1" connectable="0">
          <mxGeometry x="0.1063" y="2" relative="1" as="geometry">
            <mxPoint y="-112.41" as="offset" />
          </mxGeometry>
        </mxCell>
        <mxCell id="xE3bMCYeetX7F-uhNPRb-0" value="$$\scriptsize\mathrm{Block}_c\{A\}$$" style="edgeLabel;html=1;align=left;verticalAlign=middle;resizable=0;points=[];labelBackgroundColor=none;" parent="lnt-dPrsyDnPjFPIAh2K-2" vertex="1" connectable="0">
          <mxGeometry x="0.7902" relative="1" as="geometry">
            <mxPoint y="5.199999999999999" as="offset" />
          </mxGeometry>
        </mxCell>
        <mxCell id="hgeZHr7t-Uyzb-fP1juw-0" value="$$\scriptsize\mathrm{Block}_c$$" style="edgeLabel;html=1;align=left;verticalAlign=middle;resizable=0;points=[];labelBackgroundColor=none;" parent="lnt-dPrsyDnPjFPIAh2K-2" vertex="1" connectable="0">
          <mxGeometry x="-0.0532" y="-1" relative="1" as="geometry">
            <mxPoint y="6.19" as="offset" />
          </mxGeometry>
        </mxCell>
        <mxCell id="xE3bMCYeetX7F-uhNPRb-1" style="edgeStyle=orthogonalEdgeStyle;curved=1;rounded=0;orthogonalLoop=1;jettySize=auto;html=1;endArrow=none;endFill=0;strokeColor=#000000;fontSize=12;fontColor=#000000;" parent="gKwWvOV5pszrIqJ9GEYA-1" edge="1">
          <mxGeometry relative="1" as="geometry">
            <mxPoint x="320" y="320" as="targetPoint" />
            <mxPoint x="320" y="160" as="sourcePoint" />
            <Array as="points">
              <mxPoint x="320" y="200" />
              <mxPoint x="400" y="200" />
              <mxPoint x="400" y="280" />
              <mxPoint x="320" y="280" />
            </Array>
          </mxGeometry>
        </mxCell>
        <mxCell id="LwfJ31BWT3Hmh_VM4IxJ-0" value="$$\small A$$" style="edgeLabel;html=1;align=left;verticalAlign=middle;resizable=0;points=[];labelBackgroundColor=none;" parent="xE3bMCYeetX7F-uhNPRb-1" vertex="1" connectable="0">
          <mxGeometry x="-0.0607" relative="1" as="geometry">
            <mxPoint y="9.52" as="offset" />
          </mxGeometry>
        </mxCell>
        <mxCell id="w5rt7VgUu7Pwoq8R_b5J-0" value="A wire of a block type can be unbundled&lt;br&gt;into a functor and an object components." style="text;html=1;align=left;verticalAlign=middle;resizable=0;points=[];autosize=1;" parent="gKwWvOV5pszrIqJ9GEYA-1" vertex="1">
          <mxGeometry x="440" y="160" width="230" height="30" as="geometry" />
        </mxCell>
        <mxCell id="c3VpReHOFfsWSpwlbmfG-2" style="edgeStyle=orthogonalEdgeStyle;curved=1;rounded=0;orthogonalLoop=1;jettySize=auto;html=1;endArrow=classicThin;endFill=1;strokeColor=#000000;fontSize=12;fontColor=#000000;dashed=1;dashPattern=1 1;exitX=0.5;exitY=0;exitDx=0;exitDy=0;" parent="gKwWvOV5pszrIqJ9GEYA-1" source="c3VpReHOFfsWSpwlbmfG-3" edge="1">
          <mxGeometry relative="1" as="geometry">
            <mxPoint x="310" y="260" as="targetPoint" />
            <Array as="points">
              <mxPoint x="270" y="260" />
            </Array>
          </mxGeometry>
        </mxCell>
        <mxCell id="c3VpReHOFfsWSpwlbmfG-3" value="&lt;div&gt;Functor wire&lt;/div&gt;" style="ellipse;whiteSpace=wrap;html=1;labelBackgroundColor=none;align=center;dashed=1;dashPattern=1 1;fontSize=11;fontStyle=2" parent="gKwWvOV5pszrIqJ9GEYA-1" vertex="1">
          <mxGeometry x="230" y="410" width="80" height="30" as="geometry" />
        </mxCell>
        <mxCell id="c3VpReHOFfsWSpwlbmfG-4" style="edgeStyle=orthogonalEdgeStyle;curved=1;rounded=0;orthogonalLoop=1;jettySize=auto;html=1;exitX=0.5;exitY=0;exitDx=0;exitDy=0;dashed=1;dashPattern=1 1;endArrow=classicThin;endFill=1;strokeColor=#000000;fontSize=12;fontColor=#000000;" parent="gKwWvOV5pszrIqJ9GEYA-1" source="c3VpReHOFfsWSpwlbmfG-5" edge="1">
          <mxGeometry relative="1" as="geometry">
            <mxPoint x="410" y="260" as="targetPoint" />
            <Array as="points">
              <mxPoint x="475" y="260" />
            </Array>
          </mxGeometry>
        </mxCell>
        <mxCell id="c3VpReHOFfsWSpwlbmfG-5" value="Object wire" style="ellipse;whiteSpace=wrap;html=1;labelBackgroundColor=none;align=center;dashed=1;dashPattern=1 1;fontSize=11;fontStyle=2" parent="gKwWvOV5pszrIqJ9GEYA-1" vertex="1">
          <mxGeometry x="440" y="340" width="70" height="40" as="geometry" />
        </mxCell>
      </root>
    </mxGraphModel>
  </diagram>
  <diagram name="Object Transformation" id="xD7FawA5Du1Xpbn6-OQF">
    <mxGraphModel dx="810" dy="449" grid="1" gridSize="10" guides="1" tooltips="1" connect="1" arrows="1" fold="1" page="1" pageScale="1" pageWidth="980" pageHeight="690" math="1" shadow="0">
      <root>
        <mxCell id="RalHTbSX1mvgCyAOYGW9-0" />
        <mxCell id="RalHTbSX1mvgCyAOYGW9-1" parent="RalHTbSX1mvgCyAOYGW9-0" />
        <mxCell id="RalHTbSX1mvgCyAOYGW9-2" value="&lt;h1&gt;Object Transformation&lt;/h1&gt;" style="text;html=1;align=center;verticalAlign=middle;resizable=0;points=[];autosize=1;" parent="RalHTbSX1mvgCyAOYGW9-1" vertex="1">
          <mxGeometry x="40" y="30" width="270" height="50" as="geometry" />
        </mxCell>
        <mxCell id="RalHTbSX1mvgCyAOYGW9-3" style="edgeStyle=orthogonalEdgeStyle;curved=1;rounded=0;orthogonalLoop=1;jettySize=auto;html=1;endArrow=classic;endFill=1;strokeColor=#000000;fontSize=12;fontColor=#000000;" parent="RalHTbSX1mvgCyAOYGW9-1" edge="1">
          <mxGeometry relative="1" as="geometry">
            <mxPoint x="79" y="220" as="targetPoint" />
            <mxPoint x="79" y="140" as="sourcePoint" />
          </mxGeometry>
        </mxCell>
        <mxCell id="RalHTbSX1mvgCyAOYGW9-4" value="$$\scriptsize\mathrm{Block}_c\{A\}$$" style="edgeLabel;html=1;align=left;verticalAlign=middle;resizable=0;points=[];fontSize=12;fontColor=#000000;labelBackgroundColor=none;" parent="RalHTbSX1mvgCyAOYGW9-3" vertex="1" connectable="0">
          <mxGeometry x="0.1063" y="2" relative="1" as="geometry">
            <mxPoint x="-1" y="-4.140000000000001" as="offset" />
          </mxGeometry>
        </mxCell>
        <mxCell id="RalHTbSX1mvgCyAOYGW9-6" style="edgeStyle=orthogonalEdgeStyle;curved=1;rounded=0;orthogonalLoop=1;jettySize=auto;html=1;endArrow=classic;endFill=1;strokeColor=#000000;fontSize=12;fontColor=#000000;" parent="RalHTbSX1mvgCyAOYGW9-1" edge="1">
          <mxGeometry relative="1" as="geometry">
            <mxPoint x="320" y="360" as="targetPoint" />
            <mxPoint x="320" y="120" as="sourcePoint" />
          </mxGeometry>
        </mxCell>
        <mxCell id="RalHTbSX1mvgCyAOYGW9-7" value="$$\scriptsize\mathrm{Block}_c\{A\}$$" style="edgeLabel;html=1;align=left;verticalAlign=middle;resizable=0;points=[];fontSize=12;fontColor=#000000;labelBackgroundColor=none;" parent="RalHTbSX1mvgCyAOYGW9-6" vertex="1" connectable="0">
          <mxGeometry x="0.1063" y="2" relative="1" as="geometry">
            <mxPoint y="-112.41" as="offset" />
          </mxGeometry>
        </mxCell>
        <mxCell id="RalHTbSX1mvgCyAOYGW9-8" value="$$\scriptsize\mathrm{Block}_c\{B\}$$" style="edgeLabel;html=1;align=left;verticalAlign=middle;resizable=0;points=[];labelBackgroundColor=none;" parent="RalHTbSX1mvgCyAOYGW9-6" vertex="1" connectable="0">
          <mxGeometry x="0.7902" relative="1" as="geometry">
            <mxPoint y="5.199999999999999" as="offset" />
          </mxGeometry>
        </mxCell>
        <mxCell id="RalHTbSX1mvgCyAOYGW9-9" value="$$\scriptsize\mathrm{Block}_c$$" style="edgeLabel;html=1;align=left;verticalAlign=middle;resizable=0;points=[];labelBackgroundColor=none;" parent="RalHTbSX1mvgCyAOYGW9-6" vertex="1" connectable="0">
          <mxGeometry x="-0.0532" y="-1" relative="1" as="geometry">
            <mxPoint y="6.19" as="offset" />
          </mxGeometry>
        </mxCell>
        <mxCell id="FE3aQ6msyJJkqQTLO2Vz-0" style="edgeStyle=orthogonalEdgeStyle;rounded=0;orthogonalLoop=1;jettySize=auto;html=1;curved=1;" parent="RalHTbSX1mvgCyAOYGW9-1" source="FE3aQ6msyJJkqQTLO2Vz-4" edge="1">
          <mxGeometry relative="1" as="geometry">
            <mxPoint x="80" y="380" as="targetPoint" />
          </mxGeometry>
        </mxCell>
        <mxCell id="FE3aQ6msyJJkqQTLO2Vz-1" value="$$\small B$$" style="edgeLabel;html=1;align=left;verticalAlign=middle;resizable=0;points=[];labelBackgroundColor=none;" parent="FE3aQ6msyJJkqQTLO2Vz-0" vertex="1" connectable="0">
          <mxGeometry x="-0.2361" relative="1" as="geometry">
            <mxPoint y="4.72" as="offset" />
          </mxGeometry>
        </mxCell>
        <mxCell id="FE3aQ6msyJJkqQTLO2Vz-2" style="edgeStyle=orthogonalEdgeStyle;curved=1;rounded=0;orthogonalLoop=1;jettySize=auto;html=1;entryX=0.5;entryY=0;entryDx=0;entryDy=0;" parent="RalHTbSX1mvgCyAOYGW9-1" target="FE3aQ6msyJJkqQTLO2Vz-4" edge="1">
          <mxGeometry relative="1" as="geometry">
            <mxPoint x="79.94117647058829" y="260" as="targetPoint" />
            <mxPoint x="80" y="260" as="sourcePoint" />
          </mxGeometry>
        </mxCell>
        <mxCell id="FE3aQ6msyJJkqQTLO2Vz-3" value="$$\small A$$" style="edgeLabel;html=1;align=left;verticalAlign=middle;resizable=0;points=[];labelBackgroundColor=none;" parent="FE3aQ6msyJJkqQTLO2Vz-2" vertex="1" connectable="0">
          <mxGeometry x="-0.3194" y="-1" relative="1" as="geometry">
            <mxPoint x="1" y="6.39" as="offset" />
          </mxGeometry>
        </mxCell>
        <mxCell id="FE3aQ6msyJJkqQTLO2Vz-4" value="$$f$$" style="rounded=1;whiteSpace=wrap;html=1;labelBackgroundColor=none;fillColor=#f5f5f5;strokeColor=#666666;fontColor=#333333;" parent="RalHTbSX1mvgCyAOYGW9-1" vertex="1">
          <mxGeometry x="40" y="300" width="80" height="40" as="geometry" />
        </mxCell>
        <mxCell id="o4VjZ06B2RdsradQQdhn-0" value="" style="html=1;shadow=0;dashed=0;align=center;verticalAlign=middle;shape=mxgraph.arrows2.arrow;dy=0.6;dx=40;notch=0;labelBackgroundColor=none;strokeColor=none;fillColor=#E6E6E6;" parent="RalHTbSX1mvgCyAOYGW9-1" vertex="1">
          <mxGeometry x="170" y="190" width="100" height="100" as="geometry" />
        </mxCell>
        <mxCell id="o4VjZ06B2RdsradQQdhn-3" style="edgeStyle=orthogonalEdgeStyle;rounded=0;orthogonalLoop=1;jettySize=auto;html=1;curved=1;endArrow=none;endFill=0;" parent="RalHTbSX1mvgCyAOYGW9-1" source="o4VjZ06B2RdsradQQdhn-7" edge="1">
          <mxGeometry relative="1" as="geometry">
            <mxPoint x="320" y="320" as="targetPoint" />
            <Array as="points">
              <mxPoint x="400" y="280" />
              <mxPoint x="320" y="280" />
            </Array>
          </mxGeometry>
        </mxCell>
        <mxCell id="o4VjZ06B2RdsradQQdhn-4" value="$$\small B$$" style="edgeLabel;html=1;align=left;verticalAlign=middle;resizable=0;points=[];labelBackgroundColor=none;" parent="o4VjZ06B2RdsradQQdhn-3" vertex="1" connectable="0">
          <mxGeometry x="-0.2361" relative="1" as="geometry">
            <mxPoint x="3.76" y="10" as="offset" />
          </mxGeometry>
        </mxCell>
        <mxCell id="o4VjZ06B2RdsradQQdhn-5" style="edgeStyle=orthogonalEdgeStyle;curved=1;rounded=0;orthogonalLoop=1;jettySize=auto;html=1;entryX=0.5;entryY=0;entryDx=0;entryDy=0;" parent="RalHTbSX1mvgCyAOYGW9-1" target="o4VjZ06B2RdsradQQdhn-7" edge="1">
          <mxGeometry relative="1" as="geometry">
            <mxPoint x="399.9411764705883" y="180" as="targetPoint" />
            <mxPoint x="320" y="160" as="sourcePoint" />
            <Array as="points">
              <mxPoint x="320" y="200" />
              <mxPoint x="400" y="200" />
            </Array>
          </mxGeometry>
        </mxCell>
        <mxCell id="o4VjZ06B2RdsradQQdhn-6" value="$$\small A$$" style="edgeLabel;html=1;align=left;verticalAlign=middle;resizable=0;points=[];labelBackgroundColor=none;" parent="o4VjZ06B2RdsradQQdhn-5" vertex="1" connectable="0">
          <mxGeometry x="-0.3194" y="-1" relative="1" as="geometry">
            <mxPoint x="42.38" y="-11" as="offset" />
          </mxGeometry>
        </mxCell>
        <mxCell id="o4VjZ06B2RdsradQQdhn-7" value="$$f$$" style="rounded=1;whiteSpace=wrap;html=1;labelBackgroundColor=none;fillColor=#f5f5f5;strokeColor=#666666;fontColor=#333333;" parent="RalHTbSX1mvgCyAOYGW9-1" vertex="1">
          <mxGeometry x="360" y="220" width="80" height="40" as="geometry" />
        </mxCell>
        <mxCell id="yoSX4sPKhqqgwDCV6Kby-0" value="$$\small\mathrm{with\_elements}(f)$$" style="text;html=1;align=center;verticalAlign=middle;resizable=0;points=[];autosize=1;" parent="RalHTbSX1mvgCyAOYGW9-1" vertex="1">
          <mxGeometry x="260" y="390" width="220" height="20" as="geometry" />
        </mxCell>
        <mxCell id="S9v5zSg8s3w48swJ0y6t-0" value="Any compatible transformation&lt;br&gt; can be applied to the object wire,&lt;br&gt;which indicates that the transformation&lt;br&gt; is applied to every element of the block." style="text;html=1;align=left;verticalAlign=middle;resizable=0;points=[];autosize=1;" parent="RalHTbSX1mvgCyAOYGW9-1" vertex="1">
          <mxGeometry x="460" y="120" width="230" height="60" as="geometry" />
        </mxCell>
      </root>
    </mxGraphModel>
  </diagram>
  <diagram name="Multiwired Transformations" id="xO4h-aQyYKCBXx8FI9gU">
    <mxGraphModel dx="810" dy="449" grid="1" gridSize="10" guides="1" tooltips="1" connect="1" arrows="1" fold="1" page="1" pageScale="1" pageWidth="980" pageHeight="690" math="1" shadow="0">
      <root>
        <mxCell id="yZ16qvx0rxNorMdgPu06-0" />
        <mxCell id="yZ16qvx0rxNorMdgPu06-1" parent="yZ16qvx0rxNorMdgPu06-0" />
        <mxCell id="yZ16qvx0rxNorMdgPu06-2" value="&lt;h1&gt;Multiwired Transformations&lt;/h1&gt;" style="text;html=1;align=center;verticalAlign=middle;resizable=0;points=[];autosize=1;" parent="yZ16qvx0rxNorMdgPu06-1" vertex="1">
          <mxGeometry x="40" y="30" width="330" height="50" as="geometry" />
        </mxCell>
        <mxCell id="yZ16qvx0rxNorMdgPu06-9" style="edgeStyle=orthogonalEdgeStyle;rounded=0;orthogonalLoop=1;jettySize=auto;html=1;curved=1;" parent="yZ16qvx0rxNorMdgPu06-1" source="yZ16qvx0rxNorMdgPu06-13" edge="1">
          <mxGeometry relative="1" as="geometry">
            <mxPoint x="80" y="300" as="targetPoint" />
          </mxGeometry>
        </mxCell>
        <mxCell id="yZ16qvx0rxNorMdgPu06-10" value="$$\scriptsize\mathrm{Block}_c\{B\}$$" style="edgeLabel;html=1;align=left;verticalAlign=middle;resizable=0;points=[];labelBackgroundColor=none;" parent="yZ16qvx0rxNorMdgPu06-9" vertex="1" connectable="0">
          <mxGeometry x="-0.2361" relative="1" as="geometry">
            <mxPoint y="-28.29" as="offset" />
          </mxGeometry>
        </mxCell>
        <mxCell id="KhyTpaaFTR_ZvlE7Qd8Q-0" value="$$\scriptsize\mathrm{Block}_c$$" style="edgeLabel;html=1;align=left;verticalAlign=middle;resizable=0;points=[];labelBackgroundColor=none;" parent="yZ16qvx0rxNorMdgPu06-9" vertex="1" connectable="0">
          <mxGeometry x="0.6486" y="-1" relative="1" as="geometry">
            <mxPoint y="-2.29" as="offset" />
          </mxGeometry>
        </mxCell>
        <mxCell id="yZ16qvx0rxNorMdgPu06-11" style="edgeStyle=orthogonalEdgeStyle;curved=1;rounded=0;orthogonalLoop=1;jettySize=auto;html=1;entryX=0.5;entryY=0;entryDx=0;entryDy=0;" parent="yZ16qvx0rxNorMdgPu06-1" target="yZ16qvx0rxNorMdgPu06-13" edge="1">
          <mxGeometry relative="1" as="geometry">
            <mxPoint x="79.94117647058829" y="120" as="targetPoint" />
            <mxPoint x="80" y="120" as="sourcePoint" />
          </mxGeometry>
        </mxCell>
        <mxCell id="yZ16qvx0rxNorMdgPu06-12" value="$$\small A$$" style="edgeLabel;html=1;align=left;verticalAlign=middle;resizable=0;points=[];labelBackgroundColor=none;" parent="yZ16qvx0rxNorMdgPu06-11" vertex="1" connectable="0">
          <mxGeometry x="-0.3194" y="-1" relative="1" as="geometry">
            <mxPoint x="1" y="6.39" as="offset" />
          </mxGeometry>
        </mxCell>
        <mxCell id="5qSvaRaniD8tS6JsUvDH-0" style="edgeStyle=orthogonalEdgeStyle;rounded=0;orthogonalLoop=1;jettySize=auto;html=1;endArrow=classic;endFill=1;curved=1;" parent="yZ16qvx0rxNorMdgPu06-1" edge="1">
          <mxGeometry relative="1" as="geometry">
            <mxPoint x="120" y="300" as="targetPoint" />
            <mxPoint x="80" y="220" as="sourcePoint" />
            <Array as="points">
              <mxPoint x="80" y="240" />
              <mxPoint x="120" y="240" />
            </Array>
          </mxGeometry>
        </mxCell>
        <mxCell id="KhyTpaaFTR_ZvlE7Qd8Q-1" value="$$\small B$$" style="edgeLabel;html=1;align=left;verticalAlign=middle;resizable=0;points=[];labelBackgroundColor=none;" parent="5qSvaRaniD8tS6JsUvDH-0" vertex="1" connectable="0">
          <mxGeometry x="0.7262" y="1" relative="1" as="geometry">
            <mxPoint x="-1.01" y="-3.43" as="offset" />
          </mxGeometry>
        </mxCell>
        <mxCell id="yZ16qvx0rxNorMdgPu06-13" value="$$f$$" style="rounded=1;whiteSpace=wrap;html=1;labelBackgroundColor=none;fillColor=#f5f5f5;strokeColor=#666666;fontColor=#333333;" parent="yZ16qvx0rxNorMdgPu06-1" vertex="1">
          <mxGeometry x="40" y="160" width="80" height="40" as="geometry" />
        </mxCell>
        <mxCell id="SLk6DsYJTVyQQLIDUWPl-0" value="" style="shape=doubleArrow;whiteSpace=wrap;html=1;strokeColor=none;fillColor=#E6E6E6;arrowWidth=0.43200000000000044;arrowSize=0.30399999999999977;" parent="yZ16qvx0rxNorMdgPu06-1" vertex="1">
          <mxGeometry x="170" y="130" width="100" height="100" as="geometry" />
        </mxCell>
        <mxCell id="gVAvi_7QpvD36yjyGxFp-0" style="edgeStyle=orthogonalEdgeStyle;rounded=0;orthogonalLoop=1;jettySize=auto;html=1;curved=1;exitX=0.25;exitY=1;exitDx=0;exitDy=0;" parent="yZ16qvx0rxNorMdgPu06-1" source="gVAvi_7QpvD36yjyGxFp-7" edge="1">
          <mxGeometry relative="1" as="geometry">
            <mxPoint x="340" y="300" as="targetPoint" />
          </mxGeometry>
        </mxCell>
        <mxCell id="gVAvi_7QpvD36yjyGxFp-2" value="$$\scriptsize\mathrm{Block}_c$$" style="edgeLabel;html=1;align=left;verticalAlign=middle;resizable=0;points=[];labelBackgroundColor=none;" parent="gVAvi_7QpvD36yjyGxFp-0" vertex="1" connectable="0">
          <mxGeometry x="0.6486" y="-1" relative="1" as="geometry">
            <mxPoint y="-2.29" as="offset" />
          </mxGeometry>
        </mxCell>
        <mxCell id="gVAvi_7QpvD36yjyGxFp-3" style="edgeStyle=orthogonalEdgeStyle;curved=1;rounded=0;orthogonalLoop=1;jettySize=auto;html=1;entryX=0.5;entryY=0;entryDx=0;entryDy=0;" parent="yZ16qvx0rxNorMdgPu06-1" target="gVAvi_7QpvD36yjyGxFp-7" edge="1">
          <mxGeometry relative="1" as="geometry">
            <mxPoint x="359.9411764705883" y="120" as="targetPoint" />
            <mxPoint x="360" y="120" as="sourcePoint" />
          </mxGeometry>
        </mxCell>
        <mxCell id="gVAvi_7QpvD36yjyGxFp-4" value="$$\small A$$" style="edgeLabel;html=1;align=left;verticalAlign=middle;resizable=0;points=[];labelBackgroundColor=none;" parent="gVAvi_7QpvD36yjyGxFp-3" vertex="1" connectable="0">
          <mxGeometry x="-0.3194" y="-1" relative="1" as="geometry">
            <mxPoint x="1" y="6.39" as="offset" />
          </mxGeometry>
        </mxCell>
        <mxCell id="gVAvi_7QpvD36yjyGxFp-5" style="edgeStyle=orthogonalEdgeStyle;rounded=0;orthogonalLoop=1;jettySize=auto;html=1;endArrow=classic;endFill=1;curved=1;exitX=0.75;exitY=1;exitDx=0;exitDy=0;" parent="yZ16qvx0rxNorMdgPu06-1" source="gVAvi_7QpvD36yjyGxFp-7" edge="1">
          <mxGeometry relative="1" as="geometry">
            <mxPoint x="380" y="300" as="targetPoint" />
            <mxPoint x="380" y="210" as="sourcePoint" />
            <Array as="points">
              <mxPoint x="380" y="270" />
              <mxPoint x="380" y="270" />
            </Array>
          </mxGeometry>
        </mxCell>
        <mxCell id="gVAvi_7QpvD36yjyGxFp-6" value="$$\small B$$" style="edgeLabel;html=1;align=left;verticalAlign=middle;resizable=0;points=[];labelBackgroundColor=none;" parent="gVAvi_7QpvD36yjyGxFp-5" vertex="1" connectable="0">
          <mxGeometry x="0.7262" y="1" relative="1" as="geometry">
            <mxPoint x="-1.01" y="-6.1899999999999995" as="offset" />
          </mxGeometry>
        </mxCell>
        <mxCell id="gVAvi_7QpvD36yjyGxFp-7" value="$$f$$" style="rounded=1;whiteSpace=wrap;html=1;labelBackgroundColor=none;fillColor=#f5f5f5;strokeColor=#666666;fontColor=#333333;" parent="yZ16qvx0rxNorMdgPu06-1" vertex="1">
          <mxGeometry x="320" y="160" width="80" height="40" as="geometry" />
        </mxCell>
        <mxCell id="RLOyGE3ceaXiCiNI-MeC-0" style="edgeStyle=orthogonalEdgeStyle;rounded=0;orthogonalLoop=1;jettySize=auto;html=1;curved=1;" parent="yZ16qvx0rxNorMdgPu06-1" source="RLOyGE3ceaXiCiNI-MeC-7" edge="1">
          <mxGeometry relative="1" as="geometry">
            <mxPoint x="80" y="560" as="targetPoint" />
          </mxGeometry>
        </mxCell>
        <mxCell id="RLOyGE3ceaXiCiNI-MeC-1" value="$$\small B$$" style="edgeLabel;html=1;align=left;verticalAlign=middle;resizable=0;points=[];labelBackgroundColor=none;" parent="RLOyGE3ceaXiCiNI-MeC-0" vertex="1" connectable="0">
          <mxGeometry x="-0.2361" relative="1" as="geometry">
            <mxPoint y="5" as="offset" />
          </mxGeometry>
        </mxCell>
        <mxCell id="RLOyGE3ceaXiCiNI-MeC-3" style="edgeStyle=orthogonalEdgeStyle;curved=1;rounded=0;orthogonalLoop=1;jettySize=auto;html=1;entryX=0.5;entryY=0;entryDx=0;entryDy=0;" parent="yZ16qvx0rxNorMdgPu06-1" target="RLOyGE3ceaXiCiNI-MeC-7" edge="1">
          <mxGeometry relative="1" as="geometry">
            <mxPoint x="79.94117647058829" y="440" as="targetPoint" />
            <mxPoint x="80" y="380" as="sourcePoint" />
          </mxGeometry>
        </mxCell>
        <mxCell id="RLOyGE3ceaXiCiNI-MeC-4" value="$$\scriptsize\mathrm{Block}_c\{A\}$$" style="edgeLabel;html=1;align=left;verticalAlign=middle;resizable=0;points=[];labelBackgroundColor=none;" parent="RLOyGE3ceaXiCiNI-MeC-3" vertex="1" connectable="0">
          <mxGeometry x="-0.3194" y="-1" relative="1" as="geometry">
            <mxPoint x="1" y="46" as="offset" />
          </mxGeometry>
        </mxCell>
        <mxCell id="RLOyGE3ceaXiCiNI-MeC-9" value="$$\scriptsize\mathrm{Block}_c$$" style="edgeLabel;html=1;align=left;verticalAlign=middle;resizable=0;points=[];labelBackgroundColor=none;" parent="RLOyGE3ceaXiCiNI-MeC-3" vertex="1" connectable="0">
          <mxGeometry x="-0.6895" y="-1" relative="1" as="geometry">
            <mxPoint y="-5.71" as="offset" />
          </mxGeometry>
        </mxCell>
        <mxCell id="RLOyGE3ceaXiCiNI-MeC-8" style="edgeStyle=orthogonalEdgeStyle;curved=1;rounded=0;orthogonalLoop=1;jettySize=auto;html=1;endArrow=none;endFill=0;" parent="yZ16qvx0rxNorMdgPu06-1" edge="1">
          <mxGeometry relative="1" as="geometry">
            <mxPoint x="80" y="460" as="targetPoint" />
            <mxPoint x="120" y="380" as="sourcePoint" />
            <Array as="points">
              <mxPoint x="120" y="440" />
              <mxPoint x="80" y="440" />
            </Array>
          </mxGeometry>
        </mxCell>
        <mxCell id="RLOyGE3ceaXiCiNI-MeC-10" value="$$\small A$$" style="edgeLabel;html=1;align=left;verticalAlign=middle;resizable=0;points=[];labelBackgroundColor=none;" parent="RLOyGE3ceaXiCiNI-MeC-8" vertex="1" connectable="0">
          <mxGeometry x="-0.8286" relative="1" as="geometry">
            <mxPoint as="offset" />
          </mxGeometry>
        </mxCell>
        <mxCell id="RLOyGE3ceaXiCiNI-MeC-7" value="$$g$$" style="rounded=1;whiteSpace=wrap;html=1;labelBackgroundColor=none;fillColor=#f5f5f5;strokeColor=#666666;fontColor=#333333;" parent="yZ16qvx0rxNorMdgPu06-1" vertex="1">
          <mxGeometry x="40" y="480" width="80" height="40" as="geometry" />
        </mxCell>
        <mxCell id="RLOyGE3ceaXiCiNI-MeC-11" value="" style="shape=doubleArrow;whiteSpace=wrap;html=1;strokeColor=none;fillColor=#E6E6E6;arrowWidth=0.43200000000000044;arrowSize=0.30399999999999977;" parent="yZ16qvx0rxNorMdgPu06-1" vertex="1">
          <mxGeometry x="170" y="450" width="100" height="100" as="geometry" />
        </mxCell>
        <mxCell id="RLOyGE3ceaXiCiNI-MeC-12" style="edgeStyle=orthogonalEdgeStyle;rounded=0;orthogonalLoop=1;jettySize=auto;html=1;curved=1;" parent="yZ16qvx0rxNorMdgPu06-1" source="RLOyGE3ceaXiCiNI-MeC-19" edge="1">
          <mxGeometry relative="1" as="geometry">
            <mxPoint x="360" y="560" as="targetPoint" />
          </mxGeometry>
        </mxCell>
        <mxCell id="RLOyGE3ceaXiCiNI-MeC-13" value="$$\small B$$" style="edgeLabel;html=1;align=left;verticalAlign=middle;resizable=0;points=[];labelBackgroundColor=none;" parent="RLOyGE3ceaXiCiNI-MeC-12" vertex="1" connectable="0">
          <mxGeometry x="-0.2361" relative="1" as="geometry">
            <mxPoint y="5" as="offset" />
          </mxGeometry>
        </mxCell>
        <mxCell id="RLOyGE3ceaXiCiNI-MeC-14" style="edgeStyle=orthogonalEdgeStyle;curved=1;rounded=0;orthogonalLoop=1;jettySize=auto;html=1;entryX=0.25;entryY=0;entryDx=0;entryDy=0;" parent="yZ16qvx0rxNorMdgPu06-1" target="RLOyGE3ceaXiCiNI-MeC-19" edge="1">
          <mxGeometry relative="1" as="geometry">
            <mxPoint x="359.9411764705883" y="440" as="targetPoint" />
            <mxPoint x="340" y="380" as="sourcePoint" />
          </mxGeometry>
        </mxCell>
        <mxCell id="RLOyGE3ceaXiCiNI-MeC-16" value="$$\scriptsize\mathrm{Block}_c$$" style="edgeLabel;html=1;align=left;verticalAlign=middle;resizable=0;points=[];labelBackgroundColor=none;" parent="RLOyGE3ceaXiCiNI-MeC-14" vertex="1" connectable="0">
          <mxGeometry x="-0.6895" y="-1" relative="1" as="geometry">
            <mxPoint y="-5.71" as="offset" />
          </mxGeometry>
        </mxCell>
        <mxCell id="RLOyGE3ceaXiCiNI-MeC-17" style="edgeStyle=orthogonalEdgeStyle;curved=1;rounded=0;orthogonalLoop=1;jettySize=auto;html=1;endArrow=classic;endFill=1;entryX=0.75;entryY=0;entryDx=0;entryDy=0;" parent="yZ16qvx0rxNorMdgPu06-1" target="RLOyGE3ceaXiCiNI-MeC-19" edge="1">
          <mxGeometry relative="1" as="geometry">
            <mxPoint x="360" y="460" as="targetPoint" />
            <mxPoint x="380" y="380" as="sourcePoint" />
            <Array as="points">
              <mxPoint x="380" y="380" />
            </Array>
          </mxGeometry>
        </mxCell>
        <mxCell id="RLOyGE3ceaXiCiNI-MeC-18" value="$$\small A$$" style="edgeLabel;html=1;align=left;verticalAlign=middle;resizable=0;points=[];labelBackgroundColor=none;" parent="RLOyGE3ceaXiCiNI-MeC-17" vertex="1" connectable="0">
          <mxGeometry x="-0.8286" relative="1" as="geometry">
            <mxPoint y="1.67" as="offset" />
          </mxGeometry>
        </mxCell>
        <mxCell id="RLOyGE3ceaXiCiNI-MeC-19" value="$$g$$" style="rounded=1;whiteSpace=wrap;html=1;labelBackgroundColor=none;fillColor=#f5f5f5;strokeColor=#666666;fontColor=#333333;" parent="yZ16qvx0rxNorMdgPu06-1" vertex="1">
          <mxGeometry x="320" y="480" width="80" height="40" as="geometry" />
        </mxCell>
      </root>
    </mxGraphModel>
  </diagram>
  <diagram name="Example: Multiwired Transformations" id="wQvYS6gfK9by5tM3e8yS">
    <mxGraphModel dx="810" dy="449" grid="1" gridSize="10" guides="1" tooltips="1" connect="1" arrows="1" fold="1" page="1" pageScale="1" pageWidth="980" pageHeight="690" math="1" shadow="0">
      <root>
        <mxCell id="lkAMiqhWn2ciGejosRfd-0" />
        <mxCell id="lkAMiqhWn2ciGejosRfd-1" parent="lkAMiqhWn2ciGejosRfd-0" />
        <mxCell id="lkAMiqhWn2ciGejosRfd-2" value="&lt;h1&gt;Example: Multiwired Transformations&lt;/h1&gt;" style="text;html=1;align=center;verticalAlign=middle;resizable=0;points=[];autosize=1;" parent="lkAMiqhWn2ciGejosRfd-1" vertex="1">
          <mxGeometry x="40" y="30" width="440" height="50" as="geometry" />
        </mxCell>
        <mxCell id="lkAMiqhWn2ciGejosRfd-12" style="edgeStyle=orthogonalEdgeStyle;rounded=0;orthogonalLoop=1;jettySize=auto;html=1;curved=1;exitX=0.25;exitY=1;exitDx=0;exitDy=0;" parent="lkAMiqhWn2ciGejosRfd-1" source="lkAMiqhWn2ciGejosRfd-18" edge="1">
          <mxGeometry relative="1" as="geometry">
            <mxPoint x="60" y="240" as="targetPoint" />
          </mxGeometry>
        </mxCell>
        <mxCell id="lkAMiqhWn2ciGejosRfd-13" value="$$\scriptsize\mathrm{Block}_{0:N}$$" style="edgeLabel;html=1;align=left;verticalAlign=middle;resizable=0;points=[];labelBackgroundColor=none;" parent="lkAMiqhWn2ciGejosRfd-12" vertex="1" connectable="0">
          <mxGeometry x="0.6486" y="-1" relative="1" as="geometry">
            <mxPoint y="-13.14" as="offset" />
          </mxGeometry>
        </mxCell>
        <mxCell id="lkAMiqhWn2ciGejosRfd-14" style="edgeStyle=orthogonalEdgeStyle;curved=1;rounded=0;orthogonalLoop=1;jettySize=auto;html=1;entryX=0.5;entryY=0;entryDx=0;entryDy=0;" parent="lkAMiqhWn2ciGejosRfd-1" target="lkAMiqhWn2ciGejosRfd-18" edge="1">
          <mxGeometry relative="1" as="geometry">
            <mxPoint x="79.94117647058829" y="120" as="targetPoint" />
            <mxPoint x="80" y="120" as="sourcePoint" />
          </mxGeometry>
        </mxCell>
        <mxCell id="lkAMiqhWn2ciGejosRfd-15" value="$$\scriptsize\mathsf{Dept}$$" style="edgeLabel;html=1;align=left;verticalAlign=middle;resizable=0;points=[];labelBackgroundColor=none;" parent="lkAMiqhWn2ciGejosRfd-14" vertex="1" connectable="0">
          <mxGeometry x="-0.3194" y="-1" relative="1" as="geometry">
            <mxPoint x="1" y="6.39" as="offset" />
          </mxGeometry>
        </mxCell>
        <mxCell id="lkAMiqhWn2ciGejosRfd-16" style="edgeStyle=orthogonalEdgeStyle;rounded=0;orthogonalLoop=1;jettySize=auto;html=1;endArrow=classic;endFill=1;curved=1;exitX=0.75;exitY=1;exitDx=0;exitDy=0;" parent="lkAMiqhWn2ciGejosRfd-1" source="lkAMiqhWn2ciGejosRfd-18" edge="1">
          <mxGeometry relative="1" as="geometry">
            <mxPoint x="100" y="240" as="targetPoint" />
            <mxPoint x="100" y="210" as="sourcePoint" />
            <Array as="points">
              <mxPoint x="100" y="230" />
              <mxPoint x="100" y="230" />
            </Array>
          </mxGeometry>
        </mxCell>
        <mxCell id="lkAMiqhWn2ciGejosRfd-17" value="$$\scriptsize\mathsf{Emp}$$" style="edgeLabel;html=1;align=left;verticalAlign=middle;resizable=0;points=[];labelBackgroundColor=none;" parent="lkAMiqhWn2ciGejosRfd-16" vertex="1" connectable="0">
          <mxGeometry x="0.7262" y="1" relative="1" as="geometry">
            <mxPoint x="-1.01" y="-14.29" as="offset" />
          </mxGeometry>
        </mxCell>
        <mxCell id="lkAMiqhWn2ciGejosRfd-18" value="$$\small\mathsf{employee}$$" style="rounded=1;whiteSpace=wrap;html=1;labelBackgroundColor=none;fillColor=#f5f5f5;strokeColor=#666666;fontColor=#333333;" parent="lkAMiqhWn2ciGejosRfd-1" vertex="1">
          <mxGeometry x="40" y="160" width="80" height="40" as="geometry" />
        </mxCell>
        <mxCell id="lkAMiqhWn2ciGejosRfd-28" style="edgeStyle=orthogonalEdgeStyle;rounded=0;orthogonalLoop=1;jettySize=auto;html=1;curved=1;" parent="lkAMiqhWn2ciGejosRfd-1" source="lkAMiqhWn2ciGejosRfd-34" edge="1">
          <mxGeometry relative="1" as="geometry">
            <mxPoint x="80" y="440" as="targetPoint" />
          </mxGeometry>
        </mxCell>
        <mxCell id="lkAMiqhWn2ciGejosRfd-29" value="$$\scriptsize\mathrm{Int}$$" style="edgeLabel;html=1;align=left;verticalAlign=middle;resizable=0;points=[];labelBackgroundColor=none;" parent="lkAMiqhWn2ciGejosRfd-28" vertex="1" connectable="0">
          <mxGeometry x="-0.2361" relative="1" as="geometry">
            <mxPoint y="4.67" as="offset" />
          </mxGeometry>
        </mxCell>
        <mxCell id="lkAMiqhWn2ciGejosRfd-30" style="edgeStyle=orthogonalEdgeStyle;curved=1;rounded=0;orthogonalLoop=1;jettySize=auto;html=1;entryX=0.25;entryY=0;entryDx=0;entryDy=0;" parent="lkAMiqhWn2ciGejosRfd-1" target="lkAMiqhWn2ciGejosRfd-34" edge="1">
          <mxGeometry relative="1" as="geometry">
            <mxPoint x="79.94117647058829" y="320" as="targetPoint" />
            <mxPoint x="60" y="320" as="sourcePoint" />
          </mxGeometry>
        </mxCell>
        <mxCell id="lkAMiqhWn2ciGejosRfd-31" value="$$\scriptsize\mathrm{Block}_c$$" style="edgeLabel;html=1;align=left;verticalAlign=middle;resizable=0;points=[];labelBackgroundColor=none;" parent="lkAMiqhWn2ciGejosRfd-30" vertex="1" connectable="0">
          <mxGeometry x="-0.6895" y="-1" relative="1" as="geometry">
            <mxPoint y="13.669999999999998" as="offset" />
          </mxGeometry>
        </mxCell>
        <mxCell id="lkAMiqhWn2ciGejosRfd-34" value="$$\small\mathrm{sum}$$" style="rounded=1;whiteSpace=wrap;html=1;labelBackgroundColor=none;fillColor=#f5f5f5;strokeColor=#666666;fontColor=#333333;" parent="lkAMiqhWn2ciGejosRfd-1" vertex="1">
          <mxGeometry x="40" y="360" width="80" height="40" as="geometry" />
        </mxCell>
        <mxCell id="6Y-M_2sEuz1bsWOyBxcK-1" style="edgeStyle=orthogonalEdgeStyle;curved=1;rounded=0;orthogonalLoop=1;jettySize=auto;html=1;entryX=0.75;entryY=0;entryDx=0;entryDy=0;" parent="lkAMiqhWn2ciGejosRfd-1" target="lkAMiqhWn2ciGejosRfd-34" edge="1">
          <mxGeometry relative="1" as="geometry">
            <mxPoint x="100" y="360" as="targetPoint" />
            <mxPoint x="100" y="320" as="sourcePoint" />
          </mxGeometry>
        </mxCell>
        <mxCell id="6Y-M_2sEuz1bsWOyBxcK-2" value="$$\scriptsize\mathrm{Int}$$" style="edgeLabel;html=1;align=left;verticalAlign=middle;resizable=0;points=[];labelBackgroundColor=none;" parent="6Y-M_2sEuz1bsWOyBxcK-1" vertex="1" connectable="0">
          <mxGeometry x="-0.6895" y="-1" relative="1" as="geometry">
            <mxPoint y="13.669999999999998" as="offset" />
          </mxGeometry>
        </mxCell>
        <mxCell id="-Fv4zBPZEsN0qJSjoiDZ-0" style="edgeStyle=orthogonalEdgeStyle;curved=1;rounded=0;orthogonalLoop=1;jettySize=auto;html=1;endArrow=classicThin;endFill=1;dashed=1;dashPattern=1 1;" parent="lkAMiqhWn2ciGejosRfd-1" source="rq48rH3LdZguwIR1JxcD-0" edge="1">
          <mxGeometry relative="1" as="geometry">
            <mxPoint x="130" y="180" as="targetPoint" />
          </mxGeometry>
        </mxCell>
        <mxCell id="rq48rH3LdZguwIR1JxcD-0" value="Maps a department to the collection of associated employees" style="ellipse;whiteSpace=wrap;html=1;labelBackgroundColor=none;align=center;dashed=1;dashPattern=1 1;fontSize=11;fontStyle=2" parent="lkAMiqhWn2ciGejosRfd-1" vertex="1">
          <mxGeometry x="220" y="120" width="140" height="80" as="geometry" />
        </mxCell>
        <mxCell id="-Fv4zBPZEsN0qJSjoiDZ-1" style="edgeStyle=orthogonalEdgeStyle;curved=1;rounded=0;orthogonalLoop=1;jettySize=auto;html=1;dashed=1;dashPattern=1 1;endArrow=classicThin;endFill=1;" parent="lkAMiqhWn2ciGejosRfd-1" source="FRlHE_pB1IAtKLRzWuZ7-0" edge="1">
          <mxGeometry relative="1" as="geometry">
            <mxPoint x="130" y="380" as="targetPoint" />
          </mxGeometry>
        </mxCell>
        <mxCell id="FRlHE_pB1IAtKLRzWuZ7-0" value="Produces the sum of a collection of integer numbers" style="ellipse;whiteSpace=wrap;html=1;labelBackgroundColor=none;align=center;dashed=1;dashPattern=1 1;fontSize=11;fontStyle=2" parent="lkAMiqhWn2ciGejosRfd-1" vertex="1">
          <mxGeometry x="220" y="380" width="140" height="60" as="geometry" />
        </mxCell>
      </root>
    </mxGraphModel>
  </diagram>
  <diagram name="Example: Multiwired Composition" id="CA24tJip9bRfxmVic8ZE">
    <mxGraphModel dx="810" dy="449" grid="1" gridSize="10" guides="1" tooltips="1" connect="1" arrows="1" fold="1" page="1" pageScale="1" pageWidth="980" pageHeight="690" math="1" shadow="0">
      <root>
        <mxCell id="XtcZSNjLIJk_pV30JhDI-0" />
        <mxCell id="XtcZSNjLIJk_pV30JhDI-1" parent="XtcZSNjLIJk_pV30JhDI-0" />
        <mxCell id="XtcZSNjLIJk_pV30JhDI-2" value="&lt;h1&gt;Example: Multiwired Composition&lt;/h1&gt;" style="text;html=1;align=center;verticalAlign=middle;resizable=0;points=[];autosize=1;" parent="XtcZSNjLIJk_pV30JhDI-1" vertex="1">
          <mxGeometry x="40" y="30" width="400" height="50" as="geometry" />
        </mxCell>
        <mxCell id="XtcZSNjLIJk_pV30JhDI-3" style="edgeStyle=orthogonalEdgeStyle;rounded=0;orthogonalLoop=1;jettySize=auto;html=1;curved=1;exitX=0.25;exitY=1;exitDx=0;exitDy=0;entryX=0.25;entryY=0;entryDx=0;entryDy=0;" parent="XtcZSNjLIJk_pV30JhDI-1" source="XtcZSNjLIJk_pV30JhDI-9" target="XtcZSNjLIJk_pV30JhDI-14" edge="1">
          <mxGeometry relative="1" as="geometry">
            <mxPoint x="340" y="320" as="targetPoint" />
          </mxGeometry>
        </mxCell>
        <mxCell id="XtcZSNjLIJk_pV30JhDI-4" value="$$\scriptsize\mathrm{Block}_{0:N}$$" style="edgeLabel;html=1;align=left;verticalAlign=middle;resizable=0;points=[];labelBackgroundColor=none;" parent="XtcZSNjLIJk_pV30JhDI-3" vertex="1" connectable="0">
          <mxGeometry x="0.6486" y="-1" relative="1" as="geometry">
            <mxPoint y="-38.86" as="offset" />
          </mxGeometry>
        </mxCell>
        <mxCell id="XtcZSNjLIJk_pV30JhDI-5" style="edgeStyle=orthogonalEdgeStyle;curved=1;rounded=0;orthogonalLoop=1;jettySize=auto;html=1;entryX=0.5;entryY=0;entryDx=0;entryDy=0;" parent="XtcZSNjLIJk_pV30JhDI-1" target="XtcZSNjLIJk_pV30JhDI-9" edge="1">
          <mxGeometry relative="1" as="geometry">
            <mxPoint x="359.9411764705883" y="200" as="targetPoint" />
            <mxPoint x="360" y="200" as="sourcePoint" />
          </mxGeometry>
        </mxCell>
        <mxCell id="XtcZSNjLIJk_pV30JhDI-6" value="$$\scriptsize\mathsf{Dept}$$" style="edgeLabel;html=1;align=left;verticalAlign=middle;resizable=0;points=[];labelBackgroundColor=none;" parent="XtcZSNjLIJk_pV30JhDI-5" vertex="1" connectable="0">
          <mxGeometry x="-0.3194" y="-1" relative="1" as="geometry">
            <mxPoint x="1" y="6.39" as="offset" />
          </mxGeometry>
        </mxCell>
        <mxCell id="XtcZSNjLIJk_pV30JhDI-7" style="edgeStyle=orthogonalEdgeStyle;rounded=0;orthogonalLoop=1;jettySize=auto;html=1;endArrow=classic;endFill=1;curved=1;exitX=0.75;exitY=1;exitDx=0;exitDy=0;entryX=0.5;entryY=0;entryDx=0;entryDy=0;" parent="XtcZSNjLIJk_pV30JhDI-1" source="XtcZSNjLIJk_pV30JhDI-9" target="wHtoPX5DEdKeukYue3pV-4" edge="1">
          <mxGeometry relative="1" as="geometry">
            <mxPoint x="380" y="320" as="targetPoint" />
            <mxPoint x="380" y="290" as="sourcePoint" />
            <Array as="points">
              <mxPoint x="380" y="300" />
              <mxPoint x="440" y="300" />
            </Array>
          </mxGeometry>
        </mxCell>
        <mxCell id="XtcZSNjLIJk_pV30JhDI-8" value="$$\scriptsize\mathsf{Emp}$$" style="edgeLabel;html=1;align=left;verticalAlign=middle;resizable=0;points=[];labelBackgroundColor=none;" parent="XtcZSNjLIJk_pV30JhDI-7" vertex="1" connectable="0">
          <mxGeometry x="0.7262" y="1" relative="1" as="geometry">
            <mxPoint x="-51.019999999999996" y="-16.29" as="offset" />
          </mxGeometry>
        </mxCell>
        <mxCell id="XtcZSNjLIJk_pV30JhDI-9" value="$$\small\mathsf{employee}$$" style="rounded=1;whiteSpace=wrap;html=1;labelBackgroundColor=none;fillColor=#f5f5f5;strokeColor=#666666;fontColor=#333333;" parent="XtcZSNjLIJk_pV30JhDI-1" vertex="1">
          <mxGeometry x="320" y="240" width="80" height="40" as="geometry" />
        </mxCell>
        <mxCell id="XtcZSNjLIJk_pV30JhDI-10" style="edgeStyle=orthogonalEdgeStyle;rounded=0;orthogonalLoop=1;jettySize=auto;html=1;curved=1;" parent="XtcZSNjLIJk_pV30JhDI-1" source="XtcZSNjLIJk_pV30JhDI-14" edge="1">
          <mxGeometry relative="1" as="geometry">
            <mxPoint x="360" y="480" as="targetPoint" />
          </mxGeometry>
        </mxCell>
        <mxCell id="XtcZSNjLIJk_pV30JhDI-11" value="$$\scriptsize\mathrm{Int}$$" style="edgeLabel;html=1;align=left;verticalAlign=middle;resizable=0;points=[];labelBackgroundColor=none;" parent="XtcZSNjLIJk_pV30JhDI-10" vertex="1" connectable="0">
          <mxGeometry x="-0.2361" relative="1" as="geometry">
            <mxPoint y="4.67" as="offset" />
          </mxGeometry>
        </mxCell>
        <mxCell id="XtcZSNjLIJk_pV30JhDI-14" value="$$\small\mathrm{sum}$$" style="rounded=1;whiteSpace=wrap;html=1;labelBackgroundColor=none;fillColor=#f5f5f5;strokeColor=#666666;fontColor=#333333;" parent="XtcZSNjLIJk_pV30JhDI-1" vertex="1">
          <mxGeometry x="320" y="400" width="80" height="40" as="geometry" />
        </mxCell>
        <mxCell id="XtcZSNjLIJk_pV30JhDI-15" style="edgeStyle=orthogonalEdgeStyle;curved=1;rounded=0;orthogonalLoop=1;jettySize=auto;html=1;entryX=0.75;entryY=0;entryDx=0;entryDy=0;exitX=0.5;exitY=1;exitDx=0;exitDy=0;" parent="XtcZSNjLIJk_pV30JhDI-1" source="wHtoPX5DEdKeukYue3pV-4" target="XtcZSNjLIJk_pV30JhDI-14" edge="1">
          <mxGeometry relative="1" as="geometry">
            <mxPoint x="380" y="400" as="targetPoint" />
            <mxPoint x="380" y="360" as="sourcePoint" />
          </mxGeometry>
        </mxCell>
        <mxCell id="XtcZSNjLIJk_pV30JhDI-16" value="$$\scriptsize\mathrm{Int}$$" style="edgeLabel;html=1;align=left;verticalAlign=middle;resizable=0;points=[];labelBackgroundColor=none;" parent="XtcZSNjLIJk_pV30JhDI-15" vertex="1" connectable="0">
          <mxGeometry x="-0.6895" y="-1" relative="1" as="geometry">
            <mxPoint x="0.9800000000000004" y="-5.4300000000000015" as="offset" />
          </mxGeometry>
        </mxCell>
        <mxCell id="wHtoPX5DEdKeukYue3pV-4" value="$$\small\mathsf{salary}$$" style="rounded=1;whiteSpace=wrap;html=1;labelBackgroundColor=none;fillColor=#f5f5f5;strokeColor=#666666;fontColor=#333333;" parent="XtcZSNjLIJk_pV30JhDI-1" vertex="1">
          <mxGeometry x="400" y="320" width="80" height="40" as="geometry" />
        </mxCell>
        <mxCell id="2ag3FYefDr9Uc8gud3XT-0" value="" style="html=1;shadow=0;dashed=0;align=center;verticalAlign=middle;shape=mxgraph.arrows2.arrow;dy=0.6;dx=40;notch=0;labelBackgroundColor=none;strokeColor=none;fillColor=#E6E6E6;" parent="XtcZSNjLIJk_pV30JhDI-1" vertex="1">
          <mxGeometry x="170" y="290" width="100" height="100" as="geometry" />
        </mxCell>
        <mxCell id="RHGVJNOYaPpynAjgiLMJ-1" value="$$\small\mathrm{chain\_of}(\mathsf{employee},\mathrm{with\_elements}(\mathsf{salary}),\mathrm{sum})$$" style="text;html=1;align=center;verticalAlign=middle;resizable=0;points=[];autosize=1;" parent="XtcZSNjLIJk_pV30JhDI-1" vertex="1">
          <mxGeometry x="110" y="520" width="580" height="20" as="geometry" />
        </mxCell>
        <mxCell id="ea4UhWE3djrubQ33M5GL-0" style="edgeStyle=orthogonalEdgeStyle;rounded=0;orthogonalLoop=1;jettySize=auto;html=1;curved=1;exitX=0.25;exitY=1;exitDx=0;exitDy=0;" parent="XtcZSNjLIJk_pV30JhDI-1" source="ea4UhWE3djrubQ33M5GL-6" edge="1">
          <mxGeometry relative="1" as="geometry">
            <mxPoint x="60" y="240" as="targetPoint" />
          </mxGeometry>
        </mxCell>
        <mxCell id="ea4UhWE3djrubQ33M5GL-1" value="$$\scriptsize\mathrm{Block}_{0:N}$$" style="edgeLabel;html=1;align=left;verticalAlign=middle;resizable=0;points=[];labelBackgroundColor=none;" parent="ea4UhWE3djrubQ33M5GL-0" vertex="1" connectable="0">
          <mxGeometry x="0.6486" y="-1" relative="1" as="geometry">
            <mxPoint y="-13.14" as="offset" />
          </mxGeometry>
        </mxCell>
        <mxCell id="ea4UhWE3djrubQ33M5GL-2" style="edgeStyle=orthogonalEdgeStyle;curved=1;rounded=0;orthogonalLoop=1;jettySize=auto;html=1;entryX=0.5;entryY=0;entryDx=0;entryDy=0;" parent="XtcZSNjLIJk_pV30JhDI-1" target="ea4UhWE3djrubQ33M5GL-6" edge="1">
          <mxGeometry relative="1" as="geometry">
            <mxPoint x="79.94117647058829" y="120" as="targetPoint" />
            <mxPoint x="80" y="120" as="sourcePoint" />
          </mxGeometry>
        </mxCell>
        <mxCell id="ea4UhWE3djrubQ33M5GL-3" value="$$\scriptsize\mathsf{Dept}$$" style="edgeLabel;html=1;align=left;verticalAlign=middle;resizable=0;points=[];labelBackgroundColor=none;" parent="ea4UhWE3djrubQ33M5GL-2" vertex="1" connectable="0">
          <mxGeometry x="-0.3194" y="-1" relative="1" as="geometry">
            <mxPoint x="1" y="6.39" as="offset" />
          </mxGeometry>
        </mxCell>
        <mxCell id="ea4UhWE3djrubQ33M5GL-4" style="edgeStyle=orthogonalEdgeStyle;rounded=0;orthogonalLoop=1;jettySize=auto;html=1;endArrow=classic;endFill=1;curved=1;exitX=0.75;exitY=1;exitDx=0;exitDy=0;" parent="XtcZSNjLIJk_pV30JhDI-1" source="ea4UhWE3djrubQ33M5GL-6" edge="1">
          <mxGeometry relative="1" as="geometry">
            <mxPoint x="100" y="240" as="targetPoint" />
            <mxPoint x="100" y="210" as="sourcePoint" />
            <Array as="points">
              <mxPoint x="100" y="230" />
              <mxPoint x="100" y="230" />
            </Array>
          </mxGeometry>
        </mxCell>
        <mxCell id="ea4UhWE3djrubQ33M5GL-5" value="$$\scriptsize\mathsf{Emp}$$" style="edgeLabel;html=1;align=left;verticalAlign=middle;resizable=0;points=[];labelBackgroundColor=none;" parent="ea4UhWE3djrubQ33M5GL-4" vertex="1" connectable="0">
          <mxGeometry x="0.7262" y="1" relative="1" as="geometry">
            <mxPoint x="-1.01" y="-14.29" as="offset" />
          </mxGeometry>
        </mxCell>
        <mxCell id="ea4UhWE3djrubQ33M5GL-6" value="$$\small\mathsf{employee}$$" style="rounded=1;whiteSpace=wrap;html=1;labelBackgroundColor=none;fillColor=#f5f5f5;strokeColor=#666666;fontColor=#333333;" parent="XtcZSNjLIJk_pV30JhDI-1" vertex="1">
          <mxGeometry x="40" y="160" width="80" height="40" as="geometry" />
        </mxCell>
        <mxCell id="ea4UhWE3djrubQ33M5GL-7" style="edgeStyle=orthogonalEdgeStyle;rounded=0;orthogonalLoop=1;jettySize=auto;html=1;curved=1;" parent="XtcZSNjLIJk_pV30JhDI-1" source="ea4UhWE3djrubQ33M5GL-11" edge="1">
          <mxGeometry relative="1" as="geometry">
            <mxPoint x="80" y="560" as="targetPoint" />
          </mxGeometry>
        </mxCell>
        <mxCell id="ea4UhWE3djrubQ33M5GL-8" value="$$\scriptsize\mathrm{Int}$$" style="edgeLabel;html=1;align=left;verticalAlign=middle;resizable=0;points=[];labelBackgroundColor=none;" parent="ea4UhWE3djrubQ33M5GL-7" vertex="1" connectable="0">
          <mxGeometry x="-0.2361" relative="1" as="geometry">
            <mxPoint y="4.67" as="offset" />
          </mxGeometry>
        </mxCell>
        <mxCell id="ea4UhWE3djrubQ33M5GL-9" style="edgeStyle=orthogonalEdgeStyle;curved=1;rounded=0;orthogonalLoop=1;jettySize=auto;html=1;entryX=0.25;entryY=0;entryDx=0;entryDy=0;" parent="XtcZSNjLIJk_pV30JhDI-1" target="ea4UhWE3djrubQ33M5GL-11" edge="1">
          <mxGeometry relative="1" as="geometry">
            <mxPoint x="79.94117647058829" y="440" as="targetPoint" />
            <mxPoint x="60" y="440" as="sourcePoint" />
          </mxGeometry>
        </mxCell>
        <mxCell id="ea4UhWE3djrubQ33M5GL-10" value="$$\scriptsize\mathrm{Block}_c$$" style="edgeLabel;html=1;align=left;verticalAlign=middle;resizable=0;points=[];labelBackgroundColor=none;" parent="ea4UhWE3djrubQ33M5GL-9" vertex="1" connectable="0">
          <mxGeometry x="-0.6895" y="-1" relative="1" as="geometry">
            <mxPoint y="13.669999999999998" as="offset" />
          </mxGeometry>
        </mxCell>
        <mxCell id="ea4UhWE3djrubQ33M5GL-11" value="$$\small\mathrm{sum}$$" style="rounded=1;whiteSpace=wrap;html=1;labelBackgroundColor=none;fillColor=#f5f5f5;strokeColor=#666666;fontColor=#333333;" parent="XtcZSNjLIJk_pV30JhDI-1" vertex="1">
          <mxGeometry x="40" y="480" width="80" height="40" as="geometry" />
        </mxCell>
        <mxCell id="ea4UhWE3djrubQ33M5GL-12" style="edgeStyle=orthogonalEdgeStyle;curved=1;rounded=0;orthogonalLoop=1;jettySize=auto;html=1;entryX=0.75;entryY=0;entryDx=0;entryDy=0;" parent="XtcZSNjLIJk_pV30JhDI-1" target="ea4UhWE3djrubQ33M5GL-11" edge="1">
          <mxGeometry relative="1" as="geometry">
            <mxPoint x="100" y="480" as="targetPoint" />
            <mxPoint x="100" y="440" as="sourcePoint" />
          </mxGeometry>
        </mxCell>
        <mxCell id="ea4UhWE3djrubQ33M5GL-13" value="$$\scriptsize\mathrm{Int}$$" style="edgeLabel;html=1;align=left;verticalAlign=middle;resizable=0;points=[];labelBackgroundColor=none;" parent="ea4UhWE3djrubQ33M5GL-12" vertex="1" connectable="0">
          <mxGeometry x="-0.6895" y="-1" relative="1" as="geometry">
            <mxPoint y="13.669999999999998" as="offset" />
          </mxGeometry>
        </mxCell>
        <mxCell id="Z63FDuXnudFlsrRsEUuF-0" style="edgeStyle=orthogonalEdgeStyle;rounded=0;orthogonalLoop=1;jettySize=auto;html=1;curved=1;" parent="XtcZSNjLIJk_pV30JhDI-1" source="Z63FDuXnudFlsrRsEUuF-4" edge="1">
          <mxGeometry relative="1" as="geometry">
            <mxPoint x="80" y="400" as="targetPoint" />
          </mxGeometry>
        </mxCell>
        <mxCell id="Z63FDuXnudFlsrRsEUuF-1" value="$$\scriptsize\mathrm{Int}$$" style="edgeLabel;html=1;align=left;verticalAlign=middle;resizable=0;points=[];labelBackgroundColor=none;" parent="Z63FDuXnudFlsrRsEUuF-0" vertex="1" connectable="0">
          <mxGeometry x="-0.2361" relative="1" as="geometry">
            <mxPoint y="4.72" as="offset" />
          </mxGeometry>
        </mxCell>
        <mxCell id="Z63FDuXnudFlsrRsEUuF-2" style="edgeStyle=orthogonalEdgeStyle;curved=1;rounded=0;orthogonalLoop=1;jettySize=auto;html=1;entryX=0.5;entryY=0;entryDx=0;entryDy=0;" parent="XtcZSNjLIJk_pV30JhDI-1" target="Z63FDuXnudFlsrRsEUuF-4" edge="1">
          <mxGeometry relative="1" as="geometry">
            <mxPoint x="79.94117647058829" y="280" as="targetPoint" />
            <mxPoint x="80" y="280" as="sourcePoint" />
          </mxGeometry>
        </mxCell>
        <mxCell id="Z63FDuXnudFlsrRsEUuF-3" value="$$\scriptsize\mathsf{Emp}$$" style="edgeLabel;html=1;align=left;verticalAlign=middle;resizable=0;points=[];labelBackgroundColor=none;" parent="Z63FDuXnudFlsrRsEUuF-2" vertex="1" connectable="0">
          <mxGeometry x="-0.3194" y="-1" relative="1" as="geometry">
            <mxPoint x="1" y="6.39" as="offset" />
          </mxGeometry>
        </mxCell>
        <mxCell id="Z63FDuXnudFlsrRsEUuF-4" value="$$\small\mathsf{salary}$$" style="rounded=1;whiteSpace=wrap;html=1;labelBackgroundColor=none;fillColor=#f5f5f5;strokeColor=#666666;fontColor=#333333;" parent="XtcZSNjLIJk_pV30JhDI-1" vertex="1">
          <mxGeometry x="40" y="320" width="80" height="40" as="geometry" />
        </mxCell>
        <mxCell id="Z63FDuXnudFlsrRsEUuF-5" value="" style="shape=curlyBracket;whiteSpace=wrap;html=1;rounded=1;labelBackgroundColor=none;fillColor=#E6E6E6;align=left;flipH=1;" parent="XtcZSNjLIJk_pV30JhDI-1" vertex="1">
          <mxGeometry x="510" y="230" width="20" height="220" as="geometry" />
        </mxCell>
        <mxCell id="eecFCSUT4PLp_wKqKJQC-0" value="Calculates total sum of salaries&lt;br&gt;in a given department" style="text;html=1;align=left;verticalAlign=middle;resizable=0;points=[];autosize=1;fontStyle=2" parent="XtcZSNjLIJk_pV30JhDI-1" vertex="1">
          <mxGeometry x="530" y="325" width="180" height="30" as="geometry" />
        </mxCell>
      </root>
    </mxGraphModel>
  </diagram>
  <diagram name="Example: Multiwired Composition Details" id="SKriiah8_UZRX3qwOCHp">
    <mxGraphModel dx="810" dy="449" grid="1" gridSize="10" guides="1" tooltips="1" connect="1" arrows="1" fold="1" page="1" pageScale="1" pageWidth="980" pageHeight="690" math="1" shadow="0">
      <root>
        <mxCell id="lXrD42SNP3AWvQBeYb2Y-0" />
        <mxCell id="lXrD42SNP3AWvQBeYb2Y-1" parent="lXrD42SNP3AWvQBeYb2Y-0" />
        <mxCell id="lXrD42SNP3AWvQBeYb2Y-2" value="&lt;h1&gt;Example: Multiwired Composition Details&lt;br&gt;&lt;/h1&gt;" style="text;html=1;align=center;verticalAlign=middle;resizable=0;points=[];autosize=1;" parent="lXrD42SNP3AWvQBeYb2Y-1" vertex="1">
          <mxGeometry x="40" y="30" width="490" height="50" as="geometry" />
        </mxCell>
        <mxCell id="lXrD42SNP3AWvQBeYb2Y-3" style="edgeStyle=orthogonalEdgeStyle;rounded=0;orthogonalLoop=1;jettySize=auto;html=1;curved=1;exitX=0.25;exitY=1;exitDx=0;exitDy=0;entryX=0.25;entryY=0;entryDx=0;entryDy=0;" parent="lXrD42SNP3AWvQBeYb2Y-1" source="lXrD42SNP3AWvQBeYb2Y-9" target="lXrD42SNP3AWvQBeYb2Y-12" edge="1">
          <mxGeometry relative="1" as="geometry">
            <mxPoint x="300" y="260" as="targetPoint" />
          </mxGeometry>
        </mxCell>
        <mxCell id="lXrD42SNP3AWvQBeYb2Y-4" value="$$\scriptsize\mathrm{Block}_{0:N}$$" style="edgeLabel;html=1;align=left;verticalAlign=middle;resizable=0;points=[];labelBackgroundColor=none;" parent="lXrD42SNP3AWvQBeYb2Y-3" vertex="1" connectable="0">
          <mxGeometry x="0.6486" y="-1" relative="1" as="geometry">
            <mxPoint y="-51.72" as="offset" />
          </mxGeometry>
        </mxCell>
        <mxCell id="lXrD42SNP3AWvQBeYb2Y-5" style="edgeStyle=orthogonalEdgeStyle;curved=1;rounded=0;orthogonalLoop=1;jettySize=auto;html=1;entryX=0.5;entryY=0;entryDx=0;entryDy=0;" parent="lXrD42SNP3AWvQBeYb2Y-1" target="lXrD42SNP3AWvQBeYb2Y-9" edge="1">
          <mxGeometry relative="1" as="geometry">
            <mxPoint x="319.9411764705883" y="140" as="targetPoint" />
            <mxPoint x="320" y="120" as="sourcePoint" />
          </mxGeometry>
        </mxCell>
        <mxCell id="lXrD42SNP3AWvQBeYb2Y-6" value="$$\scriptsize\mathsf{Dept}$$" style="edgeLabel;html=1;align=left;verticalAlign=middle;resizable=0;points=[];labelBackgroundColor=none;" parent="lXrD42SNP3AWvQBeYb2Y-5" vertex="1" connectable="0">
          <mxGeometry x="-0.3194" y="-1" relative="1" as="geometry">
            <mxPoint x="1" y="-0.8300000000000001" as="offset" />
          </mxGeometry>
        </mxCell>
        <mxCell id="lXrD42SNP3AWvQBeYb2Y-7" style="edgeStyle=orthogonalEdgeStyle;rounded=0;orthogonalLoop=1;jettySize=auto;html=1;endArrow=classic;endFill=1;curved=1;exitX=0.75;exitY=1;exitDx=0;exitDy=0;entryX=0.5;entryY=0;entryDx=0;entryDy=0;" parent="lXrD42SNP3AWvQBeYb2Y-1" source="lXrD42SNP3AWvQBeYb2Y-9" target="lXrD42SNP3AWvQBeYb2Y-15" edge="1">
          <mxGeometry relative="1" as="geometry">
            <mxPoint x="340" y="260" as="targetPoint" />
            <mxPoint x="340" y="230" as="sourcePoint" />
            <Array as="points">
              <mxPoint x="340" y="240" />
              <mxPoint x="400" y="240" />
            </Array>
          </mxGeometry>
        </mxCell>
        <mxCell id="lXrD42SNP3AWvQBeYb2Y-8" value="$$\scriptsize\mathsf{Emp}$$" style="edgeLabel;html=1;align=left;verticalAlign=middle;resizable=0;points=[];labelBackgroundColor=none;" parent="lXrD42SNP3AWvQBeYb2Y-7" vertex="1" connectable="0">
          <mxGeometry x="0.7262" y="1" relative="1" as="geometry">
            <mxPoint x="-51" y="-33.45" as="offset" />
          </mxGeometry>
        </mxCell>
        <mxCell id="lXrD42SNP3AWvQBeYb2Y-9" value="$$\small\mathsf{employee}$$" style="rounded=1;whiteSpace=wrap;html=1;labelBackgroundColor=none;fillColor=#f5f5f5;strokeColor=#666666;fontColor=#333333;" parent="lXrD42SNP3AWvQBeYb2Y-1" vertex="1">
          <mxGeometry x="280" y="180" width="80" height="40" as="geometry" />
        </mxCell>
        <mxCell id="lXrD42SNP3AWvQBeYb2Y-10" style="edgeStyle=orthogonalEdgeStyle;rounded=0;orthogonalLoop=1;jettySize=auto;html=1;curved=1;" parent="lXrD42SNP3AWvQBeYb2Y-1" source="lXrD42SNP3AWvQBeYb2Y-12" edge="1">
          <mxGeometry relative="1" as="geometry">
            <mxPoint x="320" y="480" as="targetPoint" />
          </mxGeometry>
        </mxCell>
        <mxCell id="lXrD42SNP3AWvQBeYb2Y-11" value="$$\scriptsize\mathrm{Int}$$" style="edgeLabel;html=1;align=left;verticalAlign=middle;resizable=0;points=[];labelBackgroundColor=none;" parent="lXrD42SNP3AWvQBeYb2Y-10" vertex="1" connectable="0">
          <mxGeometry x="-0.2361" relative="1" as="geometry">
            <mxPoint y="16.67" as="offset" />
          </mxGeometry>
        </mxCell>
        <mxCell id="lXrD42SNP3AWvQBeYb2Y-12" value="$$\small\mathrm{sum}$$" style="rounded=1;whiteSpace=wrap;html=1;labelBackgroundColor=none;fillColor=#f5f5f5;strokeColor=#666666;fontColor=#333333;" parent="lXrD42SNP3AWvQBeYb2Y-1" vertex="1">
          <mxGeometry x="280" y="380" width="80" height="40" as="geometry" />
        </mxCell>
        <mxCell id="lXrD42SNP3AWvQBeYb2Y-13" style="edgeStyle=orthogonalEdgeStyle;curved=1;rounded=0;orthogonalLoop=1;jettySize=auto;html=1;entryX=0.75;entryY=0;entryDx=0;entryDy=0;exitX=0.5;exitY=1;exitDx=0;exitDy=0;" parent="lXrD42SNP3AWvQBeYb2Y-1" source="lXrD42SNP3AWvQBeYb2Y-15" target="lXrD42SNP3AWvQBeYb2Y-12" edge="1">
          <mxGeometry relative="1" as="geometry">
            <mxPoint x="340" y="360" as="targetPoint" />
            <mxPoint x="340" y="320" as="sourcePoint" />
          </mxGeometry>
        </mxCell>
        <mxCell id="lXrD42SNP3AWvQBeYb2Y-14" value="$$\scriptsize\mathrm{Int}$$" style="edgeLabel;html=1;align=left;verticalAlign=middle;resizable=0;points=[];labelBackgroundColor=none;" parent="lXrD42SNP3AWvQBeYb2Y-13" vertex="1" connectable="0">
          <mxGeometry x="-0.6895" y="-1" relative="1" as="geometry">
            <mxPoint x="0.9800000000000004" y="-8.620000000000001" as="offset" />
          </mxGeometry>
        </mxCell>
        <mxCell id="lXrD42SNP3AWvQBeYb2Y-15" value="$$\small\mathsf{salary}$$" style="rounded=1;whiteSpace=wrap;html=1;labelBackgroundColor=none;fillColor=#f5f5f5;strokeColor=#666666;fontColor=#333333;" parent="lXrD42SNP3AWvQBeYb2Y-1" vertex="1">
          <mxGeometry x="360" y="280" width="80" height="40" as="geometry" />
        </mxCell>
        <mxCell id="lXrD42SNP3AWvQBeYb2Y-17" value="$$\small\mathrm{chain\_of}(\mathsf{employee},\mathrm{with\_elements}(\mathsf{salary}),\mathrm{sum})$$" style="text;html=1;align=center;verticalAlign=middle;resizable=0;points=[];autosize=1;" parent="lXrD42SNP3AWvQBeYb2Y-1" vertex="1">
          <mxGeometry x="70" y="500" width="580" height="20" as="geometry" />
        </mxCell>
        <mxCell id="NFgUOnwQjzlXIUFObGmg-0" value="" style="rounded=0;whiteSpace=wrap;html=1;labelBackgroundColor=none;align=left;fillColor=none;dashed=1;" parent="lXrD42SNP3AWvQBeYb2Y-1" vertex="1">
          <mxGeometry x="260" y="160" width="200" height="80" as="geometry" />
        </mxCell>
        <mxCell id="5lWLdPurmaIWkuxNNSL1-0" value="" style="rounded=0;whiteSpace=wrap;html=1;labelBackgroundColor=none;align=left;fillColor=none;dashed=1;" parent="lXrD42SNP3AWvQBeYb2Y-1" vertex="1">
          <mxGeometry x="260" y="260" width="200" height="80" as="geometry" />
        </mxCell>
        <mxCell id="5lWLdPurmaIWkuxNNSL1-1" value="" style="rounded=0;whiteSpace=wrap;html=1;labelBackgroundColor=none;align=left;fillColor=none;dashed=1;" parent="lXrD42SNP3AWvQBeYb2Y-1" vertex="1">
          <mxGeometry x="260" y="360" width="200" height="80" as="geometry" />
        </mxCell>
        <mxCell id="Tsb62_JIoOx4Fg10fZFE-2" style="edgeStyle=orthogonalEdgeStyle;curved=1;rounded=0;orthogonalLoop=1;jettySize=auto;html=1;dashed=1;dashPattern=1 1;endArrow=classicThin;endFill=1;exitX=0.5;exitY=0;exitDx=0;exitDy=0;" parent="lXrD42SNP3AWvQBeYb2Y-1" source="_Kp1YMvD1zBt_L0h2bmh-0" edge="1">
          <mxGeometry relative="1" as="geometry">
            <mxPoint x="450" y="350" as="targetPoint" />
            <Array as="points">
              <mxPoint x="650" y="350" />
            </Array>
          </mxGeometry>
        </mxCell>
        <mxCell id="Tsb62_JIoOx4Fg10fZFE-3" style="edgeStyle=orthogonalEdgeStyle;curved=1;rounded=0;orthogonalLoop=1;jettySize=auto;html=1;dashed=1;dashPattern=1 1;endArrow=classicThin;endFill=1;exitX=0.5;exitY=0;exitDx=0;exitDy=0;" parent="lXrD42SNP3AWvQBeYb2Y-1" source="_Kp1YMvD1zBt_L0h2bmh-0" edge="1">
          <mxGeometry relative="1" as="geometry">
            <mxPoint x="450" y="250" as="targetPoint" />
            <Array as="points">
              <mxPoint x="650" y="250" />
            </Array>
          </mxGeometry>
        </mxCell>
        <mxCell id="_Kp1YMvD1zBt_L0h2bmh-0" value="Composition \(\small\mathrm{chain\_of}(\unicode{x2B1A},\unicode{x2B1A},\unicode{x2B1A})\)" style="ellipse;whiteSpace=wrap;html=1;labelBackgroundColor=none;align=center;dashed=1;dashPattern=1 1;fontSize=11;fontStyle=2" parent="lXrD42SNP3AWvQBeYb2Y-1" vertex="1">
          <mxGeometry x="580" y="380" width="140" height="60" as="geometry" />
        </mxCell>
        <mxCell id="Tsb62_JIoOx4Fg10fZFE-1" style="edgeStyle=orthogonalEdgeStyle;curved=1;rounded=0;orthogonalLoop=1;jettySize=auto;html=1;exitX=0.5;exitY=0;exitDx=0;exitDy=0;dashed=1;dashPattern=1 1;endArrow=classicThin;endFill=1;" parent="lXrD42SNP3AWvQBeYb2Y-1" source="Tsb62_JIoOx4Fg10fZFE-0" edge="1">
          <mxGeometry relative="1" as="geometry">
            <mxPoint x="280" y="290" as="targetPoint" />
            <Array as="points">
              <mxPoint x="100" y="290" />
            </Array>
          </mxGeometry>
        </mxCell>
        <mxCell id="Tsb62_JIoOx4Fg10fZFE-0" value="Transformation \(\small\mathrm{with\_elements}(\unicode{x2B1A})\)" style="ellipse;whiteSpace=wrap;html=1;labelBackgroundColor=none;align=center;dashed=1;dashPattern=1 1;fontSize=11;fontStyle=2" parent="lXrD42SNP3AWvQBeYb2Y-1" vertex="1">
          <mxGeometry x="40" y="340" width="120" height="60" as="geometry" />
        </mxCell>
      </root>
    </mxGraphModel>
  </diagram>
  <diagram name="Challenge: Functor Transformation" id="-ROBwNJKKImjJFzfYWlD">
    <mxGraphModel dx="1350" dy="748" grid="1" gridSize="10" guides="1" tooltips="1" connect="1" arrows="1" fold="1" page="1" pageScale="1" pageWidth="980" pageHeight="690" math="1" shadow="0">
      <root>
        <mxCell id="P8mgETg40BMkW2NraThL-0" />
        <mxCell id="P8mgETg40BMkW2NraThL-1" parent="P8mgETg40BMkW2NraThL-0" />
        <mxCell id="P8mgETg40BMkW2NraThL-2" value="&lt;h1&gt;Challenge: Functor Transformation&lt;/h1&gt;" style="text;html=1;align=center;verticalAlign=middle;resizable=0;points=[];autosize=1;" vertex="1" parent="P8mgETg40BMkW2NraThL-1">
          <mxGeometry x="40" y="30" width="410" height="50" as="geometry" />
        </mxCell>
        <mxCell id="7MnAWicnLeugulBRxepQ-0" value="?" style="text;html=1;align=center;verticalAlign=middle;resizable=0;points=[];autosize=1;fontSize=120;fontStyle=1;fontColor=#E6E6E6;" vertex="1" parent="P8mgETg40BMkW2NraThL-1">
          <mxGeometry x="780" y="225" width="90" height="150" as="geometry" />
        </mxCell>
        <mxCell id="mrbS4nVrJjUAxeafDG2--2" style="edgeStyle=orthogonalEdgeStyle;curved=1;rounded=0;orthogonalLoop=1;jettySize=auto;html=1;startSize=0;endArrow=classic;endFill=1;" edge="1" parent="P8mgETg40BMkW2NraThL-1" source="mrbS4nVrJjUAxeafDG2--1">
          <mxGeometry relative="1" as="geometry">
            <mxPoint x="140" y="400" as="targetPoint" />
          </mxGeometry>
        </mxCell>
        <mxCell id="mrbS4nVrJjUAxeafDG2--4" style="edgeStyle=orthogonalEdgeStyle;curved=1;rounded=0;orthogonalLoop=1;jettySize=auto;html=1;startSize=0;endArrow=classic;endFill=1;" edge="1" parent="P8mgETg40BMkW2NraThL-1">
          <mxGeometry relative="1" as="geometry">
            <mxPoint x="80" y="400" as="targetPoint" />
            <mxPoint x="80" y="200" as="sourcePoint" />
          </mxGeometry>
        </mxCell>
        <mxCell id="mrbS4nVrJjUAxeafDG2--1" value="" style="rounded=1;whiteSpace=wrap;html=1;labelBackgroundColor=none;fillColor=#f5f5f5;strokeColor=#666666;fontColor=#333333;" vertex="1" parent="P8mgETg40BMkW2NraThL-1">
          <mxGeometry x="100" y="280" width="80" height="40" as="geometry" />
        </mxCell>
        <mxCell id="mrbS4nVrJjUAxeafDG2--3" style="edgeStyle=orthogonalEdgeStyle;curved=1;rounded=0;orthogonalLoop=1;jettySize=auto;html=1;startSize=0;endArrow=classic;endFill=1;entryX=0.5;entryY=0;entryDx=0;entryDy=0;" edge="1" parent="P8mgETg40BMkW2NraThL-1" target="mrbS4nVrJjUAxeafDG2--1">
          <mxGeometry relative="1" as="geometry">
            <mxPoint x="140" y="280" as="targetPoint" />
            <mxPoint x="140" y="200" as="sourcePoint" />
          </mxGeometry>
        </mxCell>
        <mxCell id="mrbS4nVrJjUAxeafDG2--6" style="edgeStyle=orthogonalEdgeStyle;curved=1;rounded=0;orthogonalLoop=1;jettySize=auto;html=1;startSize=0;endArrow=classic;endFill=1;" edge="1" parent="P8mgETg40BMkW2NraThL-1" source="mrbS4nVrJjUAxeafDG2--5">
          <mxGeometry relative="1" as="geometry">
            <mxPoint x="300" y="400" as="targetPoint" />
          </mxGeometry>
        </mxCell>
        <mxCell id="mrbS4nVrJjUAxeafDG2--5" value="" style="rounded=1;whiteSpace=wrap;html=1;labelBackgroundColor=none;fillColor=#f5f5f5;strokeColor=#666666;fontColor=#333333;" vertex="1" parent="P8mgETg40BMkW2NraThL-1">
          <mxGeometry x="260" y="280" width="80" height="40" as="geometry" />
        </mxCell>
        <mxCell id="mrbS4nVrJjUAxeafDG2--7" style="edgeStyle=orthogonalEdgeStyle;curved=1;rounded=0;orthogonalLoop=1;jettySize=auto;html=1;startSize=0;endArrow=classic;endFill=1;entryX=0.25;entryY=0;entryDx=0;entryDy=0;" edge="1" parent="P8mgETg40BMkW2NraThL-1" target="mrbS4nVrJjUAxeafDG2--5">
          <mxGeometry relative="1" as="geometry">
            <mxPoint x="280" y="270" as="targetPoint" />
            <mxPoint x="280" y="200" as="sourcePoint" />
          </mxGeometry>
        </mxCell>
        <mxCell id="mrbS4nVrJjUAxeafDG2--8" style="edgeStyle=orthogonalEdgeStyle;curved=1;rounded=0;orthogonalLoop=1;jettySize=auto;html=1;startSize=0;endArrow=classic;endFill=1;entryX=0.75;entryY=0;entryDx=0;entryDy=0;" edge="1" parent="P8mgETg40BMkW2NraThL-1" target="mrbS4nVrJjUAxeafDG2--5">
          <mxGeometry relative="1" as="geometry">
            <mxPoint x="320" y="270" as="targetPoint" />
            <mxPoint x="320" y="200" as="sourcePoint" />
          </mxGeometry>
        </mxCell>
        <mxCell id="mrbS4nVrJjUAxeafDG2--10" style="edgeStyle=orthogonalEdgeStyle;curved=1;rounded=0;orthogonalLoop=1;jettySize=auto;html=1;exitX=0.25;exitY=1;exitDx=0;exitDy=0;startSize=0;endArrow=classic;endFill=1;" edge="1" parent="P8mgETg40BMkW2NraThL-1" source="mrbS4nVrJjUAxeafDG2--9">
          <mxGeometry relative="1" as="geometry">
            <mxPoint x="440" y="400" as="targetPoint" />
          </mxGeometry>
        </mxCell>
        <mxCell id="mrbS4nVrJjUAxeafDG2--11" style="edgeStyle=orthogonalEdgeStyle;curved=1;rounded=0;orthogonalLoop=1;jettySize=auto;html=1;exitX=0.75;exitY=1;exitDx=0;exitDy=0;startSize=0;endArrow=classic;endFill=1;" edge="1" parent="P8mgETg40BMkW2NraThL-1" source="mrbS4nVrJjUAxeafDG2--9">
          <mxGeometry relative="1" as="geometry">
            <mxPoint x="480.3103448275863" y="400" as="targetPoint" />
          </mxGeometry>
        </mxCell>
        <mxCell id="mrbS4nVrJjUAxeafDG2--9" value="" style="rounded=1;whiteSpace=wrap;html=1;labelBackgroundColor=none;fillColor=#f5f5f5;strokeColor=#666666;fontColor=#333333;" vertex="1" parent="P8mgETg40BMkW2NraThL-1">
          <mxGeometry x="420" y="280" width="80" height="40" as="geometry" />
        </mxCell>
        <mxCell id="mrbS4nVrJjUAxeafDG2--12" style="edgeStyle=orthogonalEdgeStyle;curved=1;rounded=0;orthogonalLoop=1;jettySize=auto;html=1;startSize=0;endArrow=classic;endFill=1;entryX=0.5;entryY=0;entryDx=0;entryDy=0;" edge="1" parent="P8mgETg40BMkW2NraThL-1" target="mrbS4nVrJjUAxeafDG2--9">
          <mxGeometry relative="1" as="geometry">
            <mxPoint x="460.3103448275863" y="260" as="targetPoint" />
            <mxPoint x="460" y="200" as="sourcePoint" />
          </mxGeometry>
        </mxCell>
        <mxCell id="mrbS4nVrJjUAxeafDG2--13" style="edgeStyle=orthogonalEdgeStyle;curved=1;rounded=0;orthogonalLoop=1;jettySize=auto;html=1;startSize=0;endArrow=classic;endFill=1;" edge="1" parent="P8mgETg40BMkW2NraThL-1" source="mrbS4nVrJjUAxeafDG2--15">
          <mxGeometry relative="1" as="geometry">
            <mxPoint x="699.29" y="400" as="targetPoint" />
          </mxGeometry>
        </mxCell>
        <mxCell id="mrbS4nVrJjUAxeafDG2--14" style="edgeStyle=orthogonalEdgeStyle;curved=1;rounded=0;orthogonalLoop=1;jettySize=auto;html=1;startSize=0;endArrow=classic;endFill=1;" edge="1" parent="P8mgETg40BMkW2NraThL-1">
          <mxGeometry relative="1" as="geometry">
            <mxPoint x="759.29" y="400" as="targetPoint" />
            <mxPoint x="759.29" y="200" as="sourcePoint" />
          </mxGeometry>
        </mxCell>
        <mxCell id="mrbS4nVrJjUAxeafDG2--15" value="" style="rounded=1;whiteSpace=wrap;html=1;labelBackgroundColor=none;fillColor=#f5f5f5;strokeColor=#666666;fontColor=#333333;" vertex="1" parent="P8mgETg40BMkW2NraThL-1">
          <mxGeometry x="659.29" y="280" width="80" height="40" as="geometry" />
        </mxCell>
        <mxCell id="mrbS4nVrJjUAxeafDG2--16" style="edgeStyle=orthogonalEdgeStyle;curved=1;rounded=0;orthogonalLoop=1;jettySize=auto;html=1;startSize=0;endArrow=classic;endFill=1;entryX=0.5;entryY=0;entryDx=0;entryDy=0;" edge="1" parent="P8mgETg40BMkW2NraThL-1" target="mrbS4nVrJjUAxeafDG2--15">
          <mxGeometry relative="1" as="geometry">
            <mxPoint x="699.29" y="280" as="targetPoint" />
            <mxPoint x="699.29" y="200" as="sourcePoint" />
          </mxGeometry>
        </mxCell>
        <mxCell id="mrbS4nVrJjUAxeafDG2--17" value="So far we have seen different combinations of transformations and wires:&lt;br&gt;transformations that are applied to the object wire, as well as&lt;br&gt;transformations that consume or produce both functor and object wires." style="text;html=1;align=left;verticalAlign=middle;resizable=0;points=[];autosize=1;" vertex="1" parent="P8mgETg40BMkW2NraThL-1">
          <mxGeometry x="80" y="120" width="400" height="50" as="geometry" />
        </mxCell>
        <mxCell id="mrbS4nVrJjUAxeafDG2--18" value="What we miss is a notion of a transformation&lt;br&gt;applied to the functor wire." style="text;html=1;align=left;verticalAlign=middle;resizable=0;points=[];autosize=1;" vertex="1" parent="P8mgETg40BMkW2NraThL-1">
          <mxGeometry x="620" y="130" width="250" height="30" as="geometry" />
        </mxCell>
      </root>
    </mxGraphModel>
  </diagram>
  <diagram name="Functor Transformation" id="Z7eOiWPwiInC3qPUwh6j">
    <mxGraphModel dx="1157" dy="641" grid="1" gridSize="10" guides="1" tooltips="1" connect="1" arrows="1" fold="1" page="1" pageScale="1" pageWidth="980" pageHeight="690" math="1" shadow="0">
      <root>
        <mxCell id="cB2VAgo0iD4xgRNr39P2-0" />
        <mxCell id="cB2VAgo0iD4xgRNr39P2-1" parent="cB2VAgo0iD4xgRNr39P2-0" />
        <mxCell id="cB2VAgo0iD4xgRNr39P2-2" value="&lt;h1&gt;Functor Transformation&lt;/h1&gt;" style="text;html=1;align=center;verticalAlign=middle;resizable=0;points=[];autosize=1;" vertex="1" parent="cB2VAgo0iD4xgRNr39P2-1">
          <mxGeometry x="40" y="30" width="280" height="50" as="geometry" />
        </mxCell>
        <mxCell id="cB2VAgo0iD4xgRNr39P2-3" style="edgeStyle=orthogonalEdgeStyle;curved=1;rounded=0;orthogonalLoop=1;jettySize=auto;html=1;endArrow=classic;endFill=1;strokeColor=#000000;fontSize=12;fontColor=#000000;entryX=0.5;entryY=0;entryDx=0;entryDy=0;" edge="1" parent="cB2VAgo0iD4xgRNr39P2-1" target="cB2VAgo0iD4xgRNr39P2-6">
          <mxGeometry relative="1" as="geometry">
            <mxPoint x="80" y="200" as="targetPoint" />
            <mxPoint x="80" y="120" as="sourcePoint" />
          </mxGeometry>
        </mxCell>
        <mxCell id="cB2VAgo0iD4xgRNr39P2-4" style="edgeStyle=orthogonalEdgeStyle;curved=1;rounded=0;orthogonalLoop=1;jettySize=auto;html=1;endArrow=none;endFill=0;" edge="1" parent="cB2VAgo0iD4xgRNr39P2-1">
          <mxGeometry relative="1" as="geometry">
            <mxPoint x="80" y="320" as="targetPoint" />
            <mxPoint x="80" y="160" as="sourcePoint" />
            <Array as="points">
              <mxPoint x="80" y="200" />
              <mxPoint x="160" y="200" />
              <mxPoint x="160" y="280" />
              <mxPoint x="80" y="280" />
            </Array>
          </mxGeometry>
        </mxCell>
        <mxCell id="cB2VAgo0iD4xgRNr39P2-5" style="edgeStyle=orthogonalEdgeStyle;curved=1;rounded=0;orthogonalLoop=1;jettySize=auto;html=1;exitX=0.5;exitY=1;exitDx=0;exitDy=0;startSize=0;" edge="1" parent="cB2VAgo0iD4xgRNr39P2-1" source="cB2VAgo0iD4xgRNr39P2-6">
          <mxGeometry relative="1" as="geometry">
            <mxPoint x="80" y="360" as="targetPoint" />
          </mxGeometry>
        </mxCell>
        <mxCell id="cB2VAgo0iD4xgRNr39P2-6" value="$$\phi$$" style="rounded=1;whiteSpace=wrap;html=1;labelBackgroundColor=none;fillColor=#f5f5f5;strokeColor=#666666;fontColor=#333333;" vertex="1" parent="cB2VAgo0iD4xgRNr39P2-1">
          <mxGeometry x="40" y="220" width="80" height="40" as="geometry" />
        </mxCell>
        <mxCell id="cB2VAgo0iD4xgRNr39P2-11" value="?" style="text;html=1;align=center;verticalAlign=middle;resizable=0;points=[];autosize=1;fontSize=120;fontStyle=1;fontColor=#E6E6E6;" vertex="1" parent="cB2VAgo0iD4xgRNr39P2-1">
          <mxGeometry x="190" y="165" width="90" height="150" as="geometry" />
        </mxCell>
        <mxCell id="cB2VAgo0iD4xgRNr39P2-13" value="How to define a functor transformation?" style="text;html=1;align=left;verticalAlign=middle;resizable=0;points=[];autosize=1;" vertex="1" parent="cB2VAgo0iD4xgRNr39P2-1">
          <mxGeometry x="40" y="400" width="220" height="20" as="geometry" />
        </mxCell>
        <mxCell id="2PTX_cmw1VGdGXJB2cnS-0" value="Branch of mathematics that studies natural transformations&lt;br&gt;is called the &lt;i&gt;category theory&lt;/i&gt;." style="text;html=1;align=left;verticalAlign=middle;resizable=0;points=[];autosize=1;" vertex="1" parent="cB2VAgo0iD4xgRNr39P2-1">
          <mxGeometry x="600" y="480" width="330" height="30" as="geometry" />
        </mxCell>
        <mxCell id="2PTX_cmw1VGdGXJB2cnS-1" value="Such transformations are also called &lt;i&gt;natural&lt;/i&gt;." style="text;html=1;align=left;verticalAlign=middle;resizable=0;points=[];autosize=1;" vertex="1" parent="cB2VAgo0iD4xgRNr39P2-1">
          <mxGeometry x="600" y="440" width="250" height="20" as="geometry" />
        </mxCell>
        <mxCell id="2PTX_cmw1VGdGXJB2cnS-2" value="Since a functor transformation does not act on the object wire,&lt;br&gt;it cannot interfere with any transformations applied to the object wire." style="text;html=1;align=left;verticalAlign=middle;resizable=0;points=[];autosize=1;" vertex="1" parent="cB2VAgo0iD4xgRNr39P2-1">
          <mxGeometry x="400" y="120" width="380" height="30" as="geometry" />
        </mxCell>
        <mxCell id="Jjh4p3nk-GUIq86eBPmM-0" style="edgeStyle=orthogonalEdgeStyle;curved=1;rounded=0;orthogonalLoop=1;jettySize=auto;html=1;startSize=0;endArrow=classic;endFill=1;" edge="1" parent="cB2VAgo0iD4xgRNr39P2-1" source="Jjh4p3nk-GUIq86eBPmM-1">
          <mxGeometry relative="1" as="geometry">
            <mxPoint x="440" y="400" as="targetPoint" />
          </mxGeometry>
        </mxCell>
        <mxCell id="Jjh4p3nk-GUIq86eBPmM-1" value="$$\phi$$" style="rounded=1;whiteSpace=wrap;html=1;labelBackgroundColor=none;fillColor=#f5f5f5;strokeColor=#666666;fontColor=#333333;" vertex="1" parent="cB2VAgo0iD4xgRNr39P2-1">
          <mxGeometry x="399.99999999999994" y="320" width="80" height="40" as="geometry" />
        </mxCell>
        <mxCell id="Jjh4p3nk-GUIq86eBPmM-2" style="edgeStyle=orthogonalEdgeStyle;curved=1;rounded=0;orthogonalLoop=1;jettySize=auto;html=1;startSize=0;endArrow=classic;endFill=1;entryX=0.5;entryY=0;entryDx=0;entryDy=0;" edge="1" parent="cB2VAgo0iD4xgRNr39P2-1" target="Jjh4p3nk-GUIq86eBPmM-1">
          <mxGeometry relative="1" as="geometry">
            <mxPoint x="439.99999999999994" y="320" as="targetPoint" />
            <mxPoint x="440" y="200" as="sourcePoint" />
          </mxGeometry>
        </mxCell>
        <mxCell id="Jjh4p3nk-GUIq86eBPmM-3" style="edgeStyle=orthogonalEdgeStyle;curved=1;rounded=0;orthogonalLoop=1;jettySize=auto;html=1;startSize=0;endArrow=classic;endFill=1;" edge="1" parent="cB2VAgo0iD4xgRNr39P2-1" source="Jjh4p3nk-GUIq86eBPmM-4">
          <mxGeometry relative="1" as="geometry">
            <mxPoint x="520" y="400" as="targetPoint" />
          </mxGeometry>
        </mxCell>
        <mxCell id="Jjh4p3nk-GUIq86eBPmM-4" value="$$f$$" style="rounded=1;whiteSpace=wrap;html=1;labelBackgroundColor=none;fillColor=#f5f5f5;strokeColor=#666666;fontColor=#333333;" vertex="1" parent="cB2VAgo0iD4xgRNr39P2-1">
          <mxGeometry x="480" y="240" width="80" height="40" as="geometry" />
        </mxCell>
        <mxCell id="Jjh4p3nk-GUIq86eBPmM-5" style="edgeStyle=orthogonalEdgeStyle;curved=1;rounded=0;orthogonalLoop=1;jettySize=auto;html=1;startSize=0;endArrow=classic;endFill=1;entryX=0.5;entryY=0;entryDx=0;entryDy=0;" edge="1" parent="cB2VAgo0iD4xgRNr39P2-1" target="Jjh4p3nk-GUIq86eBPmM-4">
          <mxGeometry relative="1" as="geometry">
            <mxPoint x="520" y="240" as="targetPoint" />
            <mxPoint x="520" y="200" as="sourcePoint" />
          </mxGeometry>
        </mxCell>
        <mxCell id="yau7QLY8IqV0Gapx1_XD-0" value="" style="shape=doubleArrow;whiteSpace=wrap;html=1;strokeColor=none;fillColor=#E6E6E6;arrowWidth=0.43200000000000044;arrowSize=0.30399999999999977;" vertex="1" parent="cB2VAgo0iD4xgRNr39P2-1">
          <mxGeometry x="610" y="250" width="100" height="100" as="geometry" />
        </mxCell>
        <mxCell id="yau7QLY8IqV0Gapx1_XD-1" style="edgeStyle=orthogonalEdgeStyle;curved=1;rounded=0;orthogonalLoop=1;jettySize=auto;html=1;startSize=0;endArrow=classic;endFill=1;" edge="1" parent="cB2VAgo0iD4xgRNr39P2-1" source="yau7QLY8IqV0Gapx1_XD-2">
          <mxGeometry relative="1" as="geometry">
            <mxPoint x="800" y="400" as="targetPoint" />
          </mxGeometry>
        </mxCell>
        <mxCell id="yau7QLY8IqV0Gapx1_XD-2" value="$$\phi$$" style="rounded=1;whiteSpace=wrap;html=1;labelBackgroundColor=none;fillColor=#f5f5f5;strokeColor=#666666;fontColor=#333333;" vertex="1" parent="cB2VAgo0iD4xgRNr39P2-1">
          <mxGeometry x="760" y="240" width="80" height="40" as="geometry" />
        </mxCell>
        <mxCell id="yau7QLY8IqV0Gapx1_XD-3" style="edgeStyle=orthogonalEdgeStyle;curved=1;rounded=0;orthogonalLoop=1;jettySize=auto;html=1;startSize=0;endArrow=classic;endFill=1;entryX=0.5;entryY=0;entryDx=0;entryDy=0;" edge="1" parent="cB2VAgo0iD4xgRNr39P2-1" target="yau7QLY8IqV0Gapx1_XD-2">
          <mxGeometry relative="1" as="geometry">
            <mxPoint x="800" y="240" as="targetPoint" />
            <mxPoint x="800" y="200" as="sourcePoint" />
          </mxGeometry>
        </mxCell>
        <mxCell id="yau7QLY8IqV0Gapx1_XD-4" style="edgeStyle=orthogonalEdgeStyle;curved=1;rounded=0;orthogonalLoop=1;jettySize=auto;html=1;startSize=0;endArrow=classic;endFill=1;" edge="1" parent="cB2VAgo0iD4xgRNr39P2-1" source="yau7QLY8IqV0Gapx1_XD-5">
          <mxGeometry relative="1" as="geometry">
            <mxPoint x="880" y="400" as="targetPoint" />
          </mxGeometry>
        </mxCell>
        <mxCell id="yau7QLY8IqV0Gapx1_XD-5" value="$$f$$" style="rounded=1;whiteSpace=wrap;html=1;labelBackgroundColor=none;fillColor=#f5f5f5;strokeColor=#666666;fontColor=#333333;" vertex="1" parent="cB2VAgo0iD4xgRNr39P2-1">
          <mxGeometry x="840" y="320" width="80" height="40" as="geometry" />
        </mxCell>
        <mxCell id="yau7QLY8IqV0Gapx1_XD-6" style="edgeStyle=orthogonalEdgeStyle;curved=1;rounded=0;orthogonalLoop=1;jettySize=auto;html=1;startSize=0;endArrow=classic;endFill=1;entryX=0.5;entryY=0;entryDx=0;entryDy=0;" edge="1" parent="cB2VAgo0iD4xgRNr39P2-1" target="yau7QLY8IqV0Gapx1_XD-5">
          <mxGeometry relative="1" as="geometry">
            <mxPoint x="880" y="320" as="targetPoint" />
            <mxPoint x="880" y="200" as="sourcePoint" />
          </mxGeometry>
        </mxCell>
        <mxCell id="yau7QLY8IqV0Gapx1_XD-7" value="$$\Large\forall f$$" style="text;html=1;align=center;verticalAlign=middle;resizable=0;points=[];autosize=1;" vertex="1" parent="cB2VAgo0iD4xgRNr39P2-1">
          <mxGeometry x="305" y="290" width="110" height="20" as="geometry" />
        </mxCell>
      </root>
    </mxGraphModel>
  </diagram>
</mxfile>
